<svg width="138" height="114" viewBox="0 0 138 114" fill="none" xmlns="http://www.w3.org/2000/svg">
<path d="M46.824 24.8018C46.7874 24.7473 46.7141 24.7109 46.6591 24.7109C41.6398 24.7109 36.6204 24.7109 31.6011 24.7109V91.5186C31.6011 94.8072 46.9706 94.8072 46.9706 91.5186C46.9706 88.7205 46.9706 85.9407 46.9706 83.1426C46.9706 76.7108 46.9706 70.2789 46.9706 63.8471C46.9706 56.6703 46.9706 49.4754 46.9706 42.2986C46.9706 37.2476 46.9706 32.2148 46.9706 27.1638C46.9706 26.7822 47.1171 25.2197 46.824 24.8018Z" fill="white"/>
<path d="M30.7397 23.7298C29.9519 24.1477 30.0252 25.2924 30.0252 26.2008C30.0069 29.6893 30.0252 33.1778 30.0252 36.6844C30.0252 43.6613 30.0252 50.6564 30.0252 57.6333C30.0252 68.4621 30.0252 79.2908 30.0252 90.1196C30.0252 91.0644 30.0435 92.0455 30.5015 92.8813C31.161 94.0623 32.5532 94.6073 33.8722 94.9344C37.5909 95.861 41.5661 95.8065 45.2481 94.7345C46.4206 94.3893 47.6662 93.8624 48.2158 92.7904C48.5639 92.1182 48.5638 91.3187 48.5638 90.5738C48.5638 68.8436 48.5639 47.0953 48.5455 25.3651C48.5455 24.8745 48.5272 24.3476 48.2158 23.966C47.6479 23.2756 46.4205 23.5482 45.9076 24.2931C45.3947 25.0199 45.3581 25.9828 45.3764 26.8731C45.3947 47.9129 45.3947 68.9526 45.413 89.9924C45.413 90.4648 45.3947 90.9735 45.1199 91.3369C44.8451 91.7003 44.3505 91.8456 43.9109 91.9365C40.7784 92.6632 37.4627 92.6269 34.3485 91.8456C34.037 91.7729 33.7256 91.6821 33.5058 91.4459C33.1944 91.1189 33.1761 90.6283 33.1761 90.1922C33.1761 68.8981 33.1944 47.604 33.1944 26.3099C33.1944 25.0925 32.9562 23.5118 31.3625 23.5845C31.106 23.5845 30.9045 23.639 30.7397 23.7298Z" fill="#D19E54"/>
<path d="M43.984 24.7109H43.7275V91.9546C43.8191 91.9364 43.8924 91.9183 43.984 91.8819V24.7109Z" fill="#BA8A50"/>
<path d="M42.1158 24.7109H41.8594V82.9791C41.8594 86.086 41.8594 89.1747 41.8594 92.2816C41.951 92.2635 42.0242 92.2635 42.1158 92.2453C42.1158 84.1964 42.1158 76.1657 42.1158 68.1168V24.7109Z" fill="#BA8A50"/>
<path d="M40.2477 24.7109H39.9912V92.4089C40.0828 92.4089 40.1561 92.4089 40.2477 92.4089V24.7109Z" fill="#BA8A50"/>
<path d="M38.2872 92.3907C38.1406 91.5004 38.1406 90.5738 38.1406 89.6653C38.1406 81.4166 38.1406 73.186 38.1406 64.9372C38.1406 60.3223 38.1406 55.7255 38.1406 51.1106C38.1406 42.3168 38.1406 33.5048 38.1406 24.7109H38.3971V68.353C38.3971 76.3656 38.3971 84.3781 38.3971 92.3907H38.2872Z" fill="#BA8A50"/>
<path d="M36.401 24.7109C36.346 33.6138 36.3094 42.4984 36.2544 51.4013C36.2178 60.613 36.2361 69.8247 36.291 79.0546C36.3094 83.4515 36.3094 87.8484 36.3826 92.2453C36.401 92.2453 36.4193 92.2453 36.4193 92.2453C36.7307 87.8847 36.5292 83.506 36.5475 79.1454C36.5658 74.6032 36.5475 70.0427 36.5475 65.5005C36.5475 65.3188 36.5475 65.1371 36.5475 64.9372C36.5109 55.7255 36.5475 46.5138 36.4926 37.3021C36.4742 33.0869 36.4376 28.8898 36.401 24.7109Z" fill="#BA8A50"/>
<path d="M34.6603 24.7109H34.4038C34.4404 33.6319 34.532 42.5348 34.4954 51.4558C34.4771 57.0155 34.4771 62.5934 34.4588 68.1532C34.4588 74.2943 34.4038 80.4354 34.4038 86.5766C34.4038 88.339 34.4038 90.0832 34.4038 91.8456C34.4771 91.8638 34.5687 91.9001 34.6603 91.9183C34.6603 86.3404 34.6786 80.7625 34.6969 75.1664C34.6969 69.9882 34.7336 64.8101 34.7519 59.6137C34.7519 56.8883 34.7519 54.163 34.7519 51.4376C34.7519 42.5166 34.6969 33.6138 34.6603 24.7109Z" fill="#BA8A50"/>
<path d="M118.249 24.7106V91.4637C119.751 91.4637 136.311 91.4637 136.311 91.4637V24.7106C136.293 21.422 118.249 21.422 118.249 24.7106Z" fill="white"/>
<path d="M116.655 24.7288C116.508 25.8372 116.673 27.0908 116.673 28.0901C116.673 30.3794 116.673 32.6869 116.673 34.9762C116.673 42.5164 116.673 50.0747 116.673 57.6148C116.673 65.264 116.673 72.895 116.673 80.5442C116.673 84.1598 116.673 87.7937 116.673 91.4093C116.673 91.6637 116.673 91.9362 116.856 92.1361C117.058 92.3541 117.388 92.3904 117.681 92.3904C118.322 92.3904 119.842 92.6629 119.842 91.6636V25.4193C119.842 25.1286 120.007 24.8742 120.282 24.7652C120.648 24.6017 121.253 24.4018 122.187 24.2201C125.943 23.5115 129.936 23.6569 133.636 24.4926C135.175 24.8379 134.736 26.8546 134.736 28.0901C134.736 30.1614 134.736 32.2327 134.736 34.2858C134.736 40.6086 134.736 46.9496 134.736 53.2724C134.736 60.2675 134.736 67.2626 134.736 74.2577C134.736 79.1997 134.736 84.1417 134.736 89.0836C134.736 89.9376 134.736 90.8097 134.736 91.6636C134.736 92.0634 135.065 92.3904 135.468 92.3904C136.164 92.3904 137.319 92.6629 137.795 91.9907C138.18 91.4638 137.905 89.7741 137.905 89.0291C137.905 88.0843 137.905 87.1214 137.905 86.1766C137.905 83.4876 137.905 80.8167 137.905 78.1277C137.905 70.9873 137.905 63.8287 137.905 56.6882C137.905 49.7476 137.905 42.8071 137.905 35.8665C137.905 33.4318 137.905 30.979 137.905 28.5443C137.905 26.5639 138.509 23.7841 136.641 22.4395C135.89 21.8945 134.992 21.6401 134.094 21.4221C129.46 20.3319 124.55 20.2774 119.989 21.5856C119.165 21.8218 118.34 22.1125 117.681 22.6576C117.021 23.2027 116.765 23.9294 116.655 24.7288Z" fill="#D03838"/>
<path d="M130.596 23.9654C130.596 36.92 130.56 49.8745 130.56 62.8109V91.4453H130.816V61.212C130.816 53.6537 130.724 46.1135 130.816 38.5552C130.871 33.6859 130.999 28.8166 130.67 23.9473C130.633 23.9836 130.615 23.9654 130.596 23.9654Z" fill="#BA8A50"/>
<path d="M132.831 24.311V40.4088C132.831 51.5101 132.831 62.5932 132.831 73.6945C132.831 79.6176 132.831 85.5407 132.831 91.4639H133.179C133.142 90.9551 133.088 90.4101 133.088 90.2284V87.503C133.088 85.7588 133.088 84.0146 133.088 82.2522V71.7686C133.088 64.7735 133.088 57.7784 133.088 50.8015C133.088 42.0077 133.088 33.1957 133.088 24.4019C132.996 24.3655 132.923 24.3474 132.831 24.311Z" fill="#BA8A50"/>
<path d="M128.69 23.8389C128.69 27.3818 128.69 43.4433 128.69 44.7696V91.4641H128.947V60.1951C128.947 48.0764 128.947 35.9576 128.947 23.8389C128.855 23.8389 128.782 23.8389 128.69 23.8389Z" fill="#BA8A50"/>
<path d="M127.152 23.8022C127.024 23.8022 126.877 23.8022 126.749 23.8022C126.621 24.6744 126.822 26.0734 126.822 26.7275V30.7247C126.822 33.3773 126.822 36.0482 126.822 38.7009V91.4638H127.078V28.0538C127.078 26.9091 127.408 25.0741 127.152 23.8022Z" fill="#BA8A50"/>
<path d="M125.21 23.875C125.118 23.875 125.045 23.8932 124.954 23.8932V68.7707C124.954 76.3291 124.954 83.9056 124.954 91.4639H125.21C125.21 78.0188 125.21 64.5737 125.21 51.1286C125.228 42.0441 125.21 32.9595 125.21 23.875Z" fill="#BA8A50"/>
<path d="M123.36 24.0386C123.268 24.0567 123.195 24.0567 123.104 24.0749V91.4639H123.36V24.0386Z" fill="#BA8A50"/>
<path d="M121.491 24.3657C121.4 24.3839 121.326 24.4021 121.235 24.4202V65.2098C121.235 69.8247 121.235 74.4578 121.235 79.0728C121.235 83.1971 121.235 87.3215 121.235 91.4459H121.491C121.491 91.137 121.491 90.8281 121.491 90.5193V24.3657Z" fill="#BA8A50"/>
<path d="M65.5091 98.6773C65.5091 95.8429 65.5091 93.0085 65.5091 90.1742C65.5091 83.6333 65.5091 77.0924 65.5091 70.5516C65.5091 63.2658 65.5091 55.9618 65.5091 48.676C65.5091 43.5887 65.5091 38.5014 65.5091 33.414C65.5091 32.4692 65.2344 30.943 66.0037 30.3253C66.4068 29.9983 66.9197 29.8711 67.4326 29.7621C71.1513 28.9445 74.9983 28.9445 78.7719 29.2897C79.7245 29.3805 83.5715 29.5985 83.5715 31.0157C83.5715 33.6502 83.5715 36.2848 83.5715 38.9193C83.5715 45.0604 83.5715 51.2197 83.5715 57.3609C83.5715 64.4286 83.5715 71.4782 83.5715 78.546C83.5715 83.9058 83.5715 89.2657 83.5715 94.6437C83.5715 95.6249 83.5715 96.606 83.5715 97.5872C83.5715 99.2769 82.8204 100.058 81.0068 100.476C78.1308 101.13 75.1815 101.33 72.2321 101.112C70.8949 101.003 65.5091 100.821 65.5091 98.6773Z" fill="#F2A05D"/>
<path d="M74.5397 96.0607C73.9169 96.0607 73.3123 96.0425 72.6895 95.988C72.6162 95.988 72.5246 95.9698 72.4147 95.9698C70.7111 95.8426 66.6992 95.5519 66.6992 93.0628V38.7009C66.6992 38.5738 66.6992 38.4102 66.6809 38.2285C66.6443 37.3564 66.571 36.1391 67.3954 35.4487C67.8533 35.049 68.4029 34.8854 68.8792 34.7764C71.4805 34.1587 74.4298 34.0315 77.892 34.3585L78.0569 34.3767C79.3575 34.5039 82.3985 34.7764 82.3985 36.7024V92.1361C82.3985 93.9349 81.5558 94.9705 79.7239 95.4247C78.0203 95.8608 76.28 96.0607 74.5397 96.0607ZM74.3565 36.0119C72.5063 36.0119 70.8393 36.1936 69.3005 36.557C69.0257 36.6297 68.751 36.7024 68.6044 36.8295C68.4579 36.9931 68.4945 37.8107 68.5128 38.1559C68.5311 38.3557 68.5311 38.5374 68.5311 38.7191V93.0628C68.5311 93.1536 68.641 93.8622 72.5613 94.1529C72.6712 94.1529 72.7811 94.1711 72.8544 94.1711C75.016 94.3528 77.1776 94.1892 79.2843 93.6623C80.2918 93.408 80.5666 93.0991 80.5666 92.1361V36.8114C80.42 36.6842 79.8705 36.3935 77.892 36.2118L77.7088 36.1936C76.5181 36.0664 75.4007 36.0119 74.3565 36.0119Z" fill="#FEFEFE"/>
<path d="M65.6187 96.3697C65.6187 96.4606 65.6553 96.5514 65.7469 96.6059C67.0658 97.6416 70.235 97.8414 71.7738 97.9323C71.9203 97.9323 72.0485 97.9505 72.1401 97.9505C75.1261 98.1685 78.0938 97.9686 80.9881 97.369C82.2521 97.1147 83.0215 96.6968 83.4245 96.0063C83.5161 95.861 83.4612 95.6611 83.3146 95.5703C83.1681 95.4794 82.9666 95.534 82.875 95.6793C82.5635 96.2062 81.9224 96.5332 80.8416 96.7513C78.0022 97.3327 75.0895 97.5144 72.1585 97.3145C72.0486 97.3145 71.9203 97.2963 71.7738 97.2963C70.4182 97.2055 67.2673 97.0238 66.1133 96.0972C65.985 95.9882 65.7835 96.0064 65.6736 96.1517C65.637 96.2244 65.6187 96.2971 65.6187 96.3697Z" fill="#FEFEFE"/>
<path d="M65.6187 33.6499C65.6187 33.7226 65.637 33.7953 65.6919 33.8498C65.8018 33.9769 66.0033 34.0133 66.1316 33.9043C67.2857 32.9958 70.4548 32.796 71.7921 32.7051C71.9386 32.7051 72.0669 32.6869 72.1768 32.6869C75.1078 32.4871 78.0205 32.6688 80.8599 33.2502C81.9407 33.4682 82.5819 33.7952 82.8933 34.3222C82.9849 34.4675 83.1864 34.522 83.3329 34.4312C83.4795 34.3403 83.5344 34.1405 83.4428 33.9951C83.0215 33.3229 82.2704 32.905 81.0064 32.6324C78.1121 32.0329 75.1444 31.8512 72.1585 32.051C72.0486 32.051 71.9203 32.0692 71.7921 32.0692C70.2716 32.16 67.0842 32.3599 65.7652 33.3955C65.6553 33.4682 65.6187 33.5591 65.6187 33.6499Z" fill="#FEFEFE"/>
<path d="M104.198 79.6177C104.198 76.7834 104.198 73.949 104.198 71.1146C104.198 64.5737 104.198 58.0329 104.198 51.492C104.198 44.2062 104.198 36.9023 104.198 29.6165C104.198 24.5292 104.198 19.4418 104.198 14.3545C104.198 13.4097 104.015 11.8835 104.528 11.2657C104.803 10.9387 105.133 10.8115 105.481 10.7025C107.954 9.88488 110.518 9.88489 113.028 10.2301C113.669 10.3209 116.215 10.539 116.215 11.9562C116.215 14.5907 116.215 17.2252 116.215 19.8597C116.215 26.0008 116.215 32.1602 116.215 38.3013C116.215 45.3691 116.215 52.4186 116.215 59.4864C116.215 64.8463 116.215 70.2062 116.215 75.5842C116.215 76.5653 116.215 77.5465 116.215 78.5276C116.215 80.2173 115.721 80.9986 114.512 81.4165C112.607 82.0706 110.628 82.2704 108.686 82.0524C107.77 81.9434 104.198 81.7435 104.198 79.6177Z" fill="#F2A05D"/>
<path d="M105.902 72.7499C105.902 70.497 105.902 68.244 105.902 65.9729C105.902 60.7766 105.902 55.562 105.902 50.3657C105.902 44.5698 105.902 38.7738 105.902 32.9597C105.902 28.908 105.902 24.8563 105.902 20.8046C105.902 20.0597 105.774 18.8424 106.14 18.3518C106.323 18.0974 106.58 17.9884 106.818 17.8976C108.577 17.2435 110.409 17.2435 112.222 17.5342C112.68 17.6069 114.494 17.7886 114.494 18.8969C114.494 20.9863 114.494 23.0758 114.494 25.1834C114.494 30.0708 114.494 34.9765 114.494 39.864C114.494 45.4782 114.494 51.0924 114.494 56.7067C114.494 60.9764 114.494 65.2461 114.494 69.5159C114.494 70.2971 114.494 71.0784 114.494 71.8597C114.494 73.2042 114.146 73.8219 113.266 74.1671C111.911 74.6759 110.5 74.8576 109.09 74.6759C108.467 74.6032 105.902 74.4578 105.902 72.7499Z" fill="#D19E54"/>
<path d="M110.207 75.2028C109.822 75.2028 109.437 75.1846 109.053 75.1301C108.998 75.1301 108.943 75.1119 108.888 75.1119C108.045 75.0211 105.462 74.7304 105.462 72.7499V20.8228C105.462 20.6774 105.462 20.5139 105.444 20.3504C105.426 19.5328 105.389 18.6243 105.774 18.0974C106.067 17.7159 106.451 17.5705 106.653 17.4978C108.283 16.8983 110.115 16.7711 112.277 17.0981L112.387 17.1163C113.028 17.2071 114.951 17.4797 114.951 18.915V71.8778C114.951 73.3859 114.493 74.2035 113.431 74.6032C112.387 75.0029 111.288 75.2028 110.207 75.2028ZM110.079 17.8431C108.943 17.8431 107.917 18.0066 106.964 18.3518C106.745 18.4426 106.598 18.4971 106.488 18.6425C106.287 18.915 106.323 19.7508 106.323 20.3141C106.323 20.4957 106.342 20.6593 106.342 20.8228V72.7499C106.342 73.7856 107.734 74.0763 108.961 74.2035C109.034 74.2035 109.089 74.2216 109.144 74.2216C110.463 74.4033 111.801 74.2398 113.083 73.7492C113.687 73.513 114.017 73.1497 114.017 71.8778V18.9332C114.017 18.2791 112.68 18.0974 112.24 18.0248L112.13 18.0066C111.416 17.8976 110.738 17.8431 110.079 17.8431Z" fill="#FEFEFE"/>
<path d="M49.0585 90.7915C49.0585 87.5029 49.0585 84.2143 49.0585 80.9076C49.0585 73.3129 49.0585 65.7182 49.0585 58.1417C49.0585 49.6749 49.0585 41.2082 49.0585 32.7596C49.0585 26.8546 49.0585 20.9497 49.0585 15.0266C49.0585 13.9364 48.8203 12.174 49.4798 11.4473C49.8279 11.0839 50.2858 10.9203 50.7072 10.7932C53.9313 9.84838 57.2653 9.84838 60.5627 10.2481C61.387 10.3571 64.7211 10.6115 64.7211 12.2467C64.7211 15.2991 64.7211 18.3515 64.7211 21.4039C64.7211 28.5443 64.7211 35.6848 64.7211 42.8252C64.7211 51.0195 64.7211 59.2137 64.7211 67.4079C64.7211 73.6399 64.7211 79.8538 64.7211 86.0857C64.7211 87.2304 64.7211 88.3751 64.7211 89.5197C64.7211 91.482 64.0799 92.3904 62.4862 92.881C59.9948 93.6441 57.4119 93.8803 54.8839 93.6077C53.7298 93.4987 49.0585 93.2807 49.0585 90.7915Z" fill="#F5F5F5"/>
<path d="M52.8873 83.5786C52.8873 80.8896 52.8873 78.2188 52.8873 75.5298C52.8873 69.3523 52.8873 63.1566 52.8873 56.9792C52.8873 50.0931 52.8873 43.1888 52.8873 36.3028C52.8873 31.488 52.8873 26.6732 52.8873 21.8584C52.8873 20.9681 52.7591 19.5327 53.1072 18.9513C53.2904 18.6424 53.5102 18.5153 53.73 18.4244C55.3787 17.6613 57.0823 17.6613 58.7677 17.9884C59.189 18.0792 60.8927 18.2791 60.8927 19.6236C60.8927 22.1127 60.8927 24.6019 60.8927 27.091C60.8927 32.9051 60.8927 38.7192 60.8927 44.5333C60.8927 51.2014 60.8927 57.8876 60.8927 64.5556C60.8927 69.6248 60.8927 74.694 60.8927 79.7631C60.8927 80.6898 60.8927 81.6164 60.8927 82.5612C60.8927 84.16 60.5629 84.905 59.7569 85.2865C58.4929 85.9043 57.1739 86.1041 55.8733 85.8861C55.2688 85.7771 52.8873 85.5954 52.8873 83.5786Z" fill="#97B38F"/>
<path d="M56.8993 90.0647C56.3864 90.0647 55.8734 90.0283 55.3422 89.9738C55.2689 89.9738 55.1956 89.9557 55.104 89.9557C53.8767 89.8285 50.5976 89.4651 50.5976 86.9941V18.6784C50.5976 18.4967 50.5976 18.2787 50.5793 18.0425C50.5427 17.0069 50.506 15.8077 51.0006 15.1718C51.3304 14.7357 51.7517 14.5722 52.1364 14.4269C54.3163 13.6456 56.7894 13.4821 59.6837 13.9181L59.8303 13.9363C60.6546 14.0453 63.1826 14.3905 63.1826 16.1711V85.8313C63.1826 87.7754 62.6148 88.7747 61.2225 89.2834C59.812 89.7921 58.3648 90.0647 56.8993 90.0647ZM56.7344 14.5904C55.159 14.5904 53.7485 14.8266 52.4478 15.2808C52.173 15.3717 51.9166 15.4807 51.7334 15.7169C51.4403 16.0984 51.4586 17.2067 51.4952 18.0062C51.4952 18.2424 51.5136 18.4604 51.5136 18.6603V86.9759C51.5136 88.4658 53.6202 88.8655 55.214 89.029C55.3056 89.0472 55.3971 89.0472 55.4704 89.0654C57.3023 89.3016 59.1342 89.0835 60.9111 88.4294C61.7721 88.1206 62.2667 87.5937 62.2667 85.8313V16.1529C62.2667 15.1718 60.3432 14.8993 59.7021 14.8266L59.5555 14.8084C58.5663 14.6631 57.632 14.5904 56.7344 14.5904Z" fill="#97B38F"/>
<path d="M84.4144 86.213C84.4144 83.4695 84.4144 80.7259 84.4144 77.9824C84.4144 71.6596 84.4144 65.3368 84.4144 59.0139C84.4144 51.9643 84.4144 44.9147 84.4144 37.8651C84.4144 32.9413 84.4144 28.0175 84.4144 23.0937C84.4144 22.1852 84.1213 20.7136 84.9456 20.114C85.367 19.8051 85.9165 19.6779 86.4478 19.5689C90.3863 18.7876 94.4714 18.7876 98.4832 19.1147C99.4908 19.2055 103.558 19.4235 103.558 20.7862C103.558 23.3299 103.558 25.8736 103.558 28.4172C103.558 34.3585 103.558 40.2998 103.558 46.2592C103.558 53.0908 103.558 59.9042 103.558 66.7358C103.558 71.914 103.558 77.1103 103.558 82.2885C103.558 83.2333 103.558 84.1962 103.558 85.141C103.558 86.7762 102.77 87.5393 100.828 87.939C97.7871 88.575 94.6363 88.7748 91.5404 88.5568C90.1115 88.4478 84.4144 88.2843 84.4144 86.213Z" fill="#E84F2D"/>
<path d="M85.0917 28.599C85.0917 28.3991 85.0917 28.1993 85.0917 28.0176C85.0917 27.5634 85.0917 27.1091 85.0917 26.6549C85.0917 26.1462 85.0917 25.6556 85.0917 25.1469C85.0917 24.8017 85.0917 24.4383 85.0917 24.0931C85.0917 24.0204 84.8169 23.9295 85.5863 23.875C85.9893 23.8569 86.4839 23.8387 86.9968 23.8387C90.6606 23.7842 94.4526 23.7842 98.1896 23.8024C99.1239 23.8024 102.916 23.8205 102.916 23.9296C102.916 24.1112 102.916 24.2929 102.916 24.4746C102.916 24.8925 102.916 25.3286 102.916 25.7465C102.916 26.237 102.916 26.7276 102.916 27.2181C102.916 27.5815 102.916 27.9631 102.916 28.3265C102.916 28.3991 102.916 28.4536 102.916 28.5263C102.916 28.6353 102.183 28.6898 100.388 28.7262C97.5668 28.7625 94.6358 28.7807 91.7414 28.7625C90.3858 28.7625 85.0917 28.7443 85.0917 28.599Z" fill="#FEFEFE"/>
<path d="M85.0917 35.2123C85.0917 35.0124 85.0917 34.8126 85.0917 34.6309C85.0917 34.1766 85.0917 33.7224 85.0917 33.2682C85.0917 32.7595 85.0917 32.2689 85.0917 31.7602C85.0917 31.415 85.0917 31.0516 85.0917 30.7064C85.0917 30.6337 84.8169 30.5428 85.5863 30.4883C85.9893 30.4702 86.4839 30.452 86.9968 30.452C90.6606 30.3975 94.4526 30.3975 98.1896 30.4157C99.1239 30.4157 102.916 30.4338 102.916 30.5428C102.916 30.7245 102.916 30.9062 102.916 31.0879C102.916 31.5058 102.916 31.9419 102.916 32.3597C102.916 32.8503 102.916 33.3409 102.916 33.8314C102.916 34.1948 102.916 34.5764 102.916 34.9398C102.916 35.0124 102.916 35.0669 102.916 35.1396C102.916 35.2486 102.183 35.3031 100.388 35.3395C97.5668 35.3758 94.6358 35.394 91.7414 35.3758C90.3858 35.3758 85.0917 35.3576 85.0917 35.2123Z" fill="#FEFEFE"/>
<path d="M85.0917 83.869C85.0917 83.6692 85.0917 83.4693 85.0917 83.2876C85.0917 82.8334 85.0917 82.3792 85.0917 81.9249C85.0917 81.4162 85.0917 80.9256 85.0917 80.4169C85.0917 80.0717 85.0917 79.7083 85.0917 79.3631C85.0917 79.2904 84.8169 79.1996 85.5863 79.1451C85.9893 79.1269 86.4839 79.1087 86.9968 79.1087C90.6606 79.0542 94.4526 79.0542 98.1896 79.0724C99.1239 79.0724 102.916 79.0906 102.916 79.1996C102.916 79.3813 102.916 79.5629 102.916 79.7446C102.916 80.1625 102.916 80.5986 102.916 81.0165C102.916 81.507 102.916 81.9976 102.916 82.4882C102.916 82.8515 102.916 83.2331 102.916 83.5965C102.916 83.6692 102.916 83.7237 102.916 83.7963C102.916 83.9054 102.183 83.9599 100.388 83.9962C97.5668 84.0325 94.6358 84.0507 91.7414 84.0325C90.3858 84.0325 85.0917 84.0144 85.0917 83.869Z" fill="#FEFEFE"/>
<path d="M15.004 98.4042C15.004 94.8612 15.004 91.3364 15.004 87.7934C15.004 79.6355 15.004 71.4958 15.004 63.3379C15.004 54.2534 15.004 45.1688 15.004 36.0661C15.004 29.7251 15.004 23.3841 15.004 17.025C15.004 15.8622 14.7841 13.9544 15.407 13.1913C15.7367 12.7916 16.1397 12.6281 16.5427 12.4827C19.5104 11.4652 22.5696 11.4652 25.5922 11.9013C26.3616 12.0103 29.4208 12.2828 29.4208 14.0452C29.4208 17.3338 29.4208 20.6043 29.4208 23.8929C29.4208 31.5602 29.4208 39.2276 29.4208 46.8949C29.4208 55.6887 29.4208 64.5007 29.4208 73.2945C29.4208 79.9807 29.4208 86.667 29.4208 93.3532C29.4208 94.5887 29.4208 95.806 29.4208 97.0415C29.4208 99.1491 28.8346 100.13 27.3691 100.639C25.0793 101.457 22.7162 101.711 20.3897 101.42C19.2905 101.311 15.004 101.075 15.004 98.4042Z" fill="#D03838"/>
<path d="M0.0376388 109.251C0.0376388 104.8 0.0376388 100.348 0.0376388 95.897C0.0376388 85.6315 0.0376388 75.366 0.0376388 65.1005C0.0376388 53.654 0.0376388 42.2075 0.0376388 30.761C0.0376388 22.7666 0.0376388 14.7904 0.0376388 6.796C0.0376388 5.32431 -0.182185 2.926 0.440655 1.96304C0.770393 1.4543 1.1734 1.25444 1.57641 1.07275C4.54406 -0.199085 7.6033 -0.199085 10.6259 0.345986C11.3953 0.491339 14.4545 0.836555 14.4545 3.05318C14.4545 4.94276 14.4545 6.81417 14.4545 8.70375C14.4545 10.9567 14.4545 13.1915 14.4545 15.4445C14.4545 25.0922 14.4545 34.7582 14.4545 44.4059C14.4545 55.4891 14.4545 66.5722 14.4545 77.6553C14.4545 86.0676 14.4545 94.498 14.4545 102.91C14.4545 104.455 14.4545 105.999 14.4545 107.543C14.4545 110.196 13.8683 111.432 12.4028 112.086C10.113 113.103 7.74985 113.43 5.42336 113.085C4.32423 112.903 0.0376388 112.613 0.0376388 109.251Z" fill="#97B38F"/>
<path d="M22.2037 98.3861C21.8373 98.3861 21.4709 98.3498 21.1046 98.2771C21.0679 98.2771 21.013 98.2589 20.958 98.2408C20.1886 98.0954 17.8255 97.6775 17.8255 95.043V20.241C17.8255 20.023 17.8255 19.7868 17.8072 19.5506C17.7889 18.4423 17.7522 17.1886 18.082 16.5163C18.3018 16.0621 18.5949 15.8441 18.888 15.6806C20.4084 14.8085 22.1304 14.6086 24.1455 15.0992L24.2371 15.1173C25.7942 15.4625 26.5819 16.262 26.5819 17.5156V93.8075C26.5819 95.5517 26.362 96.8417 25.2446 97.514C24.2371 98.0772 23.2295 98.3861 22.2037 98.3861ZM22.0754 15.7351C21.0679 15.7351 20.1886 15.9713 19.3459 16.4618C19.1628 16.5708 19.0345 16.6617 18.9063 16.9161C18.6865 17.3885 18.7048 18.624 18.7231 19.5324C18.7231 19.7868 18.7414 20.023 18.7414 20.241V95.043C18.7414 96.6964 19.9321 97.1324 21.1229 97.3505C21.1961 97.3686 21.2511 97.3686 21.3061 97.3868C22.4601 97.623 23.6326 97.405 24.7683 96.7146C25.2996 96.3875 25.6659 95.7698 25.6659 93.7893V17.4975C25.6659 16.48 24.8416 16.1711 24.0356 15.9894C23.9989 15.9894 23.9623 15.9713 23.9256 15.9713C23.2662 15.8077 22.6433 15.7351 22.0754 15.7351Z" fill="#FEFEFE"/>
<path d="M0.916796 8.75823C0.751927 8.75823 0.605375 8.68555 0.513781 8.5402C0.385549 8.32217 0.458829 8.04963 0.678654 7.92244C7.2551 4.05243 13.7583 7.88611 13.8132 7.92244C14.0331 8.04963 14.1063 8.34034 13.9598 8.5402C13.8316 8.75822 13.5384 8.8309 13.3369 8.68555C13.282 8.64921 7.23678 5.08807 1.13662 8.68555C1.08167 8.74005 1.00839 8.75823 0.916796 8.75823Z" fill="#FEFEFE"/>
<path d="M0.916796 11.7924C0.751927 11.7924 0.605375 11.7197 0.513781 11.5744C0.385549 11.3563 0.458829 11.0838 0.678654 10.9566C7.2551 7.08661 13.7583 10.9203 13.8132 10.9566C14.0331 11.0838 14.1063 11.3745 13.9598 11.5744C13.8316 11.7924 13.5384 11.8651 13.3369 11.7197C13.282 11.6834 7.23678 8.12225 1.13662 11.7197C1.08167 11.7742 1.00839 11.7924 0.916796 11.7924Z" fill="#FEFEFE"/>
<path d="M7.03502 107.143C5.09323 107.143 2.89497 106.707 0.696712 105.417C0.476887 105.29 0.403618 105.018 0.53185 104.8C0.660081 104.582 0.934857 104.509 1.15468 104.636C7.23652 108.233 13.2817 104.672 13.355 104.636C13.5748 104.509 13.8496 104.582 13.9778 104.781C14.1061 104.999 14.0328 105.272 13.8313 105.399C13.7763 105.435 10.9003 107.143 7.03502 107.143Z" fill="#FEFEFE"/>
<path d="M7.03502 104.11C5.09323 104.11 2.89497 103.674 0.696712 102.384C0.476887 102.256 0.403618 101.984 0.53185 101.766C0.660081 101.548 0.934857 101.475 1.15468 101.602C7.23652 105.2 13.2817 101.639 13.355 101.602C13.5748 101.475 13.8496 101.548 13.9778 101.748C14.1061 101.966 14.0328 102.238 13.8313 102.365C13.7763 102.402 10.9003 104.11 7.03502 104.11Z" fill="#FEFEFE"/>
</svg>
