<svg width="229" height="270" viewBox="0 0 229 270" fill="none" xmlns="http://www.w3.org/2000/svg">
<path d="M37.0911 34.9439C37.0911 34.9439 32.7342 31.2657 32.3586 31.4909C32.0581 31.7161 32.5088 33.8179 32.5088 33.8179C32.5088 33.8179 29.5792 31.566 28.3021 32.8421C27.0251 34.1182 30.8562 42.3755 34.5371 43.3513L37.0911 34.9439Z" fill="#FFBD9B"/>
<path d="M185.978 30.6656C185.978 30.6656 190.335 26.9874 190.711 27.2126C191.086 27.4378 190.56 29.5396 190.56 29.5396C190.56 29.5396 193.49 27.2876 194.767 28.5637C196.044 29.8399 192.213 38.0971 188.532 39.073L185.978 30.6656Z" fill="#FFBD9B"/>
<path d="M191.537 37.8722L185.978 29.7651C176.288 35.32 162.541 35.6202 145.864 31.0412C133.62 27.6632 125.056 24.0601 111.385 24.0601C97.7128 24.0601 84.2664 33.7436 77.4305 35.6202C60.754 40.1993 47.0071 39.899 37.3167 34.3441L31.7578 42.4512C31.7578 42.4512 54.519 61.6681 88.2477 56.4886C87.4214 67.8235 85.5434 85.0887 86.1444 87.716C87.4965 93.9465 134.446 94.2468 136.7 87.1155C137.376 85.0136 134.221 63.0944 133.77 51.6843C168.175 57.5395 191.537 37.8722 191.537 37.8722Z" fill="#D03838"/>
<path d="M123.779 13.4008L123.854 20.4571H122.803C122.803 20.4571 121.976 26.3122 117.845 25.3363C116.643 25.0361 115.141 24.0602 114.69 24.2854C114.164 24.5106 113.939 26.087 113.863 26.6125C113.413 28.4141 107.253 26.6125 108.23 24.8109C109.206 23.0844 110.633 20.7573 110.333 20.0817C109.281 17.8298 108.981 12.1998 114.69 10.2481C119.197 8.74676 123.704 10.9987 123.779 13.4008Z" fill="#FFBD9B"/>
<path d="M108.23 24.735C109.206 23.0085 110.633 20.6815 110.333 20.0059C110.333 20.0059 112.737 23.6841 114.915 24.2096C114.84 24.2096 114.765 24.2096 114.765 24.2096C114.239 24.4348 114.014 26.0111 113.939 26.5366C113.413 28.3382 107.253 26.5366 108.23 24.735Z" fill="#FFBD9B"/>
<path d="M114.239 16.854C111.61 16.4036 113.262 22.3338 110.333 22.1086C107.403 21.8834 105.375 15.5028 107.478 10.6235C109.657 5.66917 113.713 5.96943 117.619 6.64503C121.526 7.32062 126.258 9.04713 126.258 12.0498C126.258 19.106 117.845 13.1758 117.319 15.3527C116.868 17.0041 116.267 21.7333 117.92 21.8834C119.648 21.9585 121.375 20.6073 122.727 20.9826C123.479 21.2078 125.657 30.4409 120.023 30.8163C114.464 31.1165 113.112 26.2372 114.239 22.2588C115.441 18.2803 115.516 17.0792 114.239 16.854Z" fill="#17201F"/>
<path d="M58.1999 120.895C48.885 120.895 38.2181 115.791 29.6544 107.308C21.0908 98.7506 15.9827 88.0912 15.9827 78.708C15.9827 72.9279 20.6401 69.2497 25.1473 65.6465C29.5793 62.1184 33.8611 58.7404 34.0865 53.4858C34.2367 50.4832 32.9597 48.4564 31.6827 46.2795C30.2554 43.9524 28.753 41.5503 29.0535 37.797C29.5793 31.2663 35.4386 25.261 46.4061 19.9313C46.9319 19.631 47.608 19.9313 47.9085 20.4568C48.209 20.9822 47.9085 21.6578 47.3826 21.9581C37.0161 26.9875 31.6075 32.3923 31.1568 38.0973C30.9315 41.0999 32.1334 42.9766 33.4855 45.1535C34.8377 47.4055 36.4152 49.8826 36.2649 53.6359C35.9645 59.8664 31.1568 63.6948 26.4994 67.4481C22.2176 70.826 18.2363 74.0539 18.2363 78.708C18.2363 87.4907 23.119 97.6246 31.3071 105.732C39.42 113.839 49.5611 118.643 58.275 118.643C58.8759 118.643 59.4018 119.169 59.4018 119.769C59.3267 120.445 58.8759 120.895 58.1999 120.895Z" fill="#D03838"/>
<path d="M52.8957 27.8317C57.1834 26.8561 59.8679 22.5919 58.8916 18.3072C57.9153 14.0225 53.648 11.34 49.3603 12.3156C45.0726 13.2912 42.3881 17.5554 43.3644 21.8401C44.3407 26.1248 48.608 28.8073 52.8957 27.8317Z" fill="#D03838"/>
<path d="M61.7044 28.0037C63.4033 27.6171 63.7801 22.9129 62.5459 17.4964C61.3117 12.08 58.934 8.0024 57.2351 8.38895C55.5362 8.7755 55.1594 13.4798 56.3936 18.8962C57.6278 24.3127 60.0055 28.3903 61.7044 28.0037Z" fill="#D03838"/>
<path d="M50.5373 20.9817L50.1617 19.4804C49.0349 14.526 52.19 9.4966 57.1479 8.37061L61.5799 27.9628C56.6971 29.1639 51.6641 26.0111 50.5373 20.9817Z" fill="#D03838"/>
<path d="M61.2543 26.0267C62.5892 25.7229 62.8724 21.9705 61.8869 17.6455C60.9014 13.3204 59.0204 10.0604 57.6855 10.3641C56.3507 10.6678 56.0675 14.4202 57.0529 18.7453C58.0384 23.0704 59.9194 26.3304 61.2543 26.0267Z" fill="#D03838"/>
<path d="M59.0252 15.9938C59.2679 15.9386 59.3302 15.304 59.1644 14.5764C58.9986 13.8488 58.6675 13.3038 58.4248 13.359C58.1821 13.4142 58.1197 14.0488 58.2855 14.7764C58.4513 15.504 58.7825 16.049 59.0252 15.9938Z" fill="#2B2827"/>
<path d="M60.6717 22.9606C60.9144 22.9053 60.9767 22.2707 60.8108 21.5431C60.6449 20.8155 60.3137 20.2705 60.071 20.3257C59.8283 20.381 59.766 21.0156 59.9319 21.7432C60.0978 22.4708 60.429 23.0158 60.6717 22.9606Z" fill="#2B2827"/>
<path d="M160.437 117.442C159.836 117.442 159.311 116.991 159.311 116.391C159.311 115.79 159.761 115.265 160.362 115.19C215.425 112.037 224.74 79.4583 226.317 69.4745C228.496 55.5873 223.538 42.1505 215.049 38.8476C212.42 37.8717 210.167 39.0728 207.537 40.5741C205.058 41.9253 202.504 43.3515 199.5 42.8261C193.415 41.7001 188.757 33.8181 185.377 18.6548C185.227 18.0543 185.602 17.4537 186.203 17.3036C186.804 17.1535 187.405 17.5288 187.556 18.1293C190.711 32.1667 194.842 39.6733 199.875 40.5741C202.054 40.9494 204.157 39.8234 206.411 38.5473C209.115 37.046 212.195 35.3195 215.8 36.6706C225.416 40.3489 230.824 54.5363 228.421 69.6997C226.918 80.2089 217.228 114.214 160.437 117.442Z" fill="#D03838"/>
<path d="M192.363 15.8027C190.635 20.0815 185.753 22.1083 181.546 20.3818C177.94 18.8804 175.912 15.1271 176.438 11.3738C176.513 10.7733 190.335 6.41948 191.236 7.54547C192.964 9.79745 193.49 12.9502 192.363 15.8027Z" fill="#D03838"/>
<path d="M185.978 0.0382587C186.579 -0.111873 187.105 0.188391 187.255 0.788919L189.434 8.82099C189.584 9.42152 189.284 9.94698 188.683 10.0971C188.082 10.2472 187.556 9.94698 187.406 9.34645L185.227 1.31439C185.077 0.713862 185.453 0.188391 185.978 0.0382587Z" fill="#2B2827"/>
<path d="M177.414 2.2907C178.015 2.14057 178.541 2.44083 178.692 3.04136L180.87 11.0734C181.02 11.674 180.72 12.1994 180.119 12.3496C179.518 12.4997 178.992 12.1994 178.842 11.5989L176.663 3.56683C176.513 3.04137 176.814 2.44083 177.414 2.2907Z" fill="#2B2827"/>
<path d="M188.832 13.2497L181.395 15.2014C177.94 16.1022 174.409 14.0003 173.508 10.5473C173.283 9.6465 173.808 8.82078 174.635 8.59559L191.386 4.24176C192.288 4.01656 193.114 4.54202 193.339 5.36775C194.391 8.82078 192.288 12.3489 188.832 13.2497Z" fill="#D03838"/>
<path d="M168.57 269.921H56.2817V103.627C56.2817 93.234 64.6951 84.8267 75.0958 84.8267H149.756C160.157 84.8267 168.57 93.234 168.57 103.627V269.921Z" fill="white"/>
<path d="M168.57 266.015C167.444 266.015 166.583 265.155 166.583 264.029V103.628C166.583 94.3596 159.031 86.8128 149.756 86.8128H75.0959C65.8214 86.8128 58.2692 94.3596 58.2692 103.628V257.012C58.2692 258.137 57.408 258.998 56.2818 258.998C55.1556 258.998 54.2944 258.137 54.2944 257.012V103.628C54.2944 92.175 63.6352 82.8408 75.0959 82.8408H149.756C161.217 82.8408 170.558 92.175 170.558 103.628V264.029C170.558 265.088 169.696 266.015 168.57 266.015Z" fill="#646464"/>
<path d="M72.1151 103.826C74.164 103.826 75.8249 102.166 75.8249 100.119C75.8249 98.0714 74.164 96.4116 72.1151 96.4116C70.0662 96.4116 68.4053 98.0714 68.4053 100.119C68.4053 102.166 70.0662 103.826 72.1151 103.826Z" fill="#5A5A5A"/>
<path d="M80.0037 163.67H219.321C220.05 163.67 220.646 163.34 221.043 162.876C221.375 162.479 221.573 161.949 221.573 161.42V136.065C221.573 135.536 221.375 135.006 221.043 134.609C220.646 134.079 219.983 133.814 219.321 133.814H80.0037C79.4737 133.814 79.01 134.013 78.6125 134.278C78.0825 134.675 77.6851 135.337 77.6851 136.131V161.486C77.6851 162.082 77.8838 162.611 78.2813 163.008C78.745 163.406 79.3412 163.67 80.0037 163.67Z" fill="#F8F8F8"/>
<path d="M198.188 157.845H214.087C214.419 157.845 214.75 157.713 215.015 157.448C215.28 157.183 215.412 156.852 215.412 156.521V140.633C215.412 140.368 215.346 140.103 215.214 139.905C214.949 139.574 214.551 139.309 214.087 139.309H198.188C197.857 139.309 197.592 139.441 197.327 139.64C197.062 139.905 196.863 140.236 196.863 140.633V156.521C196.863 156.852 196.996 157.183 197.261 157.448C197.46 157.713 197.791 157.845 198.188 157.845Z" fill="#D4D4D4"/>
<path d="M96.1679 143.546H185.071C185.667 143.546 186.197 143.281 186.529 142.95C186.926 142.553 187.125 142.023 187.125 141.493C187.125 140.964 186.926 140.434 186.529 140.037C186.131 139.64 185.601 139.375 185.005 139.375H96.1679C95.5717 139.375 95.0417 139.64 94.7105 139.971C94.313 140.368 94.1143 140.898 94.1143 141.427C94.1143 141.824 94.2468 142.222 94.4455 142.553C94.7767 143.148 95.4392 143.546 96.1679 143.546Z" fill="#D4D4D4"/>
<path d="M96.168 151.358H185.071C185.734 151.358 186.33 151.027 186.727 150.563C186.992 150.232 187.191 149.769 187.191 149.305C187.191 148.908 187.059 148.511 186.86 148.18C186.462 147.584 185.866 147.187 185.071 147.187H96.168C95.5718 147.187 95.108 147.386 94.7106 147.783C94.3131 148.18 94.0481 148.71 94.0481 149.305C94.0481 149.901 94.3131 150.431 94.6443 150.762C95.0418 151.093 95.5718 151.358 96.168 151.358Z" fill="#D4D4D4"/>
<path d="M141.58 206.436H2.26314C1.53442 206.436 0.938198 206.105 0.540717 205.641C0.209482 205.244 0.0107422 204.714 0.0107422 204.185V178.83C0.0107422 178.301 0.209482 177.771 0.540717 177.374C0.938198 176.844 1.60067 176.58 2.26314 176.58H141.58C142.11 176.58 142.574 176.778 142.971 177.043C143.501 177.44 143.899 178.102 143.899 178.897V204.119C143.899 204.714 143.7 205.244 143.303 205.641C142.839 206.171 142.243 206.436 141.58 206.436Z" fill="#F8F8F8"/>
<path d="M23.462 200.61H7.56273C7.2315 200.61 6.90026 200.478 6.63527 200.213C6.37029 199.948 6.23779 199.617 6.23779 199.286V183.398C6.23779 183.133 6.30404 182.869 6.43653 182.67C6.70152 182.339 7.099 182.074 7.56273 182.074H23.462C23.7932 182.074 24.0582 182.207 24.3232 182.405C24.5882 182.67 24.7869 183.001 24.7869 183.398V199.286C24.7869 199.617 24.6544 199.948 24.3894 200.213C24.1244 200.478 23.7932 200.61 23.462 200.61Z" fill="#D4D4D4"/>
<path d="M125.482 186.311H36.5126C35.9164 186.311 35.3864 186.046 35.0552 185.715C34.6577 185.318 34.459 184.788 34.459 184.259C34.459 183.729 34.6577 183.199 35.0552 182.802C35.4527 182.405 35.9827 182.14 36.5789 182.14H125.482C126.078 182.14 126.608 182.405 126.94 182.736C127.337 183.133 127.536 183.663 127.536 184.192C127.536 184.59 127.403 184.987 127.205 185.318C126.873 185.914 126.211 186.311 125.482 186.311Z" fill="#D4D4D4"/>
<path d="M97.0624 194.122H36.5127C35.8503 194.122 35.254 193.791 34.8565 193.328C34.5916 192.997 34.3928 192.533 34.3928 192.07C34.3928 191.673 34.5253 191.276 34.7241 190.945C35.1215 190.349 35.7178 189.952 36.5127 189.952H96.9961C97.5923 189.952 98.0561 190.15 98.4536 190.547C98.851 190.945 99.116 191.474 99.116 192.07C99.116 192.666 98.851 193.195 98.5198 193.526C98.1223 193.857 97.5924 194.122 97.0624 194.122Z" fill="#D4D4D4"/>
</svg>
