<!-- Generated by IcoMoon.io -->
<svg version="1.1" xmlns="http://www.w3.org/2000/svg" width="1056" height="1024" viewBox="0 0 1056 1024">
<title></title>
<g id="icomoon-ignore">
</g>
<path fill="#4285f4" d="M1040.002 523.615c0-36.304-3.322-71.213-9.498-104.726h-492.051v198.048h281.171c-12.112 64-48.918 118.224-104.253 154.528v128.464h168.848c98.79-89.133 155.782-220.39 155.782-376.314z"></path>
<path fill="#34a853" d="M538.425 1023.999c141.062 0 259.325-45.846 345.766-124.038l-168.845-128.464c-46.784 30.72-106.627 48.87-176.922 48.87-136.074 0-251.25-90.064-292.333-211.078h-174.546v132.653c85.967 167.328 262.648 282.058 466.879 282.058z"></path>
<path fill="#fbbc05" d="M246.114 609.253c-10.449-30.72-16.386-63.533-16.386-97.277s5.937-66.56 16.386-97.28v-132.651h-174.546c-35.384 69.118-55.57 147.313-55.57 229.931s20.186 160.813 55.57 229.93l174.546-132.653z"></path>
<path fill="#ea4335" d="M538.425 203.632c76.707 0 145.574 25.832 199.718 76.566l149.85-146.848c-90.48-82.617-208.742-133.35-349.568-133.35-204.23 0-380.912 114.732-466.879 282.060l174.546 132.653c41.084-121.017 156.26-211.081 292.333-211.081z"></path>
</svg>
