<svg width="329" height="364" viewBox="0 0 329 364" fill="none" xmlns="http://www.w3.org/2000/svg">
<rect width="329" height="364" fill="white"/>
<path d="M143.027 230.808L154.832 219.515L196.118 264.115L184.561 274.136L143.027 230.808Z" fill="#DE8238"/>
<path d="M154.832 219.515L189.316 188.75L243.853 247.821L209.39 279.01L154.832 219.515Z" fill="#F2A05D"/>
<path d="M166.244 272.102C163.887 275.81 164.962 280.535 167.505 284.031C170.069 287.527 173.893 290.006 177.78 292.231C181.646 294.455 185.678 296.553 188.923 299.498C194.175 304.308 196.883 311.003 198.723 317.656C200.521 324.139 201.658 330.813 204.325 337L237.465 325.347C234.282 316.3 232.711 306.786 230.581 297.485C228.224 287.23 229.733 279.73 222.642 271.636C219.355 267.886 213.277 260.025 210.59 255.873C204.635 246.698 203.788 236.528 199.777 226.464C198.867 224.155 197.007 221.633 194.361 221.888C191.363 222.206 190.246 225.723 189.998 228.519C189.192 237.376 189.502 246.275 190.929 255.025C191.446 258.203 191.859 262.038 189.171 264.136C186.153 266.488 181.212 266.869 178.111 264.666C171.061 259.644 164.28 253.288 158.491 246.826C155.659 250.703 155.99 256.763 157.251 260.449C158.864 265.11 161.82 269.242 166.306 271.827C166.244 272.018 166.244 272.06 166.244 272.102Z" fill="#FFB88B"/>
<path d="M175.361 284.667C175.341 284.667 175.32 284.667 175.299 284.667C171.33 283.861 167.774 281.594 165.583 278.416C165.479 278.289 165.52 278.098 165.645 277.993C165.769 277.887 165.955 277.929 166.058 278.056C168.167 281.107 171.578 283.289 175.403 284.052C175.568 284.095 175.671 284.243 175.63 284.412C175.63 284.561 175.506 284.667 175.361 284.667Z" fill="#2F3836"/>
<path d="M177.987 277.166C177.966 277.166 177.925 277.166 177.904 277.145C173.707 275.874 169.738 274.094 166.058 271.827C165.913 271.742 165.872 271.551 165.955 271.424C166.037 271.276 166.223 271.234 166.348 271.318C169.965 273.543 173.914 275.323 178.049 276.573C178.194 276.615 178.297 276.785 178.256 276.954C178.235 277.081 178.111 277.166 177.987 277.166Z" fill="#2F3836"/>
<path d="M197.607 236.698C196.966 236.698 196.325 236.592 195.705 236.38C194.113 235.808 192.707 234.537 191.756 232.799C190.908 231.253 190.495 229.558 190.102 227.926C190.061 227.757 190.164 227.608 190.309 227.566C190.474 227.524 190.619 227.63 190.66 227.778C191.053 229.367 191.466 231.041 192.273 232.503C193.162 234.113 194.443 235.278 195.891 235.808C197.586 236.422 199.55 236.062 200.646 234.939C200.77 234.812 200.935 234.812 201.059 234.939C201.183 235.066 201.183 235.236 201.059 235.363C200.232 236.232 198.95 236.698 197.607 236.698Z" fill="#2F3836"/>
<path d="M172.054 229.77C171.95 229.77 171.868 229.727 171.806 229.642C171.723 229.515 171.744 229.325 171.888 229.219C178.649 224.557 185.12 219.43 191.136 213.964C191.26 213.858 191.446 213.858 191.549 213.985C191.653 214.112 191.653 214.303 191.529 214.409C185.492 219.896 179 225.045 172.219 229.706C172.157 229.748 172.095 229.77 172.054 229.77Z" fill="#2F3836"/>
<path d="M177.532 230.426C177.45 230.426 177.346 230.384 177.284 230.299C177.181 230.172 177.222 229.981 177.346 229.875C181.564 226.803 185.554 223.371 189.192 219.705C189.316 219.599 189.502 219.599 189.606 219.705C189.709 219.833 189.709 220.023 189.606 220.129C185.947 223.816 181.936 227.269 177.677 230.363C177.656 230.405 177.594 230.426 177.532 230.426Z" fill="#2F3836"/>
<path d="M213.773 253.606C213.67 253.606 213.566 253.542 213.504 253.436C213.442 253.288 213.504 253.118 213.649 253.034C215.303 252.25 216.812 251.148 218.032 249.855C218.135 249.728 218.321 249.728 218.445 249.855C218.57 249.961 218.57 250.152 218.445 250.279C217.164 251.614 215.592 252.758 213.897 253.584C213.856 253.606 213.815 253.606 213.773 253.606Z" fill="#2F3836"/>
<path d="M149.643 230.087C149.561 230.087 149.478 230.045 149.416 229.981C149.312 229.854 149.333 229.664 149.457 229.558C151.607 227.841 153.675 225.956 155.577 224.006C155.68 223.879 155.866 223.879 155.99 224.006C156.114 224.112 156.114 224.303 155.99 224.43C154.067 226.422 151.979 228.308 149.809 230.045C149.767 230.066 149.705 230.087 149.643 230.087Z" fill="#2F3836"/>
<path d="M152.31 231.719C152.228 231.719 152.145 231.676 152.083 231.613C151.979 231.486 152 231.295 152.124 231.189L157.21 226.824C157.334 226.719 157.52 226.74 157.623 226.867C157.727 226.994 157.706 227.185 157.582 227.291L152.496 231.655C152.434 231.698 152.372 231.719 152.31 231.719Z" fill="#2F3836"/>
<path d="M158.078 238.287C157.996 238.287 157.933 238.266 157.871 238.202C157.768 238.075 157.768 237.884 157.871 237.778C159.36 236.295 160.973 234.897 162.626 233.583C162.75 233.477 162.937 233.499 163.04 233.647C163.143 233.774 163.123 233.965 162.978 234.071C161.324 235.363 159.753 236.761 158.264 238.223C158.223 238.266 158.14 238.287 158.078 238.287Z" fill="#2F3836"/>
<path d="M161.014 239.452C160.931 239.452 160.849 239.41 160.787 239.346C160.683 239.219 160.683 239.029 160.807 238.923L163.578 236.38C163.702 236.274 163.888 236.274 163.991 236.401C164.094 236.528 164.094 236.719 163.97 236.825L161.2 239.368C161.159 239.41 161.097 239.452 161.014 239.452Z" fill="#2F3836"/>
<path d="M169.139 250.067C169.056 250.067 168.952 250.025 168.911 249.94C168.808 249.813 168.849 249.622 168.973 249.516C170.875 248.076 172.943 246.804 175.134 245.766C175.279 245.703 175.444 245.766 175.527 245.914C175.589 246.063 175.527 246.232 175.382 246.317C173.232 247.355 171.185 248.584 169.325 250.025C169.263 250.046 169.201 250.067 169.139 250.067Z" fill="#2F3836"/>
<path d="M171.805 251.508C171.702 251.508 171.619 251.466 171.557 251.381C171.474 251.233 171.516 251.063 171.64 250.957L176.25 247.864C176.395 247.779 176.56 247.821 176.664 247.948C176.746 248.097 176.705 248.266 176.581 248.372L171.971 251.466C171.909 251.508 171.847 251.508 171.805 251.508Z" fill="#2F3836"/>
<path d="M173.914 253.606C173.811 253.606 173.708 253.563 173.666 253.457C173.583 253.309 173.625 253.139 173.77 253.055L178.979 249.919C179.124 249.834 179.289 249.877 179.372 250.025C179.455 250.173 179.413 250.343 179.269 250.427L174.059 253.563C174.018 253.584 173.956 253.606 173.914 253.606Z" fill="#2F3836"/>
<path d="M176.189 254.919C176.106 254.919 176.002 254.877 175.94 254.792C175.837 254.665 175.878 254.474 176.002 254.368C176.85 253.754 177.718 253.182 178.628 252.673C178.773 252.589 178.938 252.652 179.021 252.779C179.104 252.928 179.041 253.097 178.917 253.182C178.028 253.69 177.16 254.262 176.333 254.856C176.292 254.898 176.23 254.919 176.189 254.919Z" fill="#2F3836"/>
<path d="M180.427 171.546C180.303 171.588 180.158 171.546 180.075 171.44L174.907 164.067C174.803 163.918 174.845 163.728 174.969 163.622C175.113 163.516 175.3 163.558 175.403 163.685L180.571 171.059C180.675 171.207 180.633 171.398 180.509 171.504C180.489 171.525 180.468 171.546 180.427 171.546Z" fill="#2F3836"/>
<path d="M99.964 233.689C99.8606 233.732 99.7366 233.71 99.6539 233.626L63.6607 198.539C63.5367 198.412 63.5367 198.221 63.6401 198.094C63.7641 197.967 63.9502 197.967 64.0742 198.073L100.067 233.16C100.191 233.287 100.191 233.477 100.088 233.604C100.047 233.647 100.005 233.668 99.964 233.689Z" fill="#2F3836"/>
<path d="M100.191 237.821C100.088 237.863 99.964 237.842 99.8606 237.757L66.4724 203.264C66.3484 203.137 66.3484 202.946 66.4724 202.819C66.5965 202.692 66.7825 202.692 66.9066 202.819L100.295 237.291C100.419 237.418 100.419 237.609 100.295 237.736C100.274 237.778 100.233 237.8 100.191 237.821Z" fill="#2F3836"/>
<path d="M175.755 164.257L102.9 231.253L102.197 231.888C102.197 231.888 96.7392 226.591 89.3379 219.621C75.8172 206.887 55.8463 188.581 50.7812 186.865L128.66 119.297C128.66 119.297 150.367 135.654 164.384 149.574C168.002 153.155 171.082 156.566 173.17 159.511C174.452 161.291 175.362 162.901 175.755 164.257Z" fill="#D03838"/>
<path d="M51.1743 188.115L99.7785 245.597L100.957 242.207L51.1743 188.115Z" fill="#D03838"/>
<path d="M100.957 242.207L179.29 169.173L180.716 171.355L99.7783 245.597L100.957 242.207Z" fill="#D03838"/>
<path d="M101.515 234.685C101.391 234.727 101.267 234.706 101.184 234.6C101.081 234.473 101.081 234.282 101.205 234.155L164.487 175.932C164.611 175.826 164.797 175.826 164.921 175.953C165.025 176.08 165.025 176.271 164.901 176.398L101.618 234.621C101.577 234.664 101.556 234.685 101.515 234.685Z" fill="#2F3836"/>
<path d="M101.721 237.228C101.597 237.27 101.473 237.249 101.391 237.143C101.287 237.016 101.287 236.804 101.411 236.698L131.884 209.26C132.008 209.154 132.215 209.154 132.319 209.281C132.422 209.408 132.422 209.62 132.298 209.726L101.804 237.185C101.783 237.206 101.742 237.228 101.721 237.228Z" fill="#2F3836"/>
<path d="M135.068 206.908C134.944 206.95 134.82 206.929 134.738 206.823C134.614 206.696 134.634 206.506 134.758 206.378L175.01 168.919C175.134 168.792 175.32 168.813 175.444 168.94C175.568 169.067 175.548 169.258 175.424 169.385L135.151 206.845C135.13 206.866 135.089 206.887 135.068 206.908Z" fill="#2F3836"/>
<path d="M107.82 234.431C107.696 234.473 107.572 234.452 107.49 234.346C107.386 234.219 107.386 234.028 107.51 233.901L149.209 195.424C149.333 195.318 149.52 195.318 149.644 195.446C149.747 195.573 149.747 195.763 149.623 195.891L107.924 234.367C107.882 234.41 107.862 234.431 107.82 234.431Z" fill="#2F3836"/>
<path d="M35.2343 152.583C39.4518 157.414 46.4188 160.952 52.4349 162.965C58.451 164.978 65.046 166.291 69.6355 170.465C68.7052 171.44 67.2167 172.584 66.4725 173.474C71.5789 179.131 76.3959 185.593 80.3653 192.119C81.461 193.899 82.5153 196.251 81.3783 198.009C80.4066 199.514 78.2152 199.726 76.6026 199.005C74.9901 198.285 73.791 196.865 72.5506 195.552C67.7129 190.424 61.6761 186.504 55.0192 184.449C60.0015 189.322 64.4464 194.789 68.5398 200.637C68.4778 202.819 66.8859 204.789 64.9012 205.594C62.9166 206.4 60.6424 206.188 58.6577 205.383C56.6731 204.577 54.9571 203.221 53.4273 201.696C53.5306 204.408 51.1532 206.802 48.5483 207.162C45.9227 207.523 43.2764 206.167 41.5398 204.111C39.8032 202.056 38.8936 199.429 38.8109 196.59C30.6861 193.708 23.3469 188.327 17 182.055C17.0413 172.902 17.8063 166.948 22.3545 160.656C25.1455 156.778 26.6547 155.549 28.598 154.723C30.562 153.897 33.4564 152.308 35.2343 152.583Z" fill="#F49A63"/>
<path d="M54.9158 184.598C54.8951 184.598 54.8744 184.619 54.8538 184.619C44.0413 185.911 32.7534 181.61 25.3729 173.389C25.2488 173.262 25.2695 173.072 25.3936 172.944C25.5176 172.817 25.7037 172.838 25.8277 172.966C33.0636 181.038 44.1447 185.254 54.7711 184.004C54.9365 183.983 55.1018 184.11 55.1018 184.28C55.1432 184.428 55.0605 184.555 54.9158 184.598Z" fill="#2F3836"/>
<path d="M66.8036 173.495C66.6795 173.538 66.5348 173.495 66.4521 173.389C63.6405 169.724 60.0432 167.626 56.57 165.91C56.4253 165.825 56.3633 165.656 56.4253 165.486C56.508 165.338 56.6734 165.274 56.8388 165.338C60.374 167.097 64.054 169.215 66.9483 173.008C67.0517 173.135 67.031 173.347 66.8863 173.453C66.8449 173.474 66.8242 173.495 66.8036 173.495Z" fill="#2F3836"/>
<path d="M76.4577 198.857C76.313 198.92 76.1476 198.857 76.0649 198.709C75.5688 197.649 73.9355 194.068 73.9149 191.992C73.8942 190.128 74.8865 187.966 76.8092 187.437C76.9746 187.394 77.14 187.5 77.1813 187.649C77.2227 187.818 77.1193 187.988 76.9746 188.03C75.362 188.475 74.5144 190.382 74.5351 191.971C74.5558 193.518 75.6308 196.314 76.6231 198.433C76.7058 198.581 76.6438 198.772 76.4784 198.857C76.4784 198.857 76.4784 198.857 76.4577 198.857Z" fill="#2F3836"/>
<path d="M53.6338 201.632C53.4891 201.696 53.3237 201.611 53.241 201.463C52.2073 199.196 51.0496 196.526 50.4087 193.687C49.2303 188.538 50.4707 186.632 51.7318 185.954C53.7785 184.852 56.9623 186.314 58.3475 187.86C58.4715 187.988 58.4508 188.178 58.3268 188.305C58.2027 188.433 58.0167 188.411 57.8926 188.284C56.6729 186.928 53.7785 185.551 52.0213 186.504C50.4914 187.331 50.14 189.767 51.0083 193.539C51.6491 196.314 52.7862 198.963 53.7992 201.187C53.8612 201.336 53.7992 201.526 53.6545 201.611C53.6338 201.611 53.6338 201.611 53.6338 201.632Z" fill="#2F3836"/>
<path d="M51.1949 195.361C51.0502 195.403 50.9055 195.361 50.8228 195.213C50.3887 194.429 49.9752 193.645 49.5824 192.882C48.7348 191.25 47.9492 189.725 46.9155 188.242C46.8948 188.199 44.4759 184.746 41.5196 186.06C40.3825 186.568 39.1008 189.513 38.956 191.039C38.8113 192.437 38.956 194.874 39.1628 196.441C39.1835 196.611 39.0594 196.78 38.894 196.802C38.7286 196.823 38.5632 196.696 38.5426 196.526C38.3358 194.916 38.1911 192.416 38.3358 190.975C38.5012 189.471 39.7623 186.165 41.2715 185.487C44.0004 184.259 46.4813 186.526 47.4116 187.882C48.466 189.407 49.2929 191.017 50.1199 192.585C50.5127 193.348 50.9262 194.132 51.3603 194.916C51.443 195.064 51.4017 195.255 51.2363 195.34C51.2156 195.361 51.2156 195.361 51.1949 195.361Z" fill="#2F3836"/>
<path d="M46.357 200.255C46.0675 200.361 45.7368 200.446 45.3853 200.488C42.9045 200.806 40.9818 199.726 39.9688 197.416C39.9068 197.268 39.9688 197.077 40.1135 196.992C40.2789 196.929 40.4443 196.992 40.527 197.141C41.664 199.747 43.7521 200.043 45.3026 199.831C47.9075 199.492 48.7138 196.802 48.6104 194.577C48.6104 194.407 48.7345 194.259 48.8999 194.259C49.0653 194.259 49.21 194.386 49.2306 194.556C49.3133 196.802 48.5898 199.408 46.357 200.255Z" fill="#2F3836"/>
<path d="M57.6241 198.369C54.8745 199.429 52.0008 197.204 50.8224 195.234C50.7397 195.085 50.7811 194.895 50.9258 194.81C51.0705 194.725 51.2566 194.768 51.3393 194.916C52.4763 196.823 55.3293 198.984 57.8722 197.564C60.8699 195.912 59.9809 192.437 59.8776 192.056C59.8362 191.886 59.9189 191.717 60.0843 191.674C60.2497 191.632 60.4151 191.717 60.4564 191.886C60.5805 192.331 61.5728 196.23 58.1616 198.115C57.9962 198.221 57.8102 198.306 57.6241 198.369Z" fill="#2F3836"/>
<path d="M173.191 159.511C168.973 169.088 158.016 178.665 149.623 183.814C140.195 189.577 129.652 193.369 120.679 199.81C112.41 205.764 103.582 220.256 102.9 231.253L102.197 231.888C102.197 231.888 96.7391 226.591 89.3379 219.621C93.4727 208.201 105.918 195.509 115.573 189.598C124.731 183.983 135.565 181.97 145.178 177.203C153.447 173.072 162.606 160.084 164.384 149.596C168.022 153.155 171.103 156.566 173.191 159.511Z" fill="#F39090"/>
<path d="M151.111 178.411C151.008 178.453 150.863 178.432 150.78 178.326C150.656 178.199 150.677 178.008 150.801 177.881L157.768 171.207C157.892 171.08 158.078 171.101 158.202 171.228C158.326 171.355 158.305 171.546 158.181 171.673L151.214 178.347C151.173 178.368 151.132 178.39 151.111 178.411Z" fill="#2F3836"/>
<path d="M226.405 206.908C226.323 206.908 226.24 206.866 226.178 206.802C226.075 206.675 226.095 206.484 226.219 206.378C237.528 196.611 256.775 180.212 267.133 171.419C270.585 168.474 272.963 166.461 273.376 166.101C273.914 163.855 274.162 161.101 274.1 158.134C274.1 157.965 274.224 157.838 274.389 157.838C274.555 157.838 274.679 157.965 274.679 158.134C274.741 161.164 274.493 163.982 273.935 166.291C273.955 166.419 273.873 166.482 273.376 166.906C273.087 167.16 272.653 167.52 272.115 167.986C271.02 168.919 269.448 170.275 267.505 171.906C257.168 180.72 237.921 197.119 226.612 206.866C226.55 206.887 226.467 206.908 226.405 206.908Z" fill="#2F3836"/>
<path d="M274.637 157.922L208.833 79.1045L160.249 122.56L226.757 199.98L274.617 158.155C274.699 158.092 274.699 157.986 274.637 157.922Z" fill="#97B38F"/>
<path d="M226.695 201.526C226.612 201.526 226.529 201.484 226.467 201.421C226.364 201.293 226.385 201.103 226.488 200.997C234.282 194.068 242.386 187.077 250.222 180.318C258.057 173.559 266.161 166.567 273.955 159.639C274.079 159.533 274.265 159.554 274.369 159.66C274.472 159.787 274.451 159.978 274.348 160.084C266.554 167.012 258.45 174.004 250.614 180.763C242.779 187.521 234.675 194.513 226.881 201.421C226.84 201.505 226.777 201.526 226.695 201.526Z" fill="#2F3836"/>
<path d="M226.508 203.327C226.426 203.327 226.343 203.285 226.302 203.221C226.198 203.094 226.198 202.904 226.322 202.798C237.817 192.119 249.415 182.415 261.695 172.16C265.706 168.813 269.841 165.359 273.955 161.884C274.079 161.779 274.265 161.8 274.368 161.927C274.472 162.054 274.451 162.245 274.327 162.351C270.213 165.825 266.078 169.279 262.067 172.627C249.787 182.881 238.189 192.564 226.715 203.243C226.653 203.306 226.57 203.327 226.508 203.327Z" fill="#2F3836"/>
<path d="M226.385 205.34C226.364 205.34 226.364 205.34 226.385 205.34C226.281 205.34 226.219 205.298 226.157 205.234L159.381 126.988C159.277 126.861 159.277 126.671 159.401 126.565C159.526 126.459 159.712 126.48 159.815 126.586L226.405 204.62C241.415 190.806 258.222 176.377 273.79 164.003C273.914 163.897 274.1 163.918 274.203 164.046C274.307 164.173 274.286 164.363 274.162 164.469C258.532 176.906 241.621 191.378 226.591 205.255C226.509 205.319 226.447 205.34 226.385 205.34Z" fill="#2F3836"/>
<path d="M226.55 201.59C226.467 201.59 226.384 201.548 226.343 201.484C224.007 198.772 221.65 196.081 219.293 193.369C199.694 170.783 179.434 147.413 160.187 124.192C160.083 124.065 160.104 123.874 160.228 123.768C160.352 123.662 160.538 123.683 160.642 123.81C179.868 147.032 200.129 170.402 219.727 192.988C222.084 195.7 224.42 198.412 226.777 201.103C226.881 201.23 226.881 201.421 226.756 201.526C226.674 201.569 226.612 201.59 226.55 201.59Z" fill="#2F3836"/>
<path d="M226.509 203.327C226.426 203.327 226.344 203.285 226.282 203.221C215.448 190.255 204.078 177.161 193.079 164.512C182.081 151.842 170.71 138.748 159.877 125.781C159.774 125.654 159.795 125.463 159.919 125.357C160.043 125.251 160.229 125.272 160.332 125.399C171.165 138.366 182.536 151.46 193.534 164.109C204.533 176.779 215.903 189.852 226.736 202.84C226.84 202.967 226.819 203.158 226.695 203.264C226.633 203.306 226.571 203.327 226.509 203.327Z" fill="#2F3836"/>
<path d="M226.405 206.908C226.322 206.908 226.24 206.866 226.198 206.802C202.692 180.296 180.096 153.854 159.029 128.239C158.926 128.111 158.946 127.921 159.07 127.815C159.194 127.709 159.381 127.73 159.484 127.857C180.53 153.473 203.126 179.915 226.632 206.4C226.736 206.527 226.736 206.717 226.612 206.823C226.55 206.887 226.488 206.908 226.405 206.908Z" fill="#2F3836"/>
<path d="M269.076 160.211C268.993 160.211 268.91 160.168 268.848 160.105L204.863 85.715C204.759 85.5879 204.759 85.3972 204.883 85.2913C205.007 85.1853 205.193 85.1853 205.297 85.3125L269.282 159.702C269.386 159.829 269.386 160.02 269.262 160.126C269.2 160.189 269.138 160.211 269.076 160.211Z" fill="#2F3836"/>
<path d="M209.204 170.995C209.122 170.995 209.039 170.953 208.977 170.868C208.874 170.741 208.915 170.55 209.039 170.444C220.927 161.228 232.359 151.164 243.027 140.485C243.151 140.379 243.316 140.379 243.44 140.485C243.544 140.612 243.544 140.782 243.44 140.909C232.752 151.587 221.299 161.694 209.391 170.91C209.328 170.974 209.266 170.995 209.204 170.995Z" fill="#2F3836"/>
<path d="M206.31 166.588C206.228 166.588 206.145 166.546 206.083 166.482C205.979 166.355 206 166.164 206.124 166.058L235.378 140.379C235.502 140.273 235.688 140.294 235.791 140.421C235.894 140.549 235.874 140.739 235.75 140.845L206.496 166.525C206.434 166.567 206.372 166.588 206.31 166.588Z" fill="#2F3836"/>
<path d="M205.979 158.622C205.897 158.622 205.814 158.579 205.752 158.516C205.649 158.388 205.669 158.198 205.773 158.092L222.994 142.922C223.118 142.816 223.304 142.837 223.407 142.943C223.511 143.07 223.49 143.261 223.387 143.366L206.166 158.537C206.124 158.6 206.062 158.622 205.979 158.622Z" fill="#2F3836"/>
<path d="M245.962 30.4789C246.541 29.695 247.161 28.8687 247.637 28H217.929C217.867 28.1271 217.805 28.2754 217.743 28.4026C214.476 36.1572 211.437 43.9755 208.605 51.8996C206.971 56.4338 205.421 61.0527 204.863 65.8411C204.305 70.6506 204.842 75.6933 207.199 79.8884C208.667 82.4945 210.817 84.7616 211.623 87.6431C212.926 92.2832 210.465 97.0292 209.494 101.733C208.522 106.373 209.039 111.331 210.92 115.674C211.416 116.818 212.367 118.09 213.546 117.793C214.455 117.56 214.869 116.522 215.158 115.611C217.081 109.509 219.004 103.407 221.485 97.4742C221.526 97.4742 221.547 97.4953 221.547 97.5377C225.826 101.733 229.795 104.551 233.434 108.428C237.403 100.991 240.091 94.3596 239.078 85.9481C238.416 80.4181 235.584 75.3967 234.24 69.9938C232.524 63.0867 233.331 55.671 235.646 48.9545C237.941 42.2381 241.724 36.136 245.962 30.4789Z" fill="#E78C6C"/>
<path d="M211.975 86.9651C211.851 86.9651 211.727 86.8803 211.706 86.7532C209.411 78.5112 210.589 68.0869 214.538 61.4129C214.621 61.2645 214.807 61.2222 214.931 61.3069C215.076 61.3917 215.117 61.5824 215.034 61.7095C211.21 68.1505 210.052 78.6172 212.264 86.5837C212.305 86.732 212.223 86.9015 212.057 86.9439C212.037 86.9651 212.016 86.9651 211.975 86.9651Z" fill="#2F3836"/>
<path d="M222.271 96.6267C222.229 96.6267 222.188 96.6267 222.167 96.6055C222.022 96.5419 221.94 96.3724 222.002 96.2241C222.911 93.9358 223.862 91.584 224.751 89.2322L224.772 89.0839C224.793 88.9144 224.958 88.8084 225.103 88.8508C225.268 88.872 225.372 89.0415 225.33 89.1898L225.289 89.3805C225.289 89.4017 225.289 89.4229 225.268 89.4441C224.359 91.8171 223.428 94.1901 222.498 96.4783C222.498 96.5631 222.395 96.6267 222.271 96.6267Z" fill="#2F3836"/>
<path d="M226.384 100.101C226.343 100.101 226.302 100.101 226.26 100.059C226.116 99.9743 226.054 99.8048 226.136 99.6565C227.77 96.3512 226.446 91.9866 224.813 89.2534C224.73 89.105 224.772 88.9355 224.917 88.8508C225.061 88.766 225.227 88.8084 225.309 88.9567C227.025 91.8171 228.39 96.4148 226.653 99.9319C226.591 100.038 226.488 100.101 226.384 100.101Z" fill="#2F3836"/>
<path d="M211.313 114C211.148 114 211.024 113.852 211.024 113.683C211.086 112.539 211.148 111.225 211.541 110.017C211.996 108.661 212.843 107.602 213.877 107.115C215.138 106.5 216.689 106.818 217.453 107.835C217.557 107.962 217.536 108.153 217.412 108.259C217.288 108.365 217.102 108.343 216.999 108.216C216.399 107.432 215.138 107.178 214.125 107.665C213.236 108.089 212.492 109.021 212.099 110.229C211.727 111.352 211.665 112.623 211.603 113.725C211.603 113.873 211.458 114 211.313 114Z" fill="#2F3836"/>
<path d="M270.936 168.707C270.771 168.707 270.647 168.58 270.647 168.41L270.523 161.694C270.523 161.524 270.647 161.397 270.812 161.397C270.978 161.397 271.102 161.524 271.102 161.694L271.226 168.41C271.226 168.559 271.102 168.686 270.936 168.707Z" fill="#2F3836"/>
</svg>
