<svg width="245" height="245" viewBox="0 0 245 245" fill="none" xmlns="http://www.w3.org/2000/svg">
<path d="M52.2839 12.8362L67.1453 3.57202L127.628 75.9845L190.706 9.93488L195.505 20.3195L138.209 87.7298C138.209 87.7298 125.535 75.5443 113.156 87.7298L52.2839 12.8362Z" fill="#FEFEFE"/>
<path d="M125.349 101.356C115.287 101.356 108.857 96.0334 108.283 87.3895L47.5587 14.2367C46.4469 12.9161 46.5581 10.8552 47.7996 9.67463C49.0226 8.47409 50.9313 8.59415 52.0246 9.93475L113.453 83.968C113.953 84.5683 114.213 85.3286 114.213 86.129C114.213 93.7724 121.18 94.9129 125.331 94.9129C129.482 94.9129 136.449 93.7724 136.449 86.129C136.449 85.2886 136.764 84.4682 137.301 83.8679L200.527 14.4768C201.694 13.1962 203.585 13.1962 204.752 14.4368C205.938 15.6973 205.938 17.7383 204.789 18.9988L142.379 87.5096C141.804 96.0734 135.374 101.356 125.349 101.356Z" fill="#F39090"/>
<path d="M75.1133 0.0300135C77.5779 2.95133 80.0239 5.91266 82.4514 8.894C84.8788 11.8753 87.2693 14.8567 89.6597 17.878C92.0501 20.8794 94.4035 23.9207 96.7383 26.9821C97.9057 28.5028 99.0731 30.0435 100.241 31.5642C101.389 33.1049 102.557 34.6456 103.687 36.1862C104.836 37.7269 105.966 39.2876 107.097 40.8483C108.209 42.409 109.339 43.9897 110.451 45.5705C111.563 47.1512 112.656 48.7519 113.749 50.3326L115.361 52.7337L115.769 53.3339L116.158 53.9342L116.955 55.1548C119.067 58.3962 121.124 61.6977 123.07 65.0792C123.552 65.9196 124.015 66.78 124.497 67.6404L124.682 67.9605L124.849 68.2807L125.182 68.9409L125.868 70.2415C126.109 70.6617 126.313 71.1219 126.517 71.5621L127.165 72.8827L127.332 73.2229L127.48 73.563L127.777 74.2433L128.37 75.6039L126.961 75.4839C127.943 73.8432 128.963 72.2424 129.982 70.6417C131.001 69.041 132.039 67.4603 133.076 65.8796C135.17 62.7182 137.283 59.5968 139.469 56.5154C143.843 50.3526 148.438 44.3699 153.312 38.6674C154.535 37.2467 155.758 35.8261 157.018 34.4255C158.278 33.0448 159.538 31.6642 160.835 30.3036C162.132 28.943 163.429 27.6224 164.763 26.3018C166.097 25.0012 167.45 23.7207 168.821 22.4601C170.193 21.2195 171.601 19.979 173.028 18.7984C174.455 17.6179 175.919 16.4774 177.401 15.3569C178.883 14.2564 180.403 13.1959 181.941 12.2155L182.515 11.8353L183.108 11.4752C183.498 11.235 183.887 10.9949 184.294 10.7748C184.683 10.5547 185.091 10.3146 185.48 10.0945L186.685 9.45425C186.74 9.43424 186.796 9.45425 186.814 9.49427C186.833 9.55429 186.814 9.61432 186.777 9.63433L185.628 10.3747C185.239 10.6148 184.869 10.8949 184.498 11.135C184.109 11.3951 183.738 11.6552 183.368 11.9153L182.812 12.3155L182.256 12.7157C181.515 13.256 180.792 13.8162 180.069 14.3765L178.995 15.2368C178.643 15.517 178.29 15.8171 177.938 16.1172C175.103 18.4583 172.398 20.9594 169.767 23.5606C164.504 28.7629 159.556 34.3254 154.812 40.068C152.441 42.9493 150.106 45.8706 147.827 48.8319C145.529 51.7932 143.287 54.7746 141.063 57.7959C138.839 60.8173 136.671 63.8787 134.54 66.9801C133.484 68.5208 132.428 70.0815 131.39 71.6622C130.352 73.2229 129.333 74.8236 128.333 76.4043L127.517 77.7049L126.906 76.2842L126.35 74.9637L126.072 74.3034L125.924 73.9632L125.775 73.6431L125.164 72.3425C124.96 71.9023 124.756 71.4621 124.534 71.0419L123.885 69.7613L123.552 69.121L123.385 68.8009L123.218 68.4807C122.755 67.6404 122.292 66.78 121.828 65.9396C119.938 62.5581 117.937 59.2766 115.88 56.0151L115.102 54.7946L114.713 54.1743L114.324 53.5741L112.749 51.153C111.674 49.5522 110.618 47.9315 109.524 46.3508C108.449 44.7501 107.338 43.1694 106.244 41.5887C105.133 40.008 104.039 38.4273 102.909 36.8666C101.797 35.3058 100.667 33.7452 99.5364 32.1844C98.406 30.6237 97.2757 29.0831 96.1268 27.5424C93.8475 24.441 91.5312 21.3796 89.1964 18.3182C86.8616 15.2568 84.5082 12.2355 82.1549 9.21414C79.783 6.19278 77.4111 3.17142 75.0021 0.190086C74.9651 0.150068 74.9651 0.0700314 75.0207 0.0300135C75.0207 -0.0100045 75.0763 -0.0100045 75.1133 0.0300135Z" fill="#FEFEFE"/>
<path d="M81.4693 3.67167C84.7307 5.27239 87.8438 7.19325 90.8827 9.23416C93.9217 11.2951 96.8495 13.5361 99.6661 15.9372C102.483 18.3382 105.17 20.9194 107.708 23.6606C108.968 25.0413 110.21 26.4619 111.396 27.9226C112.582 29.3832 113.731 30.8839 114.824 32.4446C115.917 33.9853 116.974 35.566 117.974 37.2067C118.975 38.8275 119.938 40.4882 120.809 42.189C120.92 42.4091 121.032 42.6091 121.143 42.8292L121.458 43.4695L121.773 44.1098L121.94 44.43L122.088 44.7501L122.681 46.0707C122.866 46.5109 123.051 46.9511 123.237 47.4113C123.329 47.6314 123.422 47.8515 123.515 48.0916L123.774 48.7719L124.034 49.4522L124.163 49.7924L124.274 50.1325L124.738 51.5131C124.886 51.9734 125.034 52.4336 125.182 52.8938L125.386 53.5941L125.572 54.2944C125.701 54.7546 125.831 55.2348 125.942 55.695C126.165 56.6354 126.405 57.5959 126.591 58.5363C126.795 59.4967 126.961 60.4572 127.11 61.4176C127.147 61.6577 127.184 61.8978 127.221 62.1379L127.313 62.8582L127.406 63.5786C127.443 63.8187 127.462 64.0588 127.48 64.2989L127.628 65.7595C127.666 66.2398 127.703 66.74 127.74 67.2202L127.795 67.9405C127.814 68.1806 127.814 68.4207 127.832 68.6609L127.888 70.1215C127.906 72.0624 127.869 74.0032 127.721 75.9441C127.721 76.0041 127.666 76.0442 127.61 76.0442C127.554 76.0442 127.517 76.0041 127.517 75.9441C127.369 74.0233 127.202 72.1024 126.98 70.2015L126.795 68.7809C126.758 68.5408 126.739 68.3007 126.702 68.0806L126.591 67.3803L126.368 65.9596L126.109 64.559C126.072 64.3189 126.035 64.0988 125.979 63.8587L125.831 63.1584C125.738 62.6982 125.646 62.218 125.535 61.7578C125.312 60.8373 125.108 59.9169 124.867 58.9965C124.738 58.5363 124.645 58.0761 124.497 57.6359L124.108 56.2753C123.978 55.8151 123.83 55.3749 123.7 54.9347L123.496 54.2544L123.274 53.5941C123.126 53.1539 122.977 52.6937 122.829 52.2535L122.347 50.9329C122.181 50.4927 122.014 50.0525 121.847 49.6123L121.588 48.952C121.495 48.7319 121.402 48.5118 121.328 48.3117L120.791 47.0111L120.235 45.7305L120.087 45.4104L119.938 45.0903L119.642 44.45L119.345 43.8097C119.253 43.5896 119.142 43.3895 119.049 43.1694C118.252 41.4686 117.381 39.8279 116.455 38.2072C115.991 37.3868 115.51 36.5864 115.028 35.8061L114.287 34.6256C114.157 34.4255 114.027 34.2254 113.897 34.0453L113.508 33.465C112.471 31.9244 111.377 30.4237 110.247 28.943C109.117 27.4824 107.931 26.0417 106.726 24.6611C104.299 21.8798 101.704 19.2387 98.999 16.7776C96.2936 14.2964 93.4585 11.9554 90.5121 9.79442C89.0482 8.71393 87.5473 7.67346 86.0278 6.67302C85.268 6.17279 84.4898 5.69257 83.73 5.21236C82.9517 4.75215 82.1735 4.27194 81.3767 3.85175C81.3211 3.83174 81.3025 3.7517 81.3396 3.71169C81.3581 3.67167 81.4322 3.65166 81.4693 3.67167Z" fill="#FEFEFE"/>
<path d="M57.0091 10.5149L57.1573 10.615L57.3055 10.735C57.3982 10.8151 57.4909 10.8951 57.5835 10.9751C57.7688 11.1352 57.9356 11.3153 58.1209 11.4754C58.473 11.8155 58.825 12.1557 59.1586 12.5158C59.8442 13.2161 60.5298 13.9165 61.2155 14.6368C62.5682 16.0574 63.9209 17.4981 65.2551 18.9587C67.9235 21.86 70.5733 24.7613 73.2046 27.7027C78.4672 33.5853 83.6743 39.528 88.8072 45.5106C91.3829 48.512 93.9401 51.5133 96.4788 54.5547C97.7388 56.0754 98.9989 57.5961 100.259 59.1368C100.889 59.9171 101.501 60.6775 102.112 61.4578L103.947 63.7988C105.151 65.3796 106.374 66.9403 107.56 68.541C108.746 70.1417 109.913 71.7424 111.062 73.3832C112.211 75.0239 113.323 76.6846 114.379 78.3854C114.916 79.2458 115.417 80.1062 115.899 80.9866C116.38 81.867 116.844 82.7674 117.196 83.7278C117.214 83.7478 117.196 83.7878 117.177 83.8078C117.159 83.8278 117.122 83.8078 117.122 83.7878C117.01 83.5677 116.899 83.3276 116.788 83.1075L116.436 82.4472L116.065 81.8069C115.936 81.5868 115.806 81.3868 115.676 81.1667C115.139 80.3263 114.601 79.4859 114.027 78.6855C112.897 77.0448 111.729 75.4641 110.525 73.8834C109.32 72.3027 108.116 70.742 106.893 69.1813C105.67 67.6206 104.447 66.0799 103.205 64.5392L101.352 62.2181L99.4992 59.9171C98.2577 58.3764 97.0162 56.8357 95.7746 55.295C94.5331 53.7543 93.2915 52.2137 92.0315 50.693C90.7714 49.1723 89.5113 47.6516 88.2513 46.1309C83.1925 40.0682 78.0596 34.0655 72.8711 28.1028C70.2768 25.1215 67.6826 22.1602 65.0513 19.2188C63.7356 17.7582 62.4199 16.2775 61.0857 14.8369C60.4187 14.1165 59.7516 13.3962 59.0659 12.6759C58.7324 12.3157 58.3803 11.9756 58.0468 11.6154C57.88 11.4353 57.6947 11.2753 57.5279 11.0952C57.4353 11.0152 57.3426 10.9351 57.25 10.8551L57.1202 10.735L56.972 10.635C56.9535 10.615 56.9349 10.595 56.9535 10.5549C56.9535 10.5149 56.972 10.4949 57.0091 10.5149Z" fill="#BCBCBC"/>
<path d="M62.5128 6.97326L66.3115 11.5353L70.1103 16.1174C72.6304 19.1787 75.1505 22.2201 77.6706 25.3015C82.6924 31.4442 87.677 37.607 92.6432 43.7898L96.3678 48.4319L100.074 53.094C101.297 54.6547 102.52 56.2154 103.743 57.7961C104.966 59.3768 106.152 60.9575 107.356 62.5382L109.135 64.9393C109.728 65.7396 110.321 66.54 110.896 67.3404C111.489 68.1407 112.063 68.9611 112.637 69.7615C112.934 70.1616 113.212 70.5618 113.508 70.982L114.361 72.2025L115.213 73.4431L116.047 74.6837C116.603 75.504 117.159 76.3444 117.696 77.1848C117.974 77.605 118.234 78.0252 118.493 78.4654L118.882 79.1056C119.012 79.3257 119.142 79.5258 119.271 79.7459L120.013 81.0665C120.253 81.5067 120.476 81.9669 120.698 82.4271C120.717 82.4471 120.698 82.4872 120.68 82.5072C120.661 82.5272 120.624 82.5072 120.606 82.4872C120.346 82.067 120.105 81.6268 119.846 81.2066L119.03 79.946C118.901 79.7259 118.753 79.5258 118.604 79.3257L118.178 78.7055C117.9 78.3053 117.622 77.8851 117.326 77.4849C116.751 76.6846 116.177 75.8642 115.584 75.0638L114.694 73.8633L113.805 72.6628L112.007 70.2817C111.414 69.4813 110.803 68.701 110.21 67.9206L108.394 65.5596L106.578 63.1985L102.946 58.4764L99.3141 53.7543C96.9052 50.5928 94.4777 47.4514 92.0317 44.33C87.1397 38.0672 82.2291 31.8444 77.2815 25.6416C72.3524 19.4188 67.3863 13.2361 62.4201 7.05329C62.4016 7.03328 62.4016 6.99327 62.4201 6.97326C62.4572 6.95325 62.4943 6.95325 62.5128 6.97326Z" fill="#BCBCBC"/>
<path d="M64.6994 5.67257C65.4591 6.31285 66.2004 6.97315 66.923 7.67346C67.6457 8.35377 68.3499 9.07409 69.054 9.79442C70.4438 11.2351 71.7965 12.6957 73.1492 14.1964C75.8362 17.1777 78.4489 20.2191 81.0247 23.3005C86.1761 29.4632 91.2164 35.7461 96.1825 42.0889C97.424 43.6696 98.6656 45.2703 99.8886 46.8511C101.13 48.4518 102.353 50.0325 103.576 51.6332C104.799 53.2339 106.004 54.8546 107.208 56.4754L109.006 58.9165L110.784 61.3776C111.952 63.0183 113.138 64.679 114.287 66.3398C115.436 68.0005 116.584 69.6613 117.715 71.3621C118.845 73.0428 119.938 74.7436 121.013 76.4844C121.551 77.3447 122.069 78.2251 122.57 79.1255C122.811 79.5657 123.052 80.0259 123.292 80.4861C123.404 80.7263 123.515 80.9464 123.607 81.1865C123.7 81.4266 123.793 81.6667 123.83 81.9468C123.83 81.9668 123.811 82.0068 123.793 82.0068C123.774 82.0068 123.737 81.9868 123.737 81.9668C123.7 81.7267 123.589 81.4866 123.478 81.2665C123.367 81.0464 123.237 80.8263 123.126 80.6062C122.885 80.166 122.607 79.7258 122.347 79.3056C121.81 78.4452 121.236 77.6049 120.68 76.7845C120.105 75.9441 119.531 75.1237 118.956 74.3034C118.382 73.483 117.789 72.6626 117.196 71.8423C116.01 70.2015 114.843 68.5808 113.638 66.9401C112.452 65.3193 111.248 63.6986 110.043 62.0779L102.853 52.3535C101.649 50.7328 100.463 49.1121 99.24 47.4913C98.0356 45.8706 96.8125 44.2699 95.5895 42.6692C90.6975 36.2663 85.7499 29.9235 80.6726 23.6806C78.1339 20.5592 75.5767 17.4779 72.9454 14.4565C71.6298 12.9558 70.2956 11.4552 68.9243 9.99451C68.2387 9.27418 67.5531 8.55386 66.8489 7.85354C66.1448 7.15323 65.4221 6.47292 64.6623 5.83263C64.6438 5.81263 64.6438 5.77261 64.6623 5.7526C64.6438 5.65255 64.6809 5.65256 64.6994 5.67257Z" fill="#BCBCBC"/>
<path d="M193.207 17.0778C193.004 17.1378 192.8 17.2579 192.614 17.3779C192.429 17.498 192.244 17.6381 192.059 17.7781C191.688 18.0582 191.336 18.3584 190.984 18.6585C190.28 19.2588 189.613 19.8991 188.945 20.5194C187.611 21.7999 186.296 23.1005 184.98 24.4211C182.367 27.0623 179.81 29.7635 177.271 32.5047C172.194 37.9472 167.191 43.4697 162.225 49.0522L158.519 53.2541C157.296 54.6547 156.073 56.0753 154.85 57.476L147.511 65.9197C146.288 67.3204 145.065 68.741 143.842 70.1416C142.619 71.5423 141.415 72.9829 140.211 74.4035C139.599 75.1239 139.006 75.8242 138.413 76.5445C137.82 77.2648 137.227 77.9852 136.634 78.7055C136.041 79.4258 135.467 80.1661 134.911 80.9265C134.633 81.3067 134.355 81.6868 134.095 82.067C133.966 82.2671 133.836 82.4672 133.725 82.6673C133.614 82.8674 133.503 83.0874 133.465 83.3075C133.465 83.3276 133.428 83.3476 133.41 83.3476C133.391 83.3476 133.373 83.3076 133.373 83.2875C133.41 83.0274 133.503 82.8073 133.614 82.5872C133.725 82.3671 133.836 82.147 133.947 81.9469C134.188 81.5267 134.429 81.1266 134.688 80.7264C135.207 79.926 135.745 79.1657 136.301 78.3853C137.412 76.8647 138.543 75.364 139.71 73.8833C140.859 72.4027 142.045 70.942 143.231 69.4813C144.417 68.0407 145.621 66.6001 146.826 65.1594L148.642 63.0184C149.253 62.2981 149.865 61.5978 150.476 60.8975C151.699 59.4969 152.941 58.0962 154.182 56.6956L157.926 52.5337L161.687 48.3919C166.727 42.8894 171.805 37.4269 176.956 32.0645C179.551 29.3833 182.145 26.7421 184.795 24.141C186.129 22.8404 187.463 21.5598 188.834 20.2993C189.52 19.679 190.205 19.0587 190.928 18.4784C191.28 18.1783 191.651 17.8982 192.021 17.618C192.207 17.478 192.392 17.3579 192.596 17.2379C192.8 17.1178 192.985 16.9978 193.226 16.9377C193.244 16.9377 193.282 16.9377 193.282 16.9778C193.263 17.0378 193.244 17.0778 193.207 17.0778Z" fill="#BCBCBC"/>
<path d="M191.132 12.5558C190.928 12.6759 190.743 12.836 190.576 12.976C190.391 13.1161 190.205 13.2762 190.039 13.4362C189.687 13.7564 189.334 14.0765 189.001 14.4167C188.315 15.077 187.63 15.7573 186.963 16.4376C185.628 17.7982 184.294 19.1988 182.997 20.5994C180.384 23.4007 177.79 26.242 175.214 29.1033C170.063 34.8058 164.986 40.5884 159.964 46.411L156.202 50.793C154.961 52.2537 153.719 53.7343 152.478 55.215L145.028 64.0389C143.787 65.4996 142.545 66.9803 141.322 68.4609C140.081 69.9416 138.876 71.4223 137.653 72.9229C137.042 73.6633 136.449 74.4236 135.856 75.184C135.263 75.9443 134.67 76.7046 134.077 77.465C133.484 78.2253 132.928 79.0057 132.372 79.806C132.094 80.2062 131.835 80.6064 131.594 81.0266C131.464 81.2267 131.353 81.4468 131.26 81.6669L131.186 81.8269C131.168 81.887 131.149 81.947 131.131 81.987C131.093 82.1071 131.075 82.2271 131.075 82.3272C131.075 82.3472 131.056 82.3872 131.038 82.3872C131.019 82.3872 130.982 82.3672 130.982 82.3472C130.964 82.2071 130.982 82.067 131.001 81.947C131.019 81.887 131.038 81.8269 131.056 81.7669L131.112 81.5868C131.205 81.3467 131.297 81.1266 131.408 80.9065C131.631 80.4663 131.872 80.0261 132.113 79.6059C132.613 78.7656 133.15 77.9452 133.688 77.1448C134.781 75.5441 135.93 73.9634 137.097 72.4227C138.265 70.862 139.451 69.3413 140.637 67.8206C141.841 66.3 143.046 64.7993 144.269 63.2986L146.103 61.0576C146.715 60.3173 147.345 59.5769 147.956 58.8366C149.198 57.376 150.458 55.9153 151.718 54.4546C152.978 52.994 154.256 51.5533 155.517 50.1127L159.334 45.7908C164.43 40.0282 169.6 34.3256 174.807 28.7031C177.419 25.9018 180.051 23.1006 182.719 20.3393C184.053 18.9587 185.406 17.5981 186.759 16.2575C187.444 15.5972 188.13 14.9169 188.834 14.2766C189.186 13.9565 189.538 13.6363 189.909 13.3162C190.094 13.1561 190.279 13.016 190.465 12.856C190.65 12.7159 190.835 12.5558 191.039 12.4358C191.058 12.4158 191.095 12.4358 191.113 12.4558C191.169 12.4958 191.15 12.5358 191.132 12.5558Z" fill="#BCBCBC"/>
<path d="M210.496 23.3406L151.088 92.2915C151.088 92.2915 160.464 96.8136 158.871 108.339L237.106 151.898L245 144.555C245 144.555 189.613 95.1928 166.264 98.3343C166.264 98.3343 208.476 58.4563 212.664 40.4683L210.496 23.3406Z" fill="#FEFEFE"/>
<path d="M240.701 156.96C240.238 156.96 239.774 156.84 239.33 156.6L159.093 112.08C155.313 114.601 151.588 115.522 148.216 114.701C145.029 113.941 142.397 111.66 140.6 108.138C138.821 104.657 138.691 100.475 140.248 96.9133C141.878 93.1717 145.177 90.5105 149.55 89.37L210.663 18.9584C211.794 17.6578 213.684 17.5977 214.888 18.8183C216.093 20.0388 216.148 22.0798 215.018 23.3803L153.256 94.5323C152.83 95.0325 152.255 95.3727 151.625 95.4927C148.679 96.093 146.567 97.5737 145.64 99.6746C144.899 101.355 144.973 103.356 145.825 105.017C146.789 106.898 148.012 108.038 149.494 108.379C151.57 108.879 154.275 107.938 157.092 105.697C158 104.977 159.223 104.877 160.224 105.437L242.035 150.838C243.499 151.658 244.092 153.599 243.332 155.2C242.832 156.32 241.794 156.96 240.701 156.96Z" fill="#E84F2D"/>
<path d="M209.663 48.4716C209.088 51.513 208.384 54.5344 207.495 57.4957L207.161 58.5962C207.05 58.9563 206.92 59.3365 206.809 59.6967L206.624 60.2369C206.568 60.417 206.494 60.5971 206.438 60.7772L206.049 61.8576C205.975 62.0377 205.919 62.2178 205.845 62.3979L205.641 62.9381L205.215 64.0186L204.771 65.0791C204.622 65.4393 204.474 65.7994 204.307 66.1396C201.843 71.7621 198.581 77.0245 194.597 81.5865C193.597 82.727 192.559 83.8075 191.484 84.868C190.391 85.9084 189.279 86.9089 188.112 87.8493C185.795 89.7302 183.312 91.3909 180.737 92.8316C179.44 93.5519 178.124 94.2122 176.771 94.8124C175.418 95.4127 174.066 95.953 172.676 96.4332C171.286 96.9134 169.878 97.3336 168.451 97.6737C167.747 97.8538 167.024 97.9939 166.302 98.1339C165.949 98.194 165.579 98.254 165.208 98.314C165.023 98.334 164.838 98.374 164.652 98.394L164.374 98.4341C164.282 98.4541 164.189 98.4541 164.078 98.4541L164.059 96.7533C164.411 96.7533 164.782 96.7733 165.153 96.7533C165.523 96.7533 165.894 96.7533 166.264 96.7333C167.006 96.7133 167.747 96.6733 168.488 96.6333C169.971 96.5532 171.453 96.4132 172.935 96.2331C175.9 95.8729 178.828 95.3327 181.719 94.6123C183.164 94.2322 184.591 93.832 185.999 93.3518C187.408 92.8716 188.816 92.3513 190.169 91.7711C191.54 91.1908 192.893 90.5305 194.19 89.8102C195.487 89.0899 196.765 88.2895 197.97 87.3891C199.174 86.5087 200.323 85.5483 201.398 84.4878C202.473 83.4273 203.455 82.2668 204.344 81.0263C205.234 79.7857 206.031 78.4651 206.698 77.0845L207.18 76.024C207.328 75.6638 207.476 75.3037 207.606 74.9435C207.754 74.5834 207.865 74.2032 207.995 73.843L208.18 73.2828C208.236 73.1027 208.291 72.9026 208.347 72.7225L208.514 72.1623C208.569 71.9822 208.625 71.7821 208.662 71.582L208.921 70.4215C208.94 70.3214 208.958 70.2214 208.977 70.1214L209.033 69.8212L209.144 69.241C209.181 69.0409 209.218 68.8608 209.236 68.6607L209.311 68.0604L209.385 67.4602C209.403 67.2601 209.44 67.06 209.459 66.8599L209.551 65.6594L209.57 65.3592L209.588 65.0591L209.607 64.4588L209.626 63.8585C209.626 63.7585 209.644 63.6585 209.644 63.5584V63.2583C209.681 60.0368 209.366 56.8154 208.847 53.6139C208.829 53.5539 208.866 53.4939 208.921 53.4939C208.977 53.4939 209.014 53.5139 209.033 53.5739C209.848 56.7153 210.367 59.9568 210.552 63.2383L210.571 63.5384C210.571 63.6384 210.571 63.7385 210.571 63.8385L210.589 64.4588L210.608 65.0791V65.3792V65.6794L210.571 66.9199C210.571 67.12 210.552 67.3401 210.534 67.5402L210.478 68.1605L210.422 68.7808C210.404 68.9808 210.367 69.2009 210.348 69.401L210.274 70.0213L210.237 70.3214C210.219 70.4215 210.218 70.5215 210.181 70.6216L209.959 71.8421C209.922 72.0422 209.885 72.2423 209.829 72.4424L209.681 73.0427C209.292 74.6634 208.773 76.2441 208.106 77.7648C207.439 79.2855 206.642 80.7261 205.716 82.0867C204.789 83.4473 203.77 84.7279 202.64 85.8884C201.509 87.049 200.305 88.1094 199.045 89.0699C197.766 90.0303 196.45 90.9107 195.079 91.671C193.708 92.4514 192.3 93.1317 190.873 93.732C188.001 94.9525 185.054 95.8529 182.071 96.5332C179.087 97.2135 176.067 97.6737 173.028 97.9739C171.509 98.1139 169.989 98.234 168.47 98.294C167.71 98.334 166.95 98.334 166.19 98.354C165.801 98.354 165.431 98.354 165.041 98.354C164.652 98.354 164.282 98.334 163.893 98.334L163.874 96.6333L164.115 96.6132L164.374 96.5932C164.541 96.5732 164.726 96.5532 164.893 96.5332C165.245 96.4932 165.579 96.4332 165.931 96.3731C166.617 96.2531 167.321 96.113 168.006 95.973C169.396 95.6728 170.767 95.2927 172.12 94.8325C174.825 93.9521 177.475 92.8115 180.014 91.4709C182.553 90.1303 184.999 88.5496 187.296 86.7488C188.445 85.8484 189.557 84.908 190.65 83.9075C191.725 82.9071 192.763 81.8466 193.764 80.7661C197.766 76.3842 201.064 71.2819 203.622 65.7794C203.788 65.4393 203.937 65.0791 204.085 64.7389L204.548 63.6985L204.974 62.638L205.197 62.1178C205.271 61.9377 205.326 61.7576 205.401 61.5775L205.808 60.497C205.882 60.3169 205.938 60.1369 206.012 59.9568L206.197 59.4166C206.327 59.0564 206.457 58.6962 206.587 58.3361L206.939 57.2356C207.884 54.3143 208.662 51.3329 209.311 48.3116C209.329 48.2515 209.385 48.2115 209.422 48.2315C209.644 48.3516 209.681 48.4116 209.663 48.4716Z" fill="#FEFEFE"/>
<path d="M164.059 97.4738C167.784 97.2937 171.49 97.4738 175.196 97.7939C178.902 98.1341 182.59 98.6343 186.259 99.3346C189.928 100.035 193.56 100.915 197.173 101.956C200.768 103.016 204.326 104.257 207.828 105.677C208.699 106.038 209.57 106.398 210.441 106.778C211.312 107.138 212.164 107.538 213.035 107.938C214.759 108.739 216.463 109.559 218.15 110.46C219.817 111.36 221.485 112.3 223.116 113.301C223.523 113.541 223.931 113.821 224.32 114.081L224.932 114.461L225.228 114.661L225.525 114.862L226.711 115.682C227.1 115.962 227.489 116.242 227.878 116.522C228.656 117.083 229.416 117.663 230.176 118.243C230.546 118.543 230.936 118.843 231.306 119.144L231.862 119.604C232.047 119.764 232.233 119.904 232.418 120.064L233.53 121.004C233.9 121.324 234.252 121.645 234.623 121.965C235.346 122.605 236.05 123.265 236.754 123.926C239.552 126.607 242.183 129.488 244.574 132.57C244.611 132.61 244.611 132.69 244.555 132.73C244.518 132.77 244.463 132.77 244.426 132.73C241.628 130.088 238.792 127.527 235.865 125.106L234.753 124.206C234.567 124.066 234.382 123.906 234.197 123.766L233.641 123.325L232.529 122.445L231.399 121.585C231.213 121.445 231.028 121.304 230.824 121.164L230.25 120.744C229.861 120.464 229.49 120.184 229.101 119.924C228.323 119.384 227.563 118.823 226.785 118.323C223.672 116.202 220.484 114.241 217.242 112.36C215.611 111.42 213.98 110.54 212.313 109.699C210.645 108.859 208.959 108.059 207.254 107.318C203.844 105.838 200.36 104.517 196.821 103.376C193.282 102.216 189.705 101.235 186.092 100.435C182.479 99.6147 178.828 98.9745 175.141 98.4942C173.306 98.2541 171.453 98.074 169.619 97.934C167.765 97.7939 165.912 97.6939 164.078 97.7139C164.022 97.7139 163.985 97.6739 163.985 97.6138C163.967 97.5338 164.004 97.4738 164.059 97.4738Z" fill="#FEFEFE"/>
<path d="M155.832 95.5931C158.037 92.8318 160.298 90.1106 162.558 87.4094C163.689 86.0488 164.819 84.7082 165.968 83.3676L169.396 79.3458C171.694 76.6645 174.01 74.0234 176.345 71.4022L183.35 63.5186L197.34 47.7316L211.367 31.9845C211.386 31.9645 211.423 31.9645 211.442 31.9845C211.46 32.0045 211.46 32.0445 211.442 32.0645L197.711 48.1117L183.942 64.1189L177.068 72.1425C174.77 74.8237 172.472 77.4649 170.137 80.1061L166.617 84.0479C165.431 85.3484 164.263 86.669 163.077 87.9496C160.705 90.5508 158.333 93.132 155.925 95.6731C155.906 95.6931 155.869 95.6931 155.85 95.6731C155.832 95.6531 155.813 95.6131 155.832 95.5931Z" fill="#BCBCBC"/>
<path d="M156.832 97.0336C159.297 94.6325 161.743 92.2315 164.189 89.8304L167.839 86.2088L169.655 84.3879L171.471 82.5671C173.899 80.126 176.308 77.6849 178.698 75.2438C181.107 72.8027 183.498 70.3216 185.832 67.8005C190.521 62.7582 195.061 57.5759 199.415 52.1935C199.971 51.5332 200.49 50.8529 201.027 50.1726C201.565 49.4923 202.102 48.812 202.621 48.1317L204.196 46.0707L205.734 43.9698L206.123 43.4496L206.494 42.9093L207.235 41.8488L207.976 40.7884C208.217 40.4282 208.458 40.068 208.699 39.7079L209.422 38.6274L209.792 38.0872C209.922 37.9071 210.033 37.727 210.144 37.5469L211.553 35.3459C211.571 35.3259 211.608 35.3059 211.627 35.3259C211.645 35.3459 211.664 35.3659 211.645 35.406C208.087 41.4287 204.029 47.1112 199.767 52.5937C195.487 58.0561 191.002 63.3185 186.388 68.4608C181.756 73.5831 177.068 78.6254 172.138 83.4075C170.897 84.608 169.674 85.7886 168.414 86.9691C167.154 88.1296 165.912 89.3102 164.634 90.4507C162.095 92.7517 159.519 95.0127 156.888 97.1537C156.869 97.1737 156.832 97.1737 156.814 97.1337C156.795 97.0937 156.814 97.0536 156.832 97.0336Z" fill="#BCBCBC"/>
<path d="M160.205 103.336C162.002 103.917 163.781 104.577 165.542 105.237C166.431 105.577 167.302 105.918 168.192 106.258C168.636 106.438 169.081 106.598 169.507 106.778L170.823 107.298C171.694 107.658 172.583 108.019 173.454 108.379L174.77 108.939L176.086 109.499L177.383 110.059L178.68 110.64L179.977 111.22L181.274 111.8L182.571 112.4L183.868 113.001C184.721 113.401 185.592 113.821 186.444 114.221L187.723 114.842C188.149 115.062 188.575 115.262 189.001 115.482L191.558 116.762L194.097 118.083C194.95 118.523 195.783 118.983 196.617 119.424L197.877 120.104L199.137 120.784L200.397 121.465L201.027 121.805L201.657 122.165L204.159 123.565L206.642 125.006C207.05 125.246 207.476 125.486 207.884 125.726L209.107 126.467L210.33 127.207L210.941 127.567L211.553 127.947L213.999 129.468C214.814 129.968 215.611 130.509 216.426 131.009L217.631 131.789L218.835 132.59L220.04 133.39C220.447 133.65 220.836 133.91 221.226 134.19L223.597 135.831C223.801 135.971 223.987 136.111 224.19 136.251L224.783 136.671L225.951 137.512L227.118 138.352C227.507 138.632 227.896 138.932 228.267 139.213L230.565 140.953C233.604 143.314 236.587 145.775 239.478 148.357C239.497 148.377 239.497 148.417 239.478 148.437C239.459 148.457 239.422 148.457 239.404 148.437C237.921 147.196 236.458 145.936 234.938 144.755C233.437 143.534 231.899 142.394 230.38 141.213L228.045 139.513C227.656 139.233 227.266 138.952 226.877 138.672L225.691 137.852L224.505 137.032L223.912 136.611C223.709 136.471 223.523 136.351 223.32 136.211L220.929 134.61C220.54 134.35 220.132 134.09 219.725 133.83L218.52 133.05L217.316 132.269L216.093 131.509C215.277 131.009 214.481 130.489 213.665 130.008L211.219 128.528L210.608 128.168L209.996 127.807L208.755 127.087L207.513 126.367C207.105 126.127 206.679 125.907 206.272 125.666L203.788 124.266L201.287 122.905C194.597 119.284 187.76 115.982 180.922 112.721C174.066 109.459 167.172 106.338 160.205 103.356C160.187 103.336 160.168 103.316 160.168 103.296C160.168 103.336 160.187 103.316 160.205 103.336Z" fill="#BCBCBC"/>
<path d="M159.464 100.655C159.705 100.595 159.946 100.555 160.205 100.515L160.576 100.475L160.946 100.435C161.187 100.415 161.447 100.415 161.687 100.395C161.928 100.375 162.188 100.395 162.429 100.395H162.799C162.929 100.395 163.04 100.395 163.17 100.415L163.911 100.455L164.652 100.515C164.893 100.535 165.153 100.555 165.394 100.595C167.358 100.836 169.322 101.196 171.249 101.696C175.103 102.656 178.865 104.037 182.553 105.598C183.016 105.798 183.479 105.978 183.924 106.198L185.295 106.818L186.666 107.459L188.019 108.119C188.909 108.559 189.817 109.019 190.706 109.499L192.04 110.22L192.707 110.58C192.93 110.7 193.152 110.82 193.374 110.94L195.987 112.441L196.636 112.821L197.284 113.201L198.581 113.981C200.323 115.002 202.01 116.102 203.714 117.163C204.141 117.423 204.567 117.703 204.974 117.983L206.234 118.824L207.495 119.664L208.125 120.084L208.755 120.504L211.256 122.225L212.498 123.086L213.739 123.966L216.204 125.727L216.815 126.167C217.019 126.307 217.223 126.467 217.427 126.627L218.65 127.528L221.096 129.328C221.503 129.628 221.911 129.929 222.3 130.249L223.505 131.169L225.914 133.03L226.507 133.49L227.1 133.97L228.286 134.931C229.861 136.211 231.454 137.452 233.029 138.753L235.383 140.693C236.161 141.334 236.958 141.974 237.718 142.654L242.35 146.616C242.369 146.636 242.369 146.676 242.35 146.696C242.332 146.716 242.295 146.716 242.276 146.696L237.569 142.834C237.18 142.514 236.791 142.194 236.383 141.874L235.197 140.934L232.826 139.033C231.25 137.752 229.638 136.532 228.045 135.291L226.84 134.371L226.247 133.91L225.636 133.45L223.208 131.629L222.004 130.729C221.596 130.429 221.188 130.129 220.781 129.829L218.335 128.048L217.112 127.167C216.908 127.027 216.704 126.867 216.5 126.727L215.889 126.287L213.406 124.566L212.164 123.706L210.904 122.865L208.384 121.185L207.754 120.765L207.124 120.364L205.845 119.544L204.567 118.724C204.141 118.463 203.714 118.183 203.288 117.923C201.565 116.883 199.879 115.822 198.137 114.842L196.84 114.082L196.191 113.701L195.542 113.341L192.911 111.901C191.151 110.96 189.39 110.04 187.593 109.159L186.259 108.499L184.906 107.859L183.553 107.218C183.109 106.998 182.645 106.818 182.201 106.618L180.848 106.018C180.385 105.818 179.94 105.638 179.477 105.438L178.105 104.877L176.716 104.357C175.789 103.997 174.863 103.677 173.936 103.357L173.584 103.237L173.232 103.117L172.528 102.896C172.064 102.756 171.583 102.596 171.119 102.456L169.693 102.056L168.266 101.696C168.025 101.636 167.784 101.596 167.543 101.536L166.82 101.376C166.709 101.356 166.579 101.316 166.468 101.296L166.098 101.236L165.375 101.116C165.134 101.076 164.893 101.036 164.652 100.996L163.93 100.896C163.448 100.856 162.947 100.776 162.466 100.756C162.225 100.736 161.984 100.716 161.724 100.716C161.484 100.716 161.243 100.696 160.983 100.696H160.613L160.242 100.716C160.001 100.736 159.76 100.756 159.519 100.796C159.501 100.796 159.464 100.776 159.464 100.756C159.427 100.695 159.445 100.655 159.464 100.655Z" fill="#BCBCBC"/>
<path d="M158.778 98.1739C159.167 98.1139 159.556 97.9938 159.927 97.8537C160.112 97.7737 160.298 97.7137 160.483 97.6136C160.668 97.5336 160.854 97.4536 161.039 97.3535C161.762 96.9933 162.466 96.5732 163.151 96.153C164.523 95.2726 165.838 94.2921 167.117 93.2517C167.284 93.1316 167.432 92.9916 167.599 92.8715L168.062 92.4713C168.377 92.2112 168.692 91.9311 169.007 91.671L169.934 90.8506L170.397 90.4304L170.841 90.0102C171.453 89.45 172.064 88.8897 172.639 88.2894L173.528 87.4291C173.825 87.1489 174.121 86.8288 174.399 86.5487C174.992 85.9484 175.567 85.3681 176.141 84.7679L177.012 83.8675C177.309 83.5673 177.587 83.2672 177.864 82.9671L179.569 81.1262L181.256 79.2654C181.83 78.6451 182.367 78.0248 182.923 77.3845L183.757 76.4441C184.035 76.124 184.313 75.8238 184.573 75.5037C185.647 74.2231 186.741 72.9425 187.797 71.642C192.059 66.4396 196.154 61.0772 200.119 55.6148C200.62 54.9345 201.12 54.2542 201.62 53.5739L203.103 51.5129L204.585 49.452L206.049 47.3711C207.995 44.6098 209.904 41.8086 211.812 39.0073C211.831 38.9873 211.868 38.9873 211.886 38.9873C211.905 39.0073 211.905 39.0473 211.905 39.0673L209.125 43.3293L208.421 44.3897L207.717 45.4502L206.309 47.5712L204.9 49.6921L203.455 51.7931L202.01 53.894C201.528 54.5943 201.046 55.2746 200.546 55.9749C196.636 61.5174 192.615 66.9599 188.427 72.2422C187.389 73.5828 186.314 74.8634 185.24 76.184C184.98 76.5041 184.702 76.8243 184.424 77.1645L183.609 78.1249C183.072 78.7652 182.534 79.4255 181.978 80.0457L180.311 81.9466L178.606 83.8074C177.457 85.028 176.289 86.2285 175.085 87.409C172.676 89.7301 170.193 91.9911 167.506 93.952C167.172 94.1921 166.839 94.4522 166.505 94.6923L165.486 95.3926L164.43 96.0529C164.078 96.273 163.726 96.4731 163.355 96.6732C162.633 97.0534 161.891 97.4536 161.132 97.7537C160.946 97.8337 160.742 97.8938 160.557 97.9738C160.372 98.0538 160.168 98.0938 159.964 98.1539C159.575 98.2539 159.167 98.354 158.76 98.374C158.741 98.374 158.704 98.354 158.704 98.3139C158.723 98.2139 158.741 98.1739 158.778 98.1739Z" fill="#BCBCBC"/>
<path d="M175.326 231.814L141.007 137.992C141.007 137.992 153.886 131.749 149.995 122.805L235.846 162.143L218.149 171.727C218.149 171.727 174.343 160.422 151.477 134.65L182.312 223.13L175.326 231.814Z" fill="#FEFEFE"/>
<path d="M177.142 240.358C175.956 240.358 174.825 239.578 174.362 238.317L138.617 140.413C134.837 138.392 132.484 136.091 131.223 133.23C129.723 129.808 129.926 125.847 131.891 121.144C133.614 117.023 136.412 114.461 139.785 113.941C143.75 113.341 147.993 115.522 151.792 120.104L239.274 160.442C240.794 161.142 241.498 163.043 240.849 164.684C240.201 166.325 238.44 167.085 236.921 166.385L148.79 125.766C148.364 125.566 147.975 125.266 147.678 124.886C145.214 121.745 142.564 120.044 140.6 120.344C139.303 120.544 138.191 121.705 137.32 123.806C135.541 128.047 136.338 129.868 136.597 130.449C137.32 132.109 139.136 133.61 142.156 135.091C142.861 135.431 143.435 136.071 143.713 136.851L179.884 235.956C180.496 237.617 179.736 239.498 178.198 240.158C177.883 240.298 177.494 240.358 177.142 240.358Z" fill="#97B38F"/>
<path d="M191.058 208.243C190.298 207.803 189.576 207.263 188.89 206.703C188.223 206.123 187.574 205.502 186.963 204.842C185.721 203.541 184.591 202.141 183.498 200.7C182.423 199.259 181.385 197.759 180.385 196.238C179.384 194.717 178.42 193.177 177.494 191.616C176.567 190.055 175.641 188.475 174.751 186.894C173.862 185.313 172.991 183.712 172.12 182.092C170.415 178.87 168.747 175.609 167.135 172.347C163.911 165.784 160.854 159.141 157.907 152.418C156.443 149.057 154.979 145.695 153.571 142.314C152.144 138.932 150.754 135.551 149.402 132.129L150.921 131.429C150.958 131.509 150.995 131.589 151.032 131.689C151.069 131.769 151.125 131.869 151.162 131.949C151.255 132.129 151.347 132.309 151.44 132.489C151.533 132.67 151.625 132.85 151.718 133.03C151.811 133.21 151.903 133.39 152.015 133.57L152.311 134.09C152.404 134.27 152.515 134.43 152.626 134.61L152.941 135.131L153.275 135.651L153.608 136.171L153.96 136.671C154.201 137.011 154.423 137.352 154.664 137.672C154.905 137.992 155.146 138.332 155.387 138.652L156.128 139.613C158.148 142.154 160.39 144.495 162.725 146.696L163.17 147.116C163.318 147.256 163.466 147.396 163.615 147.516L164.523 148.317L164.967 148.717C165.115 148.857 165.264 148.977 165.431 149.117L166.357 149.877L167.284 150.638L168.229 151.358L169.174 152.098L169.415 152.278L169.655 152.458L170.137 152.799L171.119 153.499L171.601 153.839C171.768 153.959 171.935 154.059 172.101 154.179L174.084 155.5C175.437 156.34 176.79 157.181 178.161 157.961L179.199 158.561C179.365 158.661 179.551 158.761 179.717 158.861L180.236 159.141L182.349 160.242L182.608 160.382L182.868 160.502L183.405 160.762L184.48 161.282L185.554 161.803C185.74 161.883 185.907 161.963 186.092 162.043L186.629 162.283L188.797 163.243C189.149 163.403 189.52 163.543 189.891 163.703L190.984 164.144L192.077 164.584L192.633 164.804C192.818 164.884 193.004 164.944 193.189 165.004L195.413 165.804C201.379 167.905 207.494 169.526 213.684 170.847C213.739 170.867 213.776 170.907 213.758 170.967C213.739 171.027 213.702 171.067 213.647 171.047C207.365 170.306 201.12 169.046 195.005 167.205L192.707 166.505C192.522 166.445 192.318 166.385 192.133 166.325L191.558 166.125L190.428 165.724L189.298 165.324C188.927 165.184 188.538 165.064 188.167 164.904L185.925 164.004L185.369 163.783C185.184 163.703 184.999 163.643 184.813 163.543L183.701 163.063L182.59 162.563L182.034 162.323L181.756 162.203L181.478 162.063L179.31 160.982L178.772 160.722C178.587 160.642 178.42 160.522 178.235 160.442L177.16 159.862C175.715 159.121 174.344 158.261 172.954 157.421L170.897 156.08C170.73 155.96 170.545 155.86 170.378 155.74L169.878 155.38L168.877 154.679L168.377 154.319L168.117 154.139L167.877 153.959L166.894 153.219L165.912 152.458L164.967 151.678L164.022 150.898C163.855 150.778 163.707 150.618 163.559 150.498L163.096 150.077L162.169 149.257C162.021 149.117 161.873 148.977 161.724 148.837L161.28 148.397L160.39 147.536C160.094 147.236 159.816 146.936 159.519 146.636C159.223 146.336 158.945 146.036 158.648 145.735L157.815 144.815C157.24 144.215 156.721 143.554 156.165 142.914L155.961 142.674L155.758 142.434L155.369 141.934C155.109 141.594 154.85 141.273 154.59 140.933L153.83 139.913C153.59 139.573 153.349 139.232 153.108 138.872C152.867 138.532 152.626 138.172 152.404 137.832L152.052 137.312L151.718 136.771L151.384 136.231L151.069 135.671C150.958 135.491 150.847 135.311 150.754 135.111L150.439 134.55C150.328 134.37 150.236 134.17 150.143 133.99C150.05 133.79 149.939 133.61 149.846 133.41C149.754 133.21 149.661 133.03 149.569 132.83C149.531 132.73 149.476 132.629 149.439 132.529C149.402 132.429 149.346 132.329 149.309 132.209L150.829 131.509C152.126 134.931 153.478 138.332 154.85 141.734C156.221 145.135 157.629 148.517 159.056 151.878C161.91 158.621 164.856 165.304 167.969 171.907C168.747 173.548 169.544 175.209 170.341 176.849C171.138 178.49 171.953 180.111 172.787 181.732C173.621 183.352 174.455 184.973 175.307 186.574C176.178 188.174 177.049 189.755 177.957 191.336C178.865 192.917 179.792 194.457 180.755 195.998C181.719 197.519 182.719 199.039 183.757 200.5C184.813 201.961 185.907 203.381 187.093 204.702C187.685 205.362 188.316 205.982 188.964 206.583C189.631 207.163 190.317 207.703 191.058 208.163C191.114 208.183 191.132 208.263 191.095 208.303C191.169 208.243 191.114 208.263 191.058 208.243Z" fill="#FEFEFE"/>
<path d="M145.343 136.992C146.196 138.792 147.011 140.613 147.827 142.434L149.031 145.175L150.217 147.937L150.81 149.317C151.014 149.777 151.199 150.238 151.384 150.698L152.552 153.459C152.941 154.379 153.312 155.3 153.701 156.24L154.831 159.022C156.332 162.743 157.777 166.485 159.167 170.247L160.223 173.068C160.575 174.008 160.909 174.949 161.261 175.889L162.299 178.71C162.632 179.651 162.984 180.591 163.318 181.552L165.338 187.234C165.671 188.175 166.005 189.135 166.32 190.075L167.302 192.917L168.284 195.758L169.229 198.619L170.174 201.481L170.656 202.921C170.804 203.401 170.971 203.882 171.119 204.362L172.935 210.125L173.38 211.565C173.528 212.045 173.676 212.526 173.806 213.006L174.659 215.907C175.845 219.749 176.882 223.651 177.957 227.532C177.957 227.552 177.957 227.592 177.92 227.592C177.901 227.592 177.864 227.592 177.864 227.552C175.622 219.829 173.213 212.145 170.637 204.542C170.489 204.062 170.322 203.582 170.156 203.121L169.674 201.701L168.692 198.859L167.71 196.018L166.69 193.177L165.671 190.336C165.338 189.395 165.004 188.455 164.652 187.514L162.577 181.872C162.225 180.931 161.873 179.991 161.521 179.051L160.446 176.249C160.094 175.309 159.742 174.368 159.371 173.448L158.278 170.647L153.923 159.442L145.251 137.032C145.232 137.012 145.251 136.972 145.269 136.952C145.306 136.972 145.343 136.972 145.343 136.992Z" fill="#BCBCBC"/>
<path d="M147.049 135.591C148.012 137.312 148.92 139.052 149.81 140.813C150.699 142.574 151.589 144.335 152.441 146.116L153.089 147.456L153.72 148.797C154.146 149.697 154.553 150.578 154.98 151.478C155.813 153.279 156.61 155.08 157.407 156.88C160.594 164.124 163.448 171.527 166.153 178.99L166.654 180.391L167.154 181.792L168.136 184.593L169.1 187.414L169.341 188.114L169.582 188.815L170.045 190.235C170.675 192.116 171.268 194.017 171.879 195.918L172.75 198.779L173.176 200.2L173.603 201.64C175.845 209.284 177.79 217.027 179.366 224.851C179.366 224.871 179.347 224.911 179.328 224.911C179.31 224.911 179.273 224.891 179.273 224.871L178.606 221.95C178.495 221.469 178.383 220.969 178.272 220.489L177.92 219.048L177.568 217.608C177.457 217.127 177.327 216.647 177.197 216.167L176.438 213.286C175.4 209.444 174.307 205.622 173.121 201.821L172.676 200.4L172.231 198.979L171.323 196.138C170.693 194.257 170.082 192.376 169.433 190.495L168.951 189.095L168.711 188.395L168.47 187.694L167.469 184.893L166.45 182.112L165.931 180.711L165.412 179.33C164.708 177.47 163.985 175.629 163.281 173.788C162.54 171.947 161.817 170.106 161.058 168.286L160.502 166.905L159.927 165.544C159.557 164.624 159.167 163.723 158.797 162.803C158.037 160.982 157.277 159.161 156.499 157.341C153.423 150.057 150.254 142.834 146.956 135.651C146.937 135.631 146.956 135.591 146.974 135.571C146.993 135.571 147.03 135.571 147.049 135.591Z" fill="#BCBCBC"/>
<path d="M150.921 129.548C151.292 129.808 151.662 130.048 152.051 130.288C152.422 130.529 152.811 130.769 153.2 130.989L153.775 131.329C153.96 131.449 154.164 131.549 154.368 131.669L155.535 132.329C156.313 132.77 157.11 133.17 157.907 133.61C158.704 134.03 159.501 134.43 160.297 134.85L161.483 135.471L162.688 136.071L165.097 137.272L169.933 139.593L172.361 140.733L174.788 141.874L179.643 144.135C180.459 144.515 181.255 144.895 182.071 145.275L184.517 146.376C186.147 147.116 187.76 147.856 189.39 148.577L194.301 150.718L196.747 151.798C197.562 152.158 198.396 152.498 199.211 152.859L204.14 154.96L206.605 156L209.069 157.02L214.017 159.061C215.666 159.742 217.315 160.442 218.965 161.102L228.878 165.124C228.897 165.144 228.915 165.164 228.915 165.184C228.897 165.204 228.878 165.224 228.86 165.224L218.872 161.422C217.204 160.802 215.555 160.142 213.887 159.482L208.903 157.521L206.42 156.54L203.937 155.54L198.97 153.519C198.137 153.179 197.321 152.859 196.487 152.498L194.023 151.458L189.094 149.377C187.444 148.677 185.814 147.956 184.165 147.256L181.7 146.196C180.885 145.835 180.069 145.475 179.254 145.115C177.623 144.375 175.993 143.654 174.362 142.894L171.935 141.734L169.507 140.553C167.913 139.733 166.301 138.932 164.708 138.112L162.336 136.831L161.15 136.191L159.982 135.531L158.815 134.87C158.426 134.65 158.037 134.43 157.648 134.19L156.499 133.49L155.924 133.13C155.739 133.01 155.535 132.89 155.35 132.77L154.22 132.029C154.034 131.909 153.83 131.789 153.645 131.669L153.089 131.289C152.719 131.029 152.348 130.769 151.977 130.509C151.607 130.248 151.255 129.968 150.903 129.668C150.884 129.648 150.884 129.608 150.903 129.588C150.866 129.528 150.903 129.528 150.921 129.548Z" fill="#BCBCBC"/>
<path d="M150.625 130.949C153.515 132.95 156.443 134.89 159.39 136.811C160.872 137.752 162.336 138.712 163.818 139.653C164.56 140.113 165.301 140.593 166.042 141.053C166.783 141.513 167.524 141.974 168.284 142.434C169.767 143.354 171.267 144.255 172.768 145.155L175.029 146.496L177.29 147.816C177.66 148.036 178.05 148.256 178.42 148.476L179.551 149.137L180.681 149.797L181.83 150.437L182.979 151.078L183.553 151.398L184.128 151.698L186.425 152.938C189.52 154.539 192.633 156.08 195.783 157.541C198.952 158.981 202.139 160.322 205.363 161.582C208.606 162.803 211.868 163.943 215.184 164.924C216.018 165.164 216.852 165.384 217.686 165.604L218.316 165.764C218.52 165.824 218.724 165.884 218.946 165.924L220.206 166.224L221.466 166.525C221.67 166.565 221.892 166.625 222.096 166.665L222.726 166.785L225.265 167.285C225.284 167.285 225.302 167.325 225.302 167.345C225.302 167.365 225.265 167.385 225.246 167.385L222.708 166.945L222.078 166.845C221.874 166.805 221.652 166.765 221.448 166.725L220.188 166.465L218.928 166.184C218.724 166.144 218.501 166.084 218.298 166.044L217.668 165.884C216.834 165.664 215.981 165.464 215.147 165.244C211.812 164.324 208.514 163.263 205.234 162.103C201.972 160.902 198.748 159.601 195.561 158.201C192.374 156.78 189.223 155.3 186.092 153.719L183.757 152.518L183.183 152.218L182.608 151.918L181.441 151.298L180.273 150.677L179.124 150.057L177.976 149.437C177.586 149.237 177.216 149.017 176.827 148.797C173.769 147.096 170.749 145.275 167.784 143.394C167.043 142.934 166.301 142.434 165.579 141.954C164.837 141.473 164.115 140.993 163.374 140.493C161.91 139.512 160.464 138.512 159.019 137.492C157.574 136.471 156.165 135.431 154.738 134.37C153.33 133.29 151.922 132.229 150.569 131.089C150.551 131.069 150.551 131.029 150.569 131.009C150.569 130.929 150.606 130.929 150.625 130.949Z" fill="#BCBCBC"/>
<path d="M149.624 132.029C155.165 136.111 160.779 140.073 166.45 143.915C169.285 145.835 172.139 147.736 175.011 149.597C177.883 151.458 180.774 153.259 183.72 154.979C185.184 155.84 186.666 156.68 188.167 157.501C188.909 157.921 189.668 158.301 190.409 158.701C191.169 159.101 191.91 159.481 192.67 159.862C193.43 160.242 194.19 160.622 194.949 161.002C195.709 161.362 196.487 161.743 197.247 162.083C198.785 162.783 200.342 163.463 201.898 164.084C203.473 164.724 205.048 165.304 206.642 165.844C208.236 166.385 209.848 166.865 211.479 167.265C213.109 167.665 214.758 168.005 216.408 168.225C218.075 168.446 219.743 168.566 221.411 168.526C221.429 168.526 221.466 168.546 221.466 168.586C221.466 168.606 221.448 168.646 221.411 168.646C219.725 168.726 218.057 168.646 216.371 168.466C214.703 168.265 213.035 167.965 211.386 167.605C209.737 167.225 208.106 166.785 206.494 166.285C204.882 165.784 203.288 165.204 201.694 164.604C200.101 164.004 198.544 163.343 196.988 162.663C196.209 162.323 195.431 161.963 194.653 161.622C193.875 161.262 193.115 160.902 192.355 160.522C191.595 160.162 190.836 159.762 190.057 159.381C189.298 158.981 188.538 158.601 187.778 158.201C186.259 157.401 184.776 156.58 183.275 155.74C181.793 154.899 180.31 154.039 178.828 153.179C177.364 152.298 175.882 151.418 174.436 150.517C172.972 149.617 171.527 148.677 170.1 147.736C169.378 147.256 168.673 146.776 167.969 146.296C167.265 145.815 166.561 145.315 165.857 144.835C164.448 143.834 163.059 142.834 161.669 141.814C160.279 140.793 158.908 139.753 157.537 138.692C156.165 137.632 154.813 136.571 153.478 135.471C152.144 134.37 150.81 133.27 149.513 132.109C149.494 132.089 149.494 132.049 149.513 132.029C149.569 132.009 149.606 132.009 149.624 132.029Z" fill="#BCBCBC"/>
<path d="M33.9205 172.807L12.7773 155.5L103.372 138.012C103.372 138.012 109.654 156.66 130.112 147.816L151.663 237.897L128.203 239.937C128.203 239.937 99.166 188.975 111.34 153.739C111.377 153.719 87.4177 191.236 33.9205 172.807Z" fill="#FEFEFE"/>
<path d="M153.478 245C152.163 245 150.94 244.04 150.588 242.599L127.239 148.677C127.091 148.057 127.11 147.397 127.295 146.796C129.593 139.573 123.329 136.051 119.401 134.591C115.473 133.13 108.524 131.77 106.244 139.013C105.892 140.113 105.021 140.934 103.965 141.134L10.5165 159.922C8.88587 160.242 7.32932 159.082 7.03283 157.341C6.73634 155.58 7.81111 153.899 9.42325 153.579L101.26 135.111C104.54 127.588 112.082 125.046 121.347 128.488C130.964 132.05 135.448 139.433 133.243 147.917L156.369 240.939C156.795 242.659 155.85 244.44 154.257 244.9C153.997 244.96 153.738 245 153.478 245Z" fill="#F2A05D"/>
<path d="M93.6067 231.574C92.5504 228.312 91.8648 224.931 91.4942 221.489C91.1236 218.068 91.068 214.586 91.2533 211.145C91.4386 207.703 91.8463 204.262 92.4392 200.86C93.0322 197.459 93.792 194.097 94.6999 190.796C96.5159 184.173 98.8507 177.71 101.519 171.447C102.872 168.305 104.299 165.224 105.818 162.183C106.578 160.662 107.356 159.161 108.172 157.661C108.579 156.92 108.987 156.18 109.395 155.44C109.821 154.699 110.228 153.979 110.673 153.239L111.97 154.259C110.97 155.66 109.969 157 108.95 158.361C107.931 159.702 106.893 161.042 105.855 162.363C103.761 165.004 101.612 167.625 99.4252 170.166C95.0335 175.269 90.3824 180.131 85.4533 184.653C84.2118 185.773 82.9702 186.894 81.6916 187.954C80.413 189.035 79.1344 190.095 77.8188 191.116C76.5031 192.136 75.1689 193.137 73.8162 194.077C72.4635 195.037 71.0737 195.938 69.6654 196.798C68.9612 197.239 68.2571 197.659 67.5344 198.059C66.8117 198.459 66.089 198.859 65.3664 199.239C63.9025 199.98 62.4015 200.68 60.882 201.28C59.3625 201.881 57.806 202.421 56.2309 202.821C55.4341 203.021 54.6558 203.201 53.859 203.341C53.0622 203.481 52.2654 203.601 51.45 203.661C51.3945 203.661 51.3389 203.621 51.3389 203.561C51.3389 203.501 51.3759 203.461 51.413 203.441C54.5631 202.841 57.6207 201.741 60.5299 200.36C61.9938 199.68 63.4207 198.899 64.8104 198.079C66.2002 197.258 67.59 196.398 68.9427 195.478C74.3351 191.816 79.3568 187.534 84.1562 182.992C85.3606 181.852 86.5466 180.711 87.714 179.531C88.8814 178.35 90.0488 177.19 91.1977 175.989L92.921 174.188C93.4955 173.588 94.0514 172.968 94.6258 172.367C95.7562 171.147 96.8865 169.926 97.9798 168.666C100.203 166.185 102.39 163.643 104.503 161.062C105.559 159.762 106.615 158.461 107.653 157.161C108.69 155.84 109.71 154.499 110.692 153.179L111.989 154.199C111.563 154.899 111.118 155.62 110.71 156.34C110.284 157.06 109.876 157.781 109.469 158.521C108.653 159.982 107.857 161.462 107.078 162.963C105.522 165.944 104.058 168.986 102.687 172.067C99.9255 178.23 97.5166 184.573 95.6079 191.116C94.6629 194.377 93.829 197.699 93.199 201.04C92.5504 204.382 92.0872 207.783 91.8277 211.185C91.5868 214.586 91.5683 218.028 91.8833 221.429C92.1798 224.831 92.7728 228.212 93.7549 231.494C93.7734 231.554 93.7364 231.614 93.6993 231.634C93.6808 231.654 93.6252 231.614 93.6067 231.574Z" fill="#FEFEFE"/>
<path d="M111.414 153.699C110.191 160.742 109.043 167.746 108.06 174.769C107.56 178.29 107.097 181.792 106.652 185.314C106.43 187.074 106.226 188.835 106.059 190.596C105.967 191.476 105.892 192.357 105.818 193.257C105.744 194.137 105.689 195.018 105.633 195.918C105.577 196.799 105.54 197.699 105.485 198.579C105.448 199.46 105.411 200.36 105.392 201.241C105.355 203.021 105.337 204.782 105.374 206.563C105.429 210.105 105.652 213.646 106.115 217.168C106.356 218.929 106.634 220.669 107.004 222.39C107.356 224.111 107.82 225.832 108.357 227.492C108.894 229.173 109.524 230.814 110.284 232.375C111.025 233.955 111.896 235.476 112.897 236.877C112.934 236.917 112.915 236.997 112.878 237.037C112.841 237.077 112.767 237.057 112.749 237.017C111.674 235.636 110.747 234.155 109.914 232.595C109.098 231.034 108.394 229.393 107.783 227.713C107.171 226.032 106.652 224.331 106.226 222.59C105.8 220.849 105.429 219.089 105.133 217.328C104.558 213.786 104.225 210.205 104.058 206.603C103.965 204.802 103.947 203.001 103.928 201.221C103.928 200.32 103.947 199.42 103.947 198.519C103.965 197.619 103.984 196.719 104.021 195.818C104.076 194.017 104.169 192.237 104.28 190.436C104.391 188.635 104.521 186.854 104.688 185.073C104.725 184.633 104.781 184.173 104.818 183.733C104.855 183.293 104.91 182.832 104.966 182.392C105.059 181.492 105.17 180.611 105.281 179.731C105.411 178.851 105.522 177.95 105.67 177.07C105.818 176.189 105.948 175.309 106.096 174.409C106.708 170.887 107.43 167.385 108.283 163.904C108.709 162.163 109.154 160.442 109.636 158.722C110.136 157.001 110.636 155.3 111.229 153.619C111.248 153.559 111.303 153.539 111.359 153.559C111.396 153.599 111.433 153.659 111.414 153.699Z" fill="#FEFEFE"/>
<path d="M116.547 151.418C116.399 151.858 116.288 152.318 116.177 152.779C116.121 152.999 116.065 153.239 116.01 153.459C115.954 153.679 115.899 153.919 115.862 154.139L115.713 154.819L115.584 155.52C115.547 155.76 115.491 155.98 115.454 156.22L115.324 156.92C115.287 157.161 115.232 157.381 115.213 157.621L115.102 158.321L114.991 159.021L114.898 159.722L114.805 160.422C114.768 160.662 114.75 160.882 114.713 161.122L114.565 162.523C114.398 164.404 114.231 166.285 114.175 168.165L114.12 169.586L114.101 171.007L114.083 171.707V172.067V172.427L114.101 173.848C114.138 177.61 114.342 181.391 114.676 185.133L114.805 186.534L114.88 187.234C114.898 187.474 114.935 187.694 114.954 187.934L115.306 190.736C115.435 191.676 115.584 192.596 115.732 193.537C115.862 194.477 116.047 195.398 116.214 196.318L116.473 197.699C116.51 197.939 116.547 198.159 116.603 198.399L116.751 199.099L117.326 201.861C117.418 202.321 117.529 202.781 117.641 203.241L117.974 204.622C118.196 205.542 118.4 206.463 118.66 207.363L119.401 210.084C119.457 210.304 119.512 210.544 119.586 210.765L119.79 211.445L120.198 212.785L120.605 214.126C120.735 214.566 120.865 215.026 121.013 215.467L121.903 218.148L122.347 219.488C122.496 219.929 122.662 220.369 122.811 220.809L123.756 223.45L123.996 224.111C124.071 224.331 124.163 224.551 124.256 224.771L124.775 226.071L125.794 228.693L125.924 229.013L126.053 229.333L126.331 229.973L126.869 231.274L127.962 233.855L130.26 238.957C130.278 238.977 130.26 239.017 130.241 239.037C130.223 239.057 130.186 239.037 130.167 239.017L127.758 233.955L126.628 231.394L126.053 230.113L125.775 229.473L125.627 229.153L125.497 228.833L124.441 226.232L123.904 224.931C123.811 224.711 123.719 224.491 123.644 224.271L123.404 223.61L122.403 220.969C122.236 220.529 122.069 220.089 121.903 219.649L121.439 218.308L120.513 215.647C120.346 215.207 120.216 214.746 120.087 214.306L119.66 212.966L119.234 211.625L119.03 210.945C118.956 210.725 118.901 210.484 118.827 210.264L118.048 207.543C117.77 206.643 117.566 205.722 117.326 204.802L116.973 203.421C116.862 202.961 116.733 202.501 116.64 202.041L115.936 199.239L115.788 198.539C115.732 198.299 115.695 198.079 115.658 197.839L115.38 196.438C115.195 195.518 115.009 194.577 114.861 193.637C114.713 192.696 114.546 191.776 114.398 190.836L113.99 188.014C113.953 187.774 113.916 187.554 113.897 187.314L113.823 186.614L113.657 185.193C113.249 181.411 113.027 177.61 113.064 173.788L113.082 172.367V172.007L113.101 171.647L113.119 170.927L113.175 169.506C113.193 169.026 113.23 168.546 113.267 168.085C113.397 166.185 113.601 164.284 113.842 162.403C114.101 160.522 114.435 158.641 114.861 156.8L115.028 156.1C115.083 155.86 115.139 155.64 115.195 155.42L115.38 154.739L115.565 154.059C115.825 153.159 116.103 152.258 116.455 151.378C116.473 151.358 116.492 151.338 116.529 151.358C116.547 151.358 116.547 151.398 116.547 151.418Z" fill="#BCBCBC"/>
<path d="M121.143 151.398C121.143 153.279 121.18 155.16 121.236 157.041C121.254 157.501 121.273 157.981 121.291 158.441C121.31 158.901 121.328 159.382 121.347 159.842L121.421 161.242L121.495 162.643L121.532 163.343L121.588 164.044L121.68 165.444C121.754 166.385 121.829 167.325 121.884 168.246L122.125 171.047C122.218 171.987 122.31 172.908 122.403 173.848C122.792 177.59 123.255 181.311 123.793 185.013C124.33 188.735 124.96 192.416 125.701 196.098C125.794 196.558 125.887 197.018 125.998 197.479L126.294 198.859C126.387 199.32 126.498 199.78 126.591 200.24L126.924 201.601L127.258 202.961C127.369 203.421 127.48 203.882 127.591 204.322L128.296 207.043C128.407 207.503 128.537 207.943 128.666 208.404L129.055 209.744L129.445 211.085C129.574 211.525 129.722 211.985 129.852 212.425L130.686 215.107L131.576 217.748C131.724 218.188 131.872 218.628 132.02 219.068L132.502 220.389C132.817 221.269 133.132 222.15 133.466 223.01L134.485 225.611C134.652 226.052 134.818 226.472 135.004 226.912L135.56 228.192C135.93 229.053 136.282 229.893 136.671 230.754L137.839 233.275C138.043 233.695 138.228 234.115 138.432 234.535L139.062 235.776L140.303 238.257C140.322 238.277 140.303 238.317 140.285 238.337C140.266 238.357 140.229 238.337 140.211 238.317L138.914 235.856L138.265 234.635C138.061 234.215 137.857 233.795 137.653 233.395L136.43 230.894C136.041 230.053 135.671 229.193 135.282 228.353L134.707 227.072C134.522 226.652 134.355 226.212 134.17 225.791L133.095 223.21C132.743 222.35 132.428 221.469 132.094 220.589L131.594 219.288C131.427 218.848 131.279 218.408 131.131 217.968L130.204 215.327L129.333 212.666C129.185 212.225 129.037 211.785 128.907 211.325L128.499 209.984L128.092 208.644C127.962 208.204 127.814 207.743 127.703 207.283L126.961 204.562C126.832 204.102 126.721 203.661 126.609 203.201L126.257 201.841L125.905 200.48C125.794 200.02 125.701 199.56 125.59 199.099L125.275 197.719C125.164 197.259 125.053 196.798 124.96 196.338L124.386 193.577C124.293 193.117 124.2 192.657 124.108 192.196L123.848 190.816C123.756 190.356 123.663 189.895 123.589 189.435L123.348 188.034C123.181 187.114 123.014 186.174 122.885 185.253L122.662 183.853C122.588 183.392 122.514 182.912 122.459 182.452C122.329 181.512 122.199 180.591 122.088 179.651L121.773 176.829L121.495 174.008C121.421 173.068 121.347 172.127 121.273 171.187C121.199 170.246 121.143 169.306 121.087 168.366C121.05 167.425 120.995 166.485 120.958 165.544C120.921 164.604 120.883 163.664 120.883 162.723C120.828 160.842 120.846 158.941 120.865 157.061C120.902 155.18 120.976 153.279 121.124 151.398C121.124 151.378 121.143 151.338 121.18 151.358C121.124 151.358 121.143 151.378 121.143 151.398Z" fill="#BCBCBC"/>
<path d="M119.105 151.698C119.049 152.158 118.993 152.638 118.938 153.099C118.882 153.559 118.845 154.039 118.808 154.499C118.715 155.44 118.641 156.38 118.586 157.321C118.456 159.201 118.382 161.082 118.345 162.963C118.308 164.844 118.289 166.725 118.326 168.606C118.345 170.487 118.419 172.367 118.512 174.228C118.919 181.712 119.716 189.195 121.236 196.538C122.737 203.882 124.886 211.065 127.629 217.988C128.314 219.709 129.037 221.429 129.797 223.11C130.167 223.951 130.575 224.791 130.964 225.631C131.149 226.051 131.372 226.472 131.576 226.872C131.779 227.292 131.983 227.712 132.187 228.112L132.817 229.353C132.928 229.553 133.021 229.773 133.132 229.973L133.466 230.573L134.133 231.794L134.818 232.995C135.263 233.795 135.745 234.595 136.208 235.396C136.431 235.796 136.69 236.176 136.931 236.576L137.654 237.757C137.672 237.777 137.654 237.817 137.635 237.837C137.616 237.857 137.579 237.837 137.561 237.817L136.82 236.656C136.579 236.276 136.319 235.876 136.078 235.496C135.597 234.715 135.096 233.935 134.633 233.135L133.929 231.934L133.243 230.734L132.91 230.133C132.799 229.933 132.687 229.733 132.576 229.513L131.909 228.292C131.687 227.892 131.483 227.472 131.261 227.052C131.057 226.632 130.834 226.232 130.631 225.811C130.223 224.971 129.797 224.151 129.407 223.31C128.611 221.629 127.869 219.929 127.128 218.208C124.275 211.305 122.032 204.102 120.42 196.738C120.013 194.897 119.642 193.057 119.308 191.196C118.975 189.335 118.678 187.474 118.419 185.593C117.919 181.852 117.585 178.07 117.455 174.288C117.4 172.387 117.363 170.507 117.381 168.606C117.4 166.705 117.455 164.824 117.585 162.943C117.641 162.003 117.715 161.062 117.789 160.122C117.882 159.181 117.974 158.241 118.067 157.301C118.178 156.36 118.308 155.42 118.438 154.499C118.586 153.559 118.734 152.638 118.938 151.718C118.938 151.698 118.975 151.678 118.993 151.678C119.086 151.638 119.105 151.658 119.105 151.698Z" fill="#BCBCBC"/>
<path d="M123.089 151.138C124.349 158.501 125.646 165.865 127.017 173.188C127.703 176.85 128.388 180.511 129.093 184.193L129.63 186.934L130.167 189.675L130.742 192.417C130.927 193.337 131.131 194.238 131.335 195.158C131.724 196.979 132.15 198.8 132.558 200.62C132.984 202.441 133.41 204.242 133.873 206.043C134.318 207.844 134.8 209.644 135.263 211.445C135.764 213.246 136.227 215.027 136.764 216.808C137.264 218.588 137.82 220.369 138.358 222.15L139.21 224.791L139.433 225.452L139.655 226.112L140.1 227.432L140.563 228.753L141.045 230.054C141.36 230.914 141.675 231.794 142.027 232.655L142.546 233.935L142.805 234.576L142.935 234.896L143.065 235.216L144.158 237.757C144.176 237.777 144.158 237.817 144.139 237.837C144.121 237.857 144.084 237.837 144.065 237.817C142.49 234.476 141.1 231.034 139.822 227.553L139.34 226.252L139.099 225.592L138.877 224.931L137.969 222.29C137.394 220.529 136.801 218.749 136.282 216.968C135.726 215.187 135.226 213.406 134.707 211.605C134.207 209.805 133.707 208.024 133.243 206.203C132.762 204.402 132.317 202.581 131.854 200.78C131.409 198.96 130.964 197.159 130.556 195.338C129.704 191.696 128.907 188.055 128.148 184.393C127.388 180.731 126.684 177.07 126.054 173.368L125.59 170.607L125.146 167.846C124.868 166.005 124.59 164.144 124.33 162.303C123.811 158.602 123.348 154.88 122.996 151.158C122.996 151.138 123.015 151.098 123.033 151.098C123.07 151.078 123.089 151.098 123.089 151.138Z" fill="#BCBCBC"/>
<path d="M124.868 149.777C125.905 153.399 126.887 157.041 127.851 160.682C128.333 162.503 128.815 164.324 129.296 166.145L130.705 171.627C131.631 175.289 132.539 178.95 133.392 182.612L136.004 193.617L141.267 215.627L146.474 237.657C146.474 237.677 146.455 237.717 146.437 237.717C146.418 237.717 146.381 237.717 146.381 237.677L140.785 215.747L135.245 193.817L132.446 182.852C131.52 179.191 130.612 175.529 129.741 171.867L128.444 166.365C128.018 164.524 127.592 162.683 127.184 160.842C126.35 157.161 125.535 153.479 124.775 149.777C124.775 149.757 124.793 149.717 124.812 149.717C124.83 149.737 124.849 149.757 124.868 149.777Z" fill="#BCBCBC"/>
<path d="M111.915 149.977C111.433 150.778 110.896 151.538 110.358 152.278C109.802 153.019 109.228 153.739 108.635 154.439C107.449 155.84 106.189 157.18 104.855 158.441C102.223 160.982 99.3328 163.223 96.3123 165.204C93.2918 167.185 90.0861 168.846 86.7877 170.206C85.1385 170.887 83.4707 171.507 81.766 172.047C80.0797 172.587 78.3564 173.068 76.633 173.468C74.9097 173.888 73.1679 174.208 71.426 174.488L70.1104 174.688L69.7768 174.728L69.4433 174.768L68.7947 174.848C67.9238 174.968 67.0343 175.028 66.1634 175.129C65.7187 175.169 65.2925 175.189 64.8477 175.229L64.1806 175.269C63.9583 175.289 63.7359 175.289 63.5135 175.309L62.1979 175.369C61.7532 175.389 61.3084 175.389 60.8822 175.389C60.0113 175.409 59.1218 175.389 58.2509 175.389C58.0285 175.389 57.8062 175.389 57.5838 175.369L56.9167 175.349C56.472 175.329 56.0458 175.329 55.6011 175.309C52.0803 175.129 48.578 174.728 45.1129 174.148C44.6867 174.088 44.2419 174.008 43.8157 173.928L42.5186 173.688C42.2963 173.648 42.0924 173.608 41.8701 173.568L41.2215 173.428L39.9244 173.148C39.072 172.948 38.201 172.747 37.3486 172.547L34.7914 171.887C34.7729 171.887 34.7544 171.847 34.7544 171.827C34.7544 171.807 34.7915 171.787 34.81 171.787L37.3857 172.387C38.2381 172.567 39.109 172.747 39.9614 172.928L41.2586 173.168L41.9071 173.288C42.1295 173.328 42.3333 173.368 42.5557 173.408L43.8528 173.628C44.279 173.708 44.7237 173.768 45.1499 173.828C48.6151 174.328 52.1174 174.668 55.6196 174.768C56.0643 174.788 56.4905 174.788 56.9352 174.788L57.5838 174.808C57.8062 174.808 58.0285 174.808 58.2324 174.808C59.1033 174.788 59.9742 174.808 60.8637 174.768C61.3084 174.748 61.7346 174.748 62.1794 174.728L63.495 174.648C63.7174 174.628 63.9397 174.628 64.1436 174.608L64.7921 174.548C65.2369 174.508 65.6631 174.468 66.1078 174.428C66.9787 174.328 67.8496 174.248 68.7206 174.108L69.3691 174.028L69.7027 173.988L70.0177 173.928L71.3148 173.708C73.0382 173.408 74.7615 173.048 76.4477 172.607C78.1525 172.167 79.8203 171.667 81.488 171.107C83.1557 170.546 84.7864 169.906 86.3985 169.186C89.6228 167.785 92.773 166.144 95.7749 164.244C97.2759 163.303 98.7583 162.283 100.185 161.222C100.908 160.702 101.612 160.142 102.316 159.582C103.002 159.001 103.706 158.441 104.373 157.841C104.707 157.541 105.04 157.241 105.374 156.94C105.707 156.64 106.041 156.32 106.356 156C107.004 155.38 107.653 154.739 108.264 154.079C108.894 153.419 109.506 152.738 110.099 152.058C110.395 151.718 110.692 151.358 110.97 150.998C111.248 150.638 111.544 150.277 111.804 149.897C111.822 149.877 111.859 149.877 111.878 149.877C111.915 149.937 111.933 149.957 111.915 149.977Z" fill="#BCBCBC"/>
<path d="M107.097 146.236C105.596 147.276 104.058 148.216 102.501 149.137C100.945 150.057 99.3697 150.938 97.7761 151.798C96.1825 152.658 94.5889 153.459 92.9582 154.259C91.346 155.04 89.7154 155.8 88.0662 156.54C87.2508 156.9 86.417 157.261 85.5831 157.601C85.1754 157.781 84.7492 157.941 84.3416 158.121C83.9339 158.281 83.5077 158.461 83.1 158.621C81.4323 159.281 79.746 159.882 78.0598 160.482C74.6687 161.642 71.2591 162.683 67.7939 163.583C60.9006 165.384 53.8591 166.625 46.762 167.045C43.2227 167.245 39.6648 167.245 36.1255 166.985L34.7913 166.885C34.3466 166.845 33.9019 166.805 33.4757 166.745L32.8086 166.685L32.1415 166.605C31.6968 166.545 31.252 166.505 30.8258 166.425C29.0654 166.165 27.3236 165.824 25.5817 165.444C25.5632 165.444 25.5447 165.404 25.5447 165.384C25.5447 165.364 25.5817 165.344 25.6003 165.344C27.3421 165.684 29.084 165.984 30.8444 166.205C31.2891 166.265 31.7153 166.305 32.16 166.365L32.8271 166.445L33.4942 166.505C33.9389 166.545 34.3837 166.585 34.8099 166.605L36.1255 166.685C39.6463 166.865 43.1856 166.805 46.7249 166.525C53.7664 166.004 60.7524 164.644 67.5901 162.763C69.2949 162.283 70.9997 161.783 72.686 161.222C74.3722 160.682 76.0585 160.102 77.7262 159.482C79.394 158.881 81.0617 158.241 82.7294 157.581C83.1371 157.421 83.5633 157.26 83.971 157.08L85.2125 156.58C86.0464 156.24 86.8617 155.9 87.677 155.56C89.3262 154.879 90.9569 154.159 92.5876 153.419C94.2183 152.678 95.8304 151.918 97.4425 151.138L98.647 150.557L99.8515 149.957C100.648 149.557 101.445 149.157 102.242 148.737C103.836 147.916 105.429 147.056 106.986 146.176C107.004 146.156 107.041 146.176 107.06 146.196C107.134 146.176 107.134 146.216 107.097 146.236Z" fill="#BCBCBC"/>
<path d="M110.21 149.457C109.525 150.077 108.82 150.638 108.116 151.198C107.394 151.758 106.671 152.298 105.948 152.839C104.484 153.899 102.983 154.92 101.445 155.88C99.9258 156.841 98.3507 157.761 96.7756 158.641C95.2005 159.522 93.6069 160.342 91.9763 161.122C88.7334 162.683 85.4165 164.064 82.044 165.224C80.3577 165.805 78.6529 166.345 76.9481 166.845C75.2433 167.345 73.52 167.785 71.7781 168.186C68.313 169.006 64.8107 169.626 61.2899 170.046L59.9743 170.207C59.5296 170.247 59.0848 170.287 58.6586 170.327L57.9915 170.387L57.3244 170.447L56.0088 170.547C55.1193 170.587 54.2484 170.647 53.3589 170.667C52.9142 170.687 52.4695 170.707 52.0248 170.707L50.6906 170.727C50.2458 170.727 49.8011 170.727 49.3564 170.727C48.9117 170.727 48.4669 170.727 48.0222 170.707C47.1327 170.667 46.2618 170.647 45.3724 170.587C43.612 170.507 41.8516 170.327 40.0912 170.146L38.7755 169.986L38.1084 169.906L37.4599 169.806L36.1442 169.606C35.6995 169.546 35.2733 169.466 34.8286 169.386C33.9576 169.246 33.0867 169.066 32.2158 168.886C31.7896 168.806 31.3449 168.706 30.9187 168.606L29.6215 168.306C29.603 168.306 29.5845 168.266 29.5845 168.246C29.5845 168.226 29.6215 168.206 29.6401 168.206L30.9372 168.466C31.3634 168.546 31.8081 168.646 32.2343 168.706C33.1052 168.866 33.9762 169.026 34.8471 169.146C35.2918 169.206 35.718 169.286 36.1628 169.346L37.4784 169.506L38.127 169.586L38.7941 169.646L40.1097 169.786C41.8701 169.946 43.6305 170.066 45.3909 170.126C46.2618 170.166 47.1513 170.167 48.0407 170.187C48.4855 170.187 48.9302 170.187 49.3564 170.187C49.8011 170.187 50.2458 170.186 50.672 170.166L51.9877 170.126C52.4324 170.106 52.8586 170.086 53.3034 170.066C54.1743 170.026 55.0637 169.966 55.9347 169.906L57.2503 169.786L57.8989 169.726L58.5474 169.646C58.9922 169.606 59.4184 169.546 59.8631 169.506L61.1788 169.326C64.6625 168.846 68.1462 168.186 71.5558 167.325C73.2606 166.885 74.9654 166.425 76.6702 165.905C78.3564 165.384 80.0427 164.804 81.6919 164.204C83.3596 163.604 85.0088 162.943 86.6395 162.263C87.4548 161.923 88.2702 161.583 89.0855 161.222C89.4932 161.042 89.9008 160.862 90.3085 160.682C90.7162 160.502 91.1239 160.322 91.513 160.122C93.1251 159.382 94.7373 158.601 96.3124 157.781C97.906 156.961 99.4625 156.1 101.019 155.22C101.797 154.78 102.557 154.319 103.335 153.859C104.095 153.399 104.873 152.919 105.615 152.439C106.374 151.958 107.116 151.458 107.875 150.958C108.246 150.698 108.617 150.438 108.987 150.178C109.358 149.917 109.728 149.657 110.08 149.377C110.099 149.357 110.136 149.357 110.155 149.397C110.229 149.417 110.229 149.437 110.21 149.457Z" fill="#BCBCBC"/>
<path d="M105.707 144.395C104.077 145.175 102.409 145.895 100.741 146.596C99.9073 146.956 99.0734 147.276 98.221 147.616L96.9609 148.116C96.5347 148.276 96.1271 148.437 95.7009 148.597L94.4408 149.077C94.0146 149.237 93.5884 149.397 93.1622 149.537L91.8836 149.997L90.605 150.457C89.7526 150.758 88.9002 151.058 88.0478 151.338C87.1954 151.638 86.343 151.918 85.4721 152.198L84.175 152.618L82.8779 153.019L81.5807 153.419L80.2836 153.799C79.4127 154.059 78.5603 154.299 77.6893 154.539C76.8184 154.779 75.9475 155.019 75.0766 155.24L72.4638 155.9L69.8325 156.54C68.9615 156.76 68.0721 156.94 67.2012 157.16L65.8855 157.461C65.4408 157.561 65.0146 157.641 64.5698 157.741C61.0491 158.521 57.5283 159.161 53.9705 159.762C53.081 159.902 52.1916 160.042 51.3021 160.182L48.6337 160.562C47.7443 160.702 46.8548 160.782 45.9654 160.902C45.0759 161.002 44.1864 161.122 43.297 161.202L40.6101 161.462C39.7206 161.542 38.8312 161.582 37.9232 161.662L36.589 161.763L35.2548 161.823L33.9206 161.883C33.4759 161.903 33.0311 161.923 32.5864 161.923C29.0101 162.023 25.4152 161.963 21.8388 161.763C21.8203 161.763 21.7832 161.743 21.7832 161.702C21.7832 161.682 21.8017 161.642 21.8388 161.642L24.5257 161.702L25.1928 161.722H25.5263H25.8599L27.1941 161.702H28.5283H29.1954L29.8624 161.682L32.5494 161.582C32.9941 161.562 33.4388 161.542 33.8835 161.502L35.2177 161.422L36.5519 161.342L37.8861 161.222C38.7756 161.142 39.665 161.062 40.5545 160.982L43.2228 160.682C44.1123 160.602 45.0018 160.462 45.8912 160.342C46.7807 160.222 47.6701 160.122 48.5411 159.962L51.1909 159.542C52.0804 159.401 52.9513 159.241 53.8408 159.081C57.3615 158.441 60.8823 157.741 64.366 156.92C67.8497 156.1 71.3334 155.22 74.7986 154.239C76.5219 153.759 78.2638 153.259 79.9686 152.738L81.2657 152.358L82.5628 151.978L83.86 151.598L85.1571 151.198C92.0319 149.097 98.8696 146.816 105.633 144.295C105.652 144.295 105.689 144.295 105.689 144.335C105.744 144.355 105.726 144.395 105.707 144.395Z" fill="#BCBCBC"/>
<path d="M104.095 142.794C100.593 143.635 97.0904 144.435 93.5697 145.195C91.8093 145.595 90.0489 145.956 88.2885 146.336L83.0073 147.436L80.3575 147.976L77.7077 148.497L72.408 149.517L61.8086 151.498L40.6284 155.52L19.4296 159.482C19.4111 159.482 19.374 159.462 19.374 159.442C19.374 159.422 19.3926 159.382 19.4111 159.382L40.5357 155L61.6603 150.658L72.2227 148.477L77.5038 147.396L80.1537 146.876L82.8035 146.376L88.1032 145.395C89.8636 145.075 91.6425 144.755 93.4029 144.455C96.9422 143.835 100.481 143.234 104.039 142.694C104.058 142.694 104.095 142.714 104.095 142.734C104.132 142.754 104.113 142.774 104.095 142.794Z" fill="#BCBCBC"/>
<path d="M40.3691 27.9626L99.2401 101.716C99.2401 101.716 89.2892 116.062 101.149 121.925L4.75366 145.375L12.5179 125.126C12.5179 125.126 56.4349 103.256 90.1602 111.22C90.1602 111.22 47.2438 99.0346 32.8828 51.093L40.3691 27.9626Z" fill="#FEFEFE"/>
<path d="M2.99326 149.317C1.64054 149.317 0.417538 148.317 0.083991 146.836C-0.305147 145.095 0.695494 143.355 2.30764 142.934L98.017 118.363C98.5174 118.243 99.0362 118.243 99.518 118.403C104.836 120.004 109.358 119.764 111.322 117.743C112.545 116.503 112.841 114.362 112.23 111.4C111.581 108.259 109.969 105.858 107.671 104.617C105.503 103.437 102.928 103.457 100.426 104.677C99.2215 105.257 97.7947 104.917 96.9237 103.837L36.5332 27.9227C35.4585 26.5621 35.6067 24.5212 36.8483 23.3607C38.1083 22.2002 39.9984 22.3603 41.0732 23.7009L100.111 97.9142C103.613 96.8137 107.19 97.1138 110.34 98.8146C114.213 100.916 117.029 104.977 118.067 109.98C119.438 116.643 117.381 120.424 115.417 122.425C113.175 124.726 109.839 125.887 105.8 125.887C103.595 125.887 101.186 125.527 98.6285 124.826L3.67889 149.217C3.45652 149.277 3.21563 149.317 2.99326 149.317Z" fill="#D03838"/>
<path d="M33.5313 70.0214C33.4202 70.9018 33.4016 71.8022 33.4016 72.7026C33.4202 73.603 33.4572 74.5034 33.5499 75.3838C33.7166 77.1646 34.0502 78.9454 34.4949 80.6662C34.9582 82.387 35.5511 84.0677 36.2553 85.6884C36.6259 86.4888 37.015 87.2892 37.4227 88.0495C37.8489 88.8098 38.2936 89.5702 38.7754 90.2905C40.7026 93.2118 43.0745 95.753 45.7243 97.9139C48.3742 100.075 51.2649 101.836 54.3039 103.296C57.3429 104.757 60.493 105.898 63.6988 106.798C66.9045 107.718 70.1844 108.399 73.4643 108.899C76.7627 109.399 80.0796 109.739 83.3966 109.919C86.7135 110.119 90.049 110.179 93.3845 110.159L93.3103 111.72C92.8471 111.66 92.4209 111.62 91.9576 111.54C91.5129 111.48 91.0682 111.4 90.6234 111.34C89.734 111.2 88.863 111.04 87.9736 110.88C86.2132 110.54 84.4713 110.159 82.7295 109.739C80.9876 109.319 79.2643 108.839 77.541 108.339C75.8177 107.838 74.1129 107.278 72.4081 106.678C70.7033 106.078 69.017 105.437 67.3493 104.737C66.5154 104.397 65.6815 104.017 64.8662 103.657C64.0323 103.276 63.217 102.876 62.4017 102.476C60.771 101.676 59.1774 100.775 57.6023 99.8348C56.0272 98.8944 54.4892 97.8739 53.0068 96.7734C51.5243 95.6729 50.0604 94.5124 48.6707 93.2719C47.2809 92.0313 45.9467 90.6907 44.7051 89.2901C42.2035 86.4688 39.9984 83.3274 38.2566 79.9058C37.8304 79.0455 37.4227 78.1651 37.0521 77.2847C36.6815 76.4043 36.3294 75.5039 36.0144 74.5835C35.6994 73.663 35.4214 72.7426 35.1805 71.8022C34.9396 70.8618 34.7173 69.9214 34.532 68.9809C34.3467 68.0405 34.1984 67.0801 34.0872 66.1197C33.9761 65.1592 33.8834 64.1988 33.8278 63.2384C33.7166 61.3175 33.7352 59.3766 33.8464 57.4758C33.8464 57.4158 33.9019 57.3757 33.9575 57.3757C34.0131 57.3757 34.0502 57.4358 34.0502 57.4758C34.1428 61.2975 34.5876 65.0992 35.4956 68.7408C35.9403 70.5616 36.5333 72.3425 37.2003 74.0832C37.5339 74.9436 37.9045 75.804 38.3122 76.6444C38.7013 77.4848 39.1275 78.3051 39.5908 79.1055C41.3697 82.3269 43.5748 85.2482 46.0579 87.8894C46.6694 88.5497 47.3179 89.19 47.9665 89.8103C48.6151 90.4306 49.2822 91.0308 49.9678 91.6311C51.3205 92.8116 52.7288 93.9121 54.1927 94.9526C55.6381 95.9931 57.139 96.9735 58.6585 97.8939C59.4183 98.3541 60.178 98.8143 60.9563 99.2345C61.7346 99.6747 62.5128 100.095 63.3097 100.495C66.4598 102.136 69.7212 103.576 73.0381 104.837C74.6873 105.457 76.3736 106.038 78.0598 106.578C79.7461 107.118 81.4509 107.598 83.1557 108.058C84.8605 108.499 86.5838 108.899 88.3257 109.259C89.1966 109.439 90.049 109.599 90.9199 109.759C91.3461 109.839 91.7908 109.899 92.217 109.979C92.6432 110.039 93.088 110.119 93.5142 110.159L93.44 111.72C90.086 111.72 86.7135 111.6 83.3595 111.36C80.0055 111.12 76.6515 110.72 73.3346 110.159C70.0176 109.599 66.7007 108.859 63.4579 107.878C60.2151 106.898 57.0279 105.697 53.9703 104.157C50.9128 102.616 47.985 100.775 45.3167 98.5142C42.6483 96.2732 40.2764 93.632 38.3492 90.6307C36.4221 87.6293 34.9952 84.2878 34.1243 80.7662C33.6981 79.0054 33.4016 77.2046 33.2534 75.4038C33.1793 74.5034 33.1422 73.583 33.1607 72.6826C33.1793 71.7822 33.2163 70.8618 33.3275 69.9614C33.3275 69.9014 33.3831 69.8613 33.4387 69.8613C33.4943 69.9014 33.5313 69.9414 33.5313 70.0214Z" fill="#FEFEFE"/>
<path d="M94.2738 108.839C92.6987 107.919 91.1607 106.898 89.6227 105.878C88.1032 104.837 86.5837 103.777 85.1013 102.676C83.6003 101.596 82.1364 100.455 80.6911 99.3148C79.2457 98.1743 77.8003 96.9938 76.3735 95.7932C75.6693 95.1929 74.9652 94.5927 74.261 93.9724C73.9089 93.6723 73.5569 93.3521 73.2233 93.052C72.8712 92.7519 72.5377 92.4317 72.1856 92.1116C70.8144 90.851 69.4617 89.5704 68.1275 88.2698C65.4591 85.6487 62.8648 82.9475 60.3632 80.1462C55.3415 74.5637 50.6719 68.601 46.5581 62.1981C44.5012 58.9967 42.6111 55.6952 40.8878 52.2737C40.0354 50.5729 39.2201 48.8321 38.4603 47.0713C37.7006 45.3105 37.015 43.5097 36.3664 41.6889C36.3479 41.6689 36.3664 41.6289 36.4035 41.6289C36.422 41.6089 36.4591 41.6289 36.4591 41.6489C37.1447 43.4497 37.8674 45.2105 38.6456 46.9713C39.4425 48.7121 40.2578 50.4329 41.1472 52.1136C42.9076 55.4951 44.8533 58.7566 46.9473 61.898C51.1166 68.2008 55.8418 74.0635 60.9006 79.5459C62.1607 80.9065 63.4578 82.2671 64.7735 83.5877C66.0891 84.9083 67.4233 86.2089 68.7575 87.4895C70.0917 88.7701 71.4629 90.0306 72.8342 91.2712C73.1677 91.5913 73.5198 91.8915 73.8719 92.2116L74.9096 93.132C75.5952 93.7523 76.2994 94.3526 76.985 94.9729C78.3748 96.1934 79.7831 97.3939 81.2099 98.5745C82.6182 99.755 84.0636 100.916 85.509 102.076C86.2316 102.656 86.9543 103.217 87.677 103.797C88.3997 104.357 89.1409 104.917 89.8636 105.478C91.3275 106.598 92.8099 107.699 94.3109 108.759C94.3294 108.779 94.348 108.799 94.3294 108.839C94.3294 108.839 94.3109 108.859 94.2738 108.839Z" fill="#BCBCBC"/>
<path d="M93.3845 111C91.6797 110.4 89.9934 109.659 88.3442 108.899C87.5104 108.519 86.695 108.118 85.8797 107.698C85.0644 107.278 84.249 106.858 83.4522 106.418C81.8401 105.557 80.2465 104.617 78.6714 103.677C77.0963 102.716 75.5583 101.716 74.0388 100.655C67.9423 96.4733 62.3091 91.5311 57.1947 86.0286C52.0803 80.5261 47.5218 74.4034 43.8157 67.7404C40.1097 61.0574 37.2931 53.8141 35.4956 46.2907C35.4956 46.2707 35.4956 46.2307 35.5327 46.2307C35.5512 46.2307 35.5883 46.2307 35.5883 46.2707L35.9774 47.6714L36.1627 48.3717C36.2368 48.6118 36.2924 48.8319 36.3665 49.072L36.7742 50.4526C36.9224 50.9128 37.0707 51.373 37.2189 51.8132L37.4413 52.4935C37.5154 52.7136 37.6081 52.9537 37.6822 53.1738L38.164 54.5344C38.3307 54.9746 38.516 55.4348 38.6828 55.875L38.9423 56.5554C39.0349 56.7755 39.1276 56.9956 39.2202 57.2156L39.7761 58.5362L40.3506 59.8368L40.647 60.4971L40.9621 61.1374L41.5736 62.438C41.9998 63.2784 42.426 64.1388 42.8707 64.9791L43.2042 65.5994C43.3154 65.7995 43.4266 66.0196 43.5378 66.2197L44.2419 67.4603C48.0221 74.0432 52.6177 80.0459 57.7506 85.4283C59.0477 86.7689 60.3634 88.0695 61.7161 89.3501C63.0688 90.6106 64.4586 91.8312 65.8669 93.0117C67.2752 94.2123 68.702 95.3528 70.1659 96.4733C70.8886 97.0335 71.6298 97.5938 72.3711 98.134C72.7417 98.4141 73.1123 98.6743 73.4829 98.9544C73.8535 99.2345 74.2241 99.4946 74.5947 99.7547C76.0771 100.815 77.5966 101.856 79.1346 102.856C80.6727 103.857 82.2292 104.817 83.7858 105.757C85.3608 106.698 86.9359 107.598 88.5481 108.459C90.1602 109.319 91.7724 110.139 93.4401 110.9C93.4586 110.92 93.4772 110.94 93.4586 110.98C93.4401 111 93.4216 111 93.3845 111Z" fill="#BCBCBC"/>
<path d="M95.3671 106.678C93.9217 105.517 92.5134 104.297 91.1051 103.056C90.401 102.436 89.7153 101.816 89.0112 101.196L87.9735 100.255C87.6214 99.935 87.2878 99.6148 86.9543 99.3147L85.9351 98.3542L84.916 97.3938L83.8968 96.4334L82.8962 95.4529C82.2291 94.8127 81.562 94.1524 80.8949 93.4921C80.2278 92.8318 79.5607 92.1715 78.9121 91.5112L77.93 90.5107L76.9479 89.4903L75.9658 88.4698L75.0022 87.4493C74.3536 86.769 73.7236 86.0687 73.0936 85.3884C72.4636 84.6881 71.8335 84.0078 71.2035 83.3075L69.3319 81.1865L67.4789 79.0456C66.8488 78.3453 66.2559 77.6249 65.6444 76.9046L64.7364 75.8241C64.4214 75.464 64.1249 75.1038 63.8284 74.7436C61.4009 71.8623 59.0476 68.901 56.7313 65.9197L55.0079 63.6587L53.3217 61.3776C52.7472 60.6173 52.2098 59.8369 51.6539 59.0766L50.8201 57.9161C50.6904 57.716 50.5421 57.5359 50.4124 57.3358L50.0047 56.7556L48.3926 54.4145C47.8552 53.6342 47.3364 52.8338 46.8175 52.0334L46.0392 50.8529L45.2795 49.6524L44.5197 48.4518L44.1306 47.8516L43.9453 47.5514L43.76 47.2513C41.7587 44.0098 39.8686 40.6884 38.0897 37.3068C38.0712 37.2868 38.0897 37.2468 38.1082 37.2268C38.1268 37.2068 38.1638 37.2268 38.1824 37.2468L39.5907 39.7279L39.9427 40.3482L40.128 40.6683L40.3134 40.9685L41.0546 42.189L41.7772 43.4096L42.1479 44.0298L42.5185 44.6301L44.038 47.0512L44.2233 47.3513L44.4271 47.6515L44.8162 48.2517L45.5945 49.4323L46.3728 50.6128L47.1696 51.7933C47.707 52.5737 48.2443 53.354 48.7817 54.1344L50.4309 56.4354L50.8386 57.0157C50.9683 57.2158 51.1166 57.3958 51.2648 57.5959L52.0987 58.7365C52.6546 59.4968 53.2105 60.2571 53.7849 60.9975L55.5083 63.2385L57.2501 65.4595C59.5849 68.4008 61.9754 71.3221 64.4399 74.1634C66.8859 77.0047 69.3875 79.8059 71.9262 82.5471C73.2048 83.9278 74.4648 85.2884 75.762 86.649L76.7255 87.6695L77.6891 88.6899L78.6527 89.7104L79.6163 90.7308C84.7863 96.1333 90.0489 101.436 95.4412 106.618C95.4598 106.638 95.4598 106.678 95.4412 106.698C95.4227 106.698 95.3856 106.698 95.3671 106.678Z" fill="#BCBCBC"/>
<path d="M96.5346 104.797C94.0144 101.996 91.5314 99.1545 89.0668 96.2932C87.8253 94.8726 86.6023 93.4319 85.3793 91.9913L81.7103 87.6693L79.8943 85.5084L78.0783 83.3274L74.4834 78.9454L67.3122 70.1615L52.9326 52.6136L38.5901 35.0257C38.5715 35.0057 38.5715 34.9657 38.5901 34.9457C38.6086 34.9257 38.6457 34.9257 38.6642 34.9457L53.3032 52.2534L67.9051 69.6012L75.2246 78.2651L78.8566 82.6071L80.6726 84.788L82.47 86.989L86.0464 91.391C87.2323 92.8717 88.4183 94.3323 89.6042 95.813C91.9761 98.7743 94.3109 101.736 96.6272 104.757C96.6457 104.777 96.6457 104.817 96.6272 104.837C96.5902 104.817 96.5531 104.817 96.5346 104.797Z" fill="#BCBCBC"/>
<path d="M94.1255 112.681C92.291 112.601 90.4565 112.561 88.622 112.561C86.7875 112.541 84.953 112.561 83.1185 112.581C81.284 112.621 79.4495 112.661 77.6149 112.741C75.7804 112.821 73.9459 112.921 72.1114 113.041C71.2034 113.101 70.2769 113.161 69.3689 113.241L67.9977 113.361L66.6264 113.481C64.7919 113.641 62.9759 113.821 61.16 114.041C57.5095 114.461 53.8775 115.002 50.2641 115.722C43.0558 117.143 35.9216 119.144 29.0839 121.985C28.8615 122.065 28.6577 122.165 28.4353 122.245L27.8053 122.525L27.1752 122.805L26.5452 123.085C26.119 123.285 25.6928 123.465 25.2851 123.666L24.0251 124.266C22.3574 125.106 20.7081 125.987 19.1145 126.927C17.5024 127.887 15.9273 128.908 14.3893 129.988C12.8513 131.089 11.3688 132.249 9.92347 133.47C9.90494 133.49 9.86788 133.49 9.84935 133.47C9.83082 133.45 9.83082 133.41 9.84935 133.39C11.2762 132.129 12.7401 130.929 14.2596 129.808C15.7791 128.688 17.3542 127.647 18.9478 126.647C20.5414 125.666 22.1906 124.746 23.8398 123.866L25.0813 123.225C25.5075 123.025 25.9152 122.825 26.3414 122.605L26.9714 122.305L27.6014 122.025L28.2315 121.745C28.4353 121.645 28.6577 121.545 28.88 121.465C35.7178 118.483 42.8705 116.382 50.0973 114.842C51.9133 114.461 53.7293 114.121 55.5453 113.801C57.3612 113.481 59.1957 113.201 61.0303 112.961C62.8648 112.721 64.6993 112.501 66.5338 112.34L67.905 112.22L69.2763 112.12C70.2028 112.06 71.1108 112 72.0373 111.96C73.8718 111.88 75.7248 111.8 77.5594 111.78C79.3939 111.76 81.2469 111.76 83.0814 111.8C84.9159 111.84 86.7689 111.92 88.6035 112.04C90.438 112.16 92.2725 112.32 94.107 112.561C94.1255 112.561 94.1626 112.601 94.144 112.621C94.1811 112.661 94.1626 112.681 94.1255 112.681Z" fill="#BCBCBC"/>
<path d="M93.8848 115.122C90.1973 115.262 86.5283 115.602 82.8592 115.962L80.1167 116.262L78.7455 116.422L78.0599 116.502L77.3742 116.602C76.4663 116.722 75.5397 116.842 74.6317 116.962C73.7238 117.103 72.8158 117.223 71.8893 117.363C70.9813 117.503 70.0733 117.623 69.1653 117.783L67.794 118.003L67.1084 118.123L66.4228 118.243C65.5148 118.403 64.6068 118.543 63.6988 118.723L60.9749 119.223L58.2509 119.764L57.5653 119.904L56.8796 120.044L55.5269 120.344L54.1742 120.644L52.8215 120.964L51.4688 121.284C51.024 121.384 50.5608 121.485 50.1161 121.605L47.4292 122.285C46.9844 122.405 46.5397 122.525 46.095 122.645L44.7608 123.005L43.4266 123.365L42.0924 123.766C41.203 124.026 40.3135 124.286 39.424 124.566C37.6636 125.126 35.8847 125.666 34.1429 126.287L32.8272 126.747L32.1601 126.967L31.5116 127.207L28.8988 128.168L28.2502 128.408L27.6017 128.668L26.3045 129.168L25.0074 129.668L24.3588 129.928L23.7103 130.188L21.1346 131.269L20.486 131.529C20.2636 131.629 20.0598 131.709 19.856 131.809L18.5774 132.389L17.2988 132.97C16.8726 133.17 16.4464 133.35 16.0202 133.55L13.5 134.75L12.87 135.051C12.6662 135.151 12.4438 135.251 12.24 135.351L10.9984 135.991L8.49684 137.272C8.47831 137.292 8.44124 137.272 8.42271 137.252C8.40418 137.232 8.42272 137.192 8.44125 137.172C11.7397 135.391 15.0566 133.63 18.4662 132.089L19.7448 131.489C19.9486 131.389 20.171 131.289 20.3748 131.189L21.0234 130.909L23.5806 129.788L24.2291 129.508L24.8777 129.248L26.1748 128.708L27.4719 128.168L28.1205 127.907L28.7691 127.647L31.3819 126.647L32.0304 126.407L32.679 126.167L33.9946 125.686C35.7365 125.046 37.5154 124.466 39.2758 123.886C40.1653 123.605 41.0547 123.325 41.9442 123.045L43.2784 122.625L44.6125 122.245L45.9467 121.865C46.3915 121.745 46.8362 121.605 47.2809 121.485L49.9678 120.764C50.4126 120.644 50.8573 120.524 51.3205 120.404L52.6733 120.064L54.026 119.724L55.3787 119.404L56.7314 119.083L57.417 118.923L58.1027 118.783L60.8266 118.183L63.5506 117.643C64.0138 117.543 64.4586 117.483 64.9218 117.383L66.2931 117.143C68.1276 116.822 69.9436 116.542 71.7781 116.302C72.6861 116.182 73.6126 116.062 74.5391 115.962C75.4656 115.842 76.3736 115.762 77.3001 115.662C79.1346 115.482 80.9877 115.322 82.8222 115.202C84.6752 115.082 86.5097 115.002 88.3628 114.962C90.2158 114.922 92.0503 114.922 93.9033 115.002C93.9219 115.002 93.9589 115.022 93.9589 115.062C93.9404 115.102 93.9033 115.122 93.8848 115.122Z" fill="#BCBCBC"/>
<path d="M93.8662 117.383C90.3084 118.463 86.732 119.504 83.1742 120.504C81.3952 121.024 79.5978 121.505 77.8189 122.005L72.4451 123.465L69.7582 124.186L67.0713 124.886L61.6789 126.267L50.8942 128.988L29.3249 134.45L7.73699 139.873C7.71846 139.873 7.6814 139.853 7.6814 139.833C7.6814 139.813 7.69993 139.773 7.71846 139.773L29.2137 133.93L50.7275 128.148L61.4751 125.226L66.8489 123.786L69.5358 123.085L72.2412 122.405L77.6336 121.064C79.431 120.624 81.2285 120.184 83.0444 119.744C86.6579 118.883 90.2528 118.043 93.8847 117.243C93.9032 117.243 93.9403 117.263 93.9403 117.283C93.9032 117.343 93.8847 117.383 93.8662 117.383Z" fill="#BCBCBC"/>
</svg>
