<svg width="203" height="322" viewBox="0 0 203 322" fill="none" xmlns="http://www.w3.org/2000/svg">
<path d="M156.887 0L116.474 72.1082L19.2585 86.3388C8.06918 87.9529 -0.0595309 97.8682 0.532845 109.2L4.21874 179.266C4.87693 191.948 16.165 201.435 28.7694 199.92L183.182 181.176C196.938 179.496 205.725 165.661 201.381 152.485L177.949 81.4635C174.592 71.3506 164.489 65.0918 153.958 66.64L145.04 67.9576L156.887 0Z" fill="#F2A05D"/>
<path d="M65.4195 120.945C65.7629 121.338 66.0256 121.864 66.2076 122.524C66.6172 123.878 66.9143 125.289 67.0988 126.758C67.3168 128.182 67.5516 129.582 67.8031 130.96C68.0513 132.581 68.2966 134.182 68.5388 135.764C68.8206 137.34 69.0856 138.938 69.3339 140.559L70.106 145.6L72.6562 145.21C73.0911 145.143 73.5549 145.133 74.0476 145.179C74.5341 145.185 74.9933 145.277 75.425 145.453C75.8567 145.63 76.2382 145.875 76.5695 146.188C76.9008 146.502 77.1255 146.913 77.2438 147.421C77.4376 148.686 77.1754 149.616 76.4573 150.212C75.7331 150.768 74.8236 151.17 73.7286 151.419C73.6495 151.431 73.4746 151.478 73.2039 151.56C72.9667 151.596 72.6899 151.639 72.3736 151.687C72.0573 151.735 71.7607 151.781 71.4839 151.823C71.2467 151.86 71.1023 151.841 71.0506 151.768L71.6683 155.801C71.7349 156.236 71.8106 156.73 71.8954 157.284C71.9801 157.837 72.0254 158.397 72.0311 158.963C72.0307 159.489 71.9483 160.007 71.7837 160.518C71.6587 161.023 71.3999 161.447 71.0073 161.79C70.8278 161.939 70.586 162.077 70.2818 162.205C70.011 162.287 69.7008 162.375 69.351 162.469C69.0012 162.563 68.6484 162.637 68.2925 162.692C67.9701 162.701 67.6843 162.684 67.4349 162.641C66.6869 162.513 66.1565 162.088 65.8438 161.367C65.525 160.607 65.2745 159.896 65.0925 159.236C65.0744 159.118 65.0168 158.742 64.9199 158.109C64.817 157.437 64.711 156.745 64.602 156.034C64.487 155.282 64.3643 154.613 64.2339 154.026C64.1035 153.439 63.9988 153.152 63.9197 153.164L53.4814 154.762C52.3348 154.938 51.1258 155.103 49.8545 155.257C48.5832 155.412 47.4414 155.222 46.4291 154.689C45.6386 154.284 45.1357 153.775 44.9202 153.16C44.6986 152.506 44.6382 151.848 44.739 151.185C44.8733 150.476 45.1095 149.772 45.4475 149.073C45.7856 148.374 46.1129 147.737 46.4296 147.162C47.6232 144.916 48.7515 142.639 49.8144 140.331C50.9169 138.018 52.0224 135.724 53.1309 133.45C53.7582 132.261 54.4113 131.109 55.0902 129.993C55.8087 128.872 56.4618 127.72 57.0495 126.537C57.4759 125.622 57.9388 124.681 58.4382 123.714C58.9771 122.741 59.7045 121.942 60.6203 121.316C61.5026 120.736 62.3787 120.379 63.2486 120.246C64.1185 120.113 64.8421 120.346 65.4195 120.945ZM61.183 132.52L53.4632 147.906L63.3085 146.398L61.183 132.52ZM103.458 157.306C102.747 157.415 102.009 157.487 101.246 157.523C100.516 157.514 99.7738 157.425 99.0197 157.257C97.8856 156.986 96.7698 156.57 95.6723 156.01C94.6083 155.404 93.6113 154.707 92.6812 153.918C90.4563 152.074 88.6286 149.784 87.1981 147.049C85.7615 144.275 84.8131 141.385 84.3529 138.38C83.7231 134.268 83.9053 130.173 84.8995 126.096C85.0733 125.381 85.3202 124.615 85.6401 123.797C85.9995 122.973 86.4045 122.183 86.8551 121.426C87.3392 120.623 87.8354 119.9 88.3437 119.256C88.8915 118.605 89.4605 118.093 90.0508 117.719C90.8601 117.191 91.7485 116.65 92.7159 116.097C93.9206 115.508 95.3168 115.112 96.9044 114.909C98.492 114.707 99.9624 114.664 101.316 114.78C103.201 114.936 104.884 115.488 106.364 116.435C107.839 117.342 109.152 118.517 110.303 119.959C111.449 121.362 112.421 122.953 113.22 124.733C114.012 126.473 114.672 128.274 115.2 130.135C115.552 131.376 115.805 132.632 115.96 133.904C116.108 135.135 116.2 136.396 116.235 137.685C116.253 138.856 116.231 140.033 116.169 141.216C116.147 142.393 116.04 143.543 115.847 144.665C115.655 145.787 115.358 146.884 114.956 147.958C114.547 148.991 113.992 149.987 113.289 150.944C112.01 152.637 110.545 154.035 108.893 155.138C107.274 156.195 105.463 156.918 103.458 157.306ZM98.1034 122.738C97.5498 122.823 97.0054 122.967 96.47 123.17C95.9681 123.328 95.5041 123.602 95.0781 123.991C94.5791 124.431 94.1514 124.942 93.7952 125.522C93.439 126.103 93.1452 126.694 92.9136 127.296C92.3013 128.847 91.9611 130.457 91.8931 132.127C91.8251 133.796 91.9182 135.461 92.1725 137.122C92.4329 138.822 92.8803 140.554 93.5147 142.318C94.1887 144.077 95.1349 145.631 96.3535 146.982C96.937 147.622 97.5874 148.169 98.3048 148.626C99.0557 149.037 99.8843 149.295 100.79 149.399C101.611 149.475 102.411 149.413 103.19 149.213C104.008 149.007 104.74 148.632 105.385 148.088C106.423 147.201 107.187 146.112 107.677 144.823C108.168 143.534 108.465 142.173 108.569 140.741C108.713 139.303 108.693 137.849 108.509 136.38C108.364 134.905 108.161 133.581 107.9 132.406C107.639 131.232 107.251 130.017 106.735 128.761C106.218 127.505 105.562 126.391 104.766 125.42C104.01 124.444 103.066 123.698 101.935 123.183C100.837 122.623 99.5603 122.475 98.1034 122.738ZM146.093 108.59C146.436 108.983 146.699 109.509 146.881 110.169C147.291 111.522 147.588 112.934 147.772 114.403C147.99 115.826 148.225 117.227 148.476 118.605C148.725 120.226 148.97 121.827 149.212 123.409C149.494 124.984 149.759 126.582 150.007 128.203L150.779 133.245L153.33 132.854C153.765 132.787 154.228 132.777 154.721 132.823C155.208 132.83 155.667 132.921 156.098 133.098C156.53 133.274 156.912 133.519 157.243 133.833C157.574 134.146 157.799 134.557 157.917 135.065C158.111 136.33 157.849 137.261 157.131 137.856C156.407 138.412 155.497 138.815 154.402 139.063C154.323 139.075 154.148 139.122 153.877 139.204C153.64 139.241 153.363 139.283 153.047 139.332C152.731 139.38 152.434 139.425 152.157 139.468C151.92 139.504 151.776 139.486 151.724 139.413L152.342 143.446C152.408 143.881 152.484 144.375 152.569 144.928C152.654 145.482 152.699 146.042 152.704 146.607C152.704 147.133 152.622 147.652 152.457 148.163C152.332 148.667 152.073 149.091 151.681 149.435C151.501 149.584 151.259 149.722 150.955 149.849C150.684 149.931 150.374 150.019 150.024 150.113C149.675 150.207 149.322 150.282 148.966 150.336C148.644 150.345 148.358 150.328 148.108 150.285C147.36 150.157 146.83 149.733 146.517 149.012C146.198 148.251 145.948 147.541 145.766 146.881C145.748 146.762 145.69 146.387 145.593 145.754C145.49 145.082 145.384 144.39 145.275 143.678C145.16 142.927 145.038 142.258 144.907 141.671C144.777 141.084 144.672 140.796 144.593 140.808L134.155 142.407C133.008 142.583 131.799 142.748 130.528 142.902C129.257 143.056 128.115 142.867 127.102 142.334C126.312 141.929 125.809 141.419 125.594 140.805C125.372 140.151 125.312 139.492 125.412 138.829C125.547 138.121 125.783 137.417 126.121 136.718C126.459 136.018 126.786 135.382 127.103 134.807C128.297 132.56 129.425 130.283 130.488 127.976C131.59 125.662 132.696 123.369 133.804 121.094C134.432 119.906 135.085 118.754 135.764 117.638C136.482 116.516 137.135 115.364 137.723 114.182C138.149 113.266 138.612 112.326 139.112 111.359C139.651 110.386 140.378 109.587 141.294 108.961C142.176 108.381 143.052 108.024 143.922 107.891C144.792 107.757 145.515 107.991 146.093 108.59ZM141.856 120.165L134.137 135.551L143.982 134.043L141.856 120.165Z" fill="#FEFEFE"/>
<path d="M92.7131 47.2049C95.2472 43.3507 100.973 42.7907 104.923 44.9319C108.872 47.106 111.34 51.2566 113.051 55.4402C114.73 59.5249 115.849 63.8731 116.408 68.2543C116.836 71.5813 116.507 75.699 113.512 77.2472C111.406 78.3013 108.773 77.4778 107.062 75.8966C105.35 74.3155 104.396 72.1084 103.211 70.0331C103.54 73.0307 103.837 76.1602 102.784 79.026C101.763 81.8919 98.9331 84.3955 95.9383 84.0002C94.0953 83.7696 92.5157 82.4849 91.4955 80.9366C90.4753 79.3884 89.9158 77.5766 88.5665 75.8966C88.5007 75.9296 88.4678 75.9625 88.2374 76.0943C88.7969 78.2684 89.3234 80.5413 89.0272 82.7813C88.7311 85.0213 87.3818 87.3272 85.2426 88.0519C83.2351 88.7437 80.9644 87.8872 79.4176 86.4707C77.8708 85.0213 76.8835 83.1107 75.2381 81.4966C75.995 83.5719 76.7519 85.8119 76.1266 87.9531C75.3039 90.786 72.0458 92.499 69.1168 92.1366C66.2208 91.7743 63.7526 89.7978 62.1071 87.3602C60.4616 84.9225 59.6059 82.0896 58.125 79.3554C56.0517 80.6402 53.6164 81.3319 50.9178 81.4637C50.1279 77.3131 49.733 73.0966 49.7001 68.8472C49.6672 65.9484 49.8976 62.819 51.6418 60.4802C53.386 58.1084 56.4466 56.9555 59.3427 56.9555C62.2387 56.9555 65.069 57.9437 67.4055 59.7884C67.3726 59.7225 67.3397 59.6896 67.3397 59.6237C65.4968 56.3625 66.7473 51.6519 70.0383 49.6755C73.2964 47.7319 78.0025 48.8519 80.2403 51.8825C78.6607 50.0049 78.8581 46.9743 80.4378 45.0637C82.0175 43.1531 84.7819 42.3955 87.1514 42.9884C89.5538 43.6143 91.4955 45.426 92.7131 47.2049Z" fill="#FFBD9B"/>
<path d="M105.449 73.2945C105.285 73.2945 105.087 73.1957 105.021 73.031C103.014 69.111 105.219 64.7298 108.378 62.918C110.649 61.6004 113.907 61.4686 116.145 64.9933C116.276 65.2239 116.211 65.5204 115.98 65.6851C115.75 65.8169 115.454 65.751 115.289 65.5204C113.677 63.0169 111.274 62.358 108.839 63.7745C106.042 65.3886 104.199 69.3086 105.877 72.5698C106.009 72.8004 105.91 73.0969 105.647 73.2286C105.614 73.2616 105.515 73.2945 105.449 73.2945Z" fill="#2F3836"/>
<path d="M91.7257 79.9812C91.5283 79.9812 91.3308 79.8494 91.265 79.6518C89.2575 74.48 91.1004 70.2965 93.6674 68.5506C96.3989 66.7388 99.8873 67.3318 102.816 70.0988C103.014 70.2965 103.014 70.593 102.849 70.7906C102.652 70.9882 102.356 70.9883 102.158 70.8235C99.5582 68.353 96.5964 67.793 94.2598 69.3741C92.0219 70.8894 90.4093 74.6447 92.2194 79.2894C92.3181 79.553 92.1865 79.8165 91.9232 79.9153C91.8574 79.9812 91.7915 79.9812 91.7257 79.9812Z" fill="#2F3836"/>
<path d="M79.1214 85.8448C78.9568 85.8448 78.7594 85.746 78.6936 85.5813C76.0937 80.6072 77.2784 75.2048 80.0099 73.2942C81.1289 72.5037 84.1895 71.186 88.369 75.7648C88.5665 75.9625 88.5336 76.2919 88.3361 76.4566C88.1387 76.6542 87.8096 76.6213 87.645 76.4237C85.078 73.5907 82.5111 72.7672 80.6023 74.0848C78.2328 75.7648 77.2455 80.5742 79.615 85.1201C79.7467 85.3507 79.6479 85.6472 79.4176 85.779C79.2859 85.8119 79.1872 85.8448 79.1214 85.8448Z" fill="#2F3836"/>
<path d="M65.9246 90.8518C65.76 90.8518 65.6284 90.7859 65.5297 90.6541C63.4893 87.7883 63.0943 84.3624 64.4766 81.4965C65.4968 79.3224 67.4055 77.9059 69.4459 77.7741C71.6509 77.6424 73.7571 78.96 75.4026 81.4965C75.5671 81.7271 75.5013 82.0236 75.271 82.1883C75.0406 82.353 74.7444 82.2871 74.5799 82.0565C73.1318 79.8165 71.3218 78.6636 69.5117 78.7953C67.8334 78.8941 66.2208 80.113 65.3651 81.9577C64.1475 84.4941 64.5424 87.5247 66.3524 90.0941C66.517 90.3247 66.4511 90.6212 66.2208 90.7859C66.122 90.8518 66.0233 90.8518 65.9246 90.8518Z" fill="#2F3836"/>
<path d="M75.0078 76.3909C74.7445 76.3909 74.5141 76.1603 74.5141 75.8968C74.4812 69.8356 71.7497 63.9062 67.1424 60.0521C66.9449 59.8874 66.912 59.558 67.0765 59.3603C67.2411 59.1627 67.5702 59.1297 67.7677 59.2944C72.5725 63.3462 75.4685 69.5391 75.4685 75.8968C75.5014 76.1932 75.2711 76.3909 75.0078 76.3909Z" fill="#2F3836"/>
<path d="M89.85 68.2213C89.5867 68.2213 89.3892 68.0237 89.3563 67.7601C88.764 61.6331 85.1768 55.8025 80.01 52.5413C79.7796 52.4095 79.7138 52.0801 79.8454 51.8495C79.9771 51.6189 80.3061 51.5531 80.5365 51.6848C85.9666 55.0778 89.7183 61.2048 90.3107 67.6284C90.3436 67.8919 90.1462 68.1554 89.8829 68.1554C89.8829 68.2213 89.85 68.2213 89.85 68.2213Z" fill="#2F3836"/>
<path d="M101.533 64.7954C101.27 64.7954 101.039 64.5977 101.039 64.3342C100.776 57.9107 97.5509 51.8165 92.4499 48.0283C92.2195 47.8636 92.1866 47.5671 92.3511 47.3365C92.5157 47.1059 92.8119 47.073 93.0422 47.2377C98.4065 51.1906 101.763 57.5812 102.027 64.2683C102.027 64.5648 101.829 64.7954 101.533 64.7954Z" fill="#2F3836"/>
<path d="M58.1907 79.8168C57.9604 79.8168 57.7629 79.6521 57.6971 79.4215C57.368 77.7744 56.9073 75.798 56.4794 73.8874C56.0516 71.9768 55.5909 70.0003 55.2618 68.3533C55.196 68.0897 55.3934 67.8262 55.6567 67.7603C55.92 67.6944 56.1833 67.8921 56.2491 68.1556C56.5782 69.8027 57.0389 71.7792 57.4667 73.6897C57.8946 75.6003 58.3553 77.5768 58.6844 79.2239C58.7502 79.4874 58.5528 79.7509 58.2895 79.8168C58.2566 79.8168 58.2237 79.8168 58.1907 79.8168Z" fill="#2F3836"/>
<path d="M116.375 288.631L123.122 188.127L62.8967 195.275L44.928 322L116.375 288.631Z" fill="#FFBD9B"/>
</svg>
