<svg width="329" height="364" viewBox="0 0 329 364" fill="none" xmlns="http://www.w3.org/2000/svg">
<g clip-path="url(#clip0_125_25418)">
<path d="M332 0H-3V364H332V0Z" fill="#FEFEFE"/>
<path d="M162.463 117.852C162.17 115.203 162.096 112.454 163.234 110.006C166.115 103.786 174.849 105.027 173.51 112.219C174.886 110.391 177.565 108.464 180.134 109.335C182.611 110.174 183.199 113.141 182.923 115.27C181.896 123.049 172.647 126.385 166.408 130.174C164.408 131.381 162.683 119.612 162.518 118.103C162.481 118.003 162.481 117.936 162.463 117.852Z" fill="#D03838"/>
<path d="M135.856 96.9267C136.204 95.9359 136.443 94.945 136.553 93.9542C136.755 92.1098 136.333 90.1586 135.012 88.6495C134.076 87.5825 132.516 86.7593 130.975 87.0642C129.507 87.3538 126.956 89.9299 127.708 91.3323C125.011 86.241 118.845 88.8477 119.616 93.7408C120.423 98.9236 126.295 102.033 130.442 105.417C130.864 105.768 131.598 105.646 131.819 105.189C133.103 102.567 134.865 99.7772 135.856 96.9267Z" fill="#D03838"/>
<path d="M148.701 53.0701C148.15 51.9408 147.71 50.7593 147.563 49.5257C146.921 44.3654 153.784 41.2379 154.554 47.4059C154.371 46.016 156.83 44.209 158.132 44.3132C160.224 44.4696 161.234 47.0237 161.252 48.709C161.27 50.5855 160.536 52.4272 159.472 54.0083C158.573 55.3636 153.508 62.244 152.224 59.8115C151.343 58.1262 150.444 56.4582 149.563 54.7728C149.269 54.1995 148.976 53.6435 148.701 53.0701Z" fill="#D03838"/>
<path d="M255.204 114.478C255.956 126.581 251.626 144.017 251.626 144.017C251.626 144.017 245.166 127.236 244.414 115.133C243.662 103.03 245.919 100.355 248.891 100.173C251.882 99.9908 254.451 102.375 255.204 114.478Z" fill="#97B38F"/>
<path d="M270.691 131.568C265.939 140.158 256.488 149.932 253.057 153.371C252.672 153.754 252.029 153.408 252.139 152.88C253.204 148.148 256.47 135.008 261.223 126.417C267.113 115.788 270.453 114.715 273.077 116.152C275.683 117.572 276.582 120.939 270.691 131.568Z" fill="#97B38F"/>
<path d="M277.738 157.394C270.086 167.258 257.241 178.196 251.791 182.655C251.148 183.183 250.231 182.491 250.58 181.727C253.516 175.375 260.874 160.251 268.526 150.387C278.435 137.61 282.564 136.518 285.096 138.466C287.647 140.395 287.647 144.617 277.738 157.394Z" fill="#97B38F"/>
<path d="M279.481 183.838C269.553 195.268 253.332 207.68 246.487 212.74C245.68 213.34 244.634 212.449 245.111 211.575C249.13 204.113 259.131 186.368 269.058 174.938C281.903 160.142 286.931 159.068 289.812 161.525C292.674 163.964 292.326 169.042 279.481 183.838Z" fill="#97B38F"/>
<path d="M280.6 219.365C266.104 229.047 244.671 238.456 235.68 242.224C234.615 242.661 233.863 241.55 234.67 240.731C241.57 233.888 258.397 217.727 272.912 208.044C291.684 195.504 297.317 195.432 299.428 198.562C301.556 201.692 299.354 206.825 280.6 219.365Z" fill="#97B38F"/>
<path d="M205.751 201.055C214.449 216.107 229.477 233.925 235.863 241.241C236.615 242.096 237.808 241.423 237.441 240.349C234.303 231.195 226.394 209.318 217.697 194.267C206.448 174.793 201.42 172.263 198.135 174.138C194.832 175.994 194.502 181.581 205.751 201.055Z" fill="#97B38F"/>
<path d="M272.618 257.366C255.608 261.388 232.23 262.717 222.468 263.117C221.312 263.172 221 261.843 222.046 261.37C230.927 257.366 252.415 248.102 269.425 244.08C291.427 238.875 296.73 240.768 297.611 244.426C298.492 248.102 294.62 252.161 272.618 257.366Z" fill="#97B38F"/>
<path d="M214.43 179.033C224.064 191.537 239.772 205.751 246.414 211.557C247.203 212.248 248.194 211.484 247.735 210.556C243.827 202.675 234.156 183.893 224.523 171.389C212.063 155.21 207.219 153.553 204.429 155.665C201.64 157.776 201.989 162.854 214.43 179.033Z" fill="#97B38F"/>
<path d="M225.239 155.665C232.927 165.584 245.864 176.558 251.259 180.981C251.883 181.49 252.764 180.817 252.433 180.089C249.516 173.774 242.139 158.577 234.45 148.658C224.541 135.881 220.413 134.789 217.88 136.737C215.33 138.666 215.33 142.906 225.239 155.665Z" fill="#97B38F"/>
<path d="M233.68 133.297C238.726 142.415 249.057 152.88 251.883 155.665C252.103 155.883 252.47 155.683 252.397 155.373C251.553 151.515 248.194 137.264 243.148 128.146C237.258 117.517 233.918 116.444 231.294 117.881C228.688 119.283 227.808 122.668 233.68 133.297Z" fill="#97B38F"/>
<path d="M215.036 272.436L213.164 270.689C237.533 244.808 246.267 210.61 249.314 186.477C252.598 160.287 250.084 140.013 250.066 139.812L252.617 139.485C252.635 139.685 255.204 160.269 251.864 186.787C249.901 202.366 246.323 216.926 241.221 230.048C234.817 246.519 226.009 260.77 215.036 272.436Z" fill="#97B38F"/>
<path d="M56.6756 125.252C59.3914 131.804 66.1626 139.867 66.1626 139.867C66.1626 139.867 65.2451 129.42 62.5109 122.868C59.7951 116.316 57.9234 115.479 56.3086 116.152C54.6938 116.808 53.9598 118.7 56.6756 125.252Z" fill="#97B38F"/>
<path d="M52.932 138.156C57.648 141.469 65.1164 144.217 67.8139 145.145C68.1075 145.254 68.3644 144.908 68.1625 144.654C66.3826 142.451 61.2996 136.354 56.5837 133.042C50.7484 128.947 48.7299 129.238 47.7206 130.64C46.7114 132.041 47.1151 134.061 52.932 138.156Z" fill="#97B38F"/>
<path d="M55.8864 153.499C62.4557 156.757 72.016 159.232 76.0163 160.196C76.4934 160.306 76.787 159.705 76.42 159.414C73.2455 156.811 65.4834 150.732 58.9141 147.493C50.4181 143.289 47.9775 143.762 47.1334 145.418C46.2893 147.074 47.3903 149.295 55.8864 153.499Z" fill="#97B38F"/>
<path d="M61.7767 167.84C69.9425 171.335 81.6498 173.755 86.5492 174.665C87.1181 174.775 87.4484 174.047 86.9713 173.701C82.9343 170.789 73.117 164 64.9696 160.506C54.4184 155.992 51.5007 156.684 50.6199 158.704C49.7391 160.724 51.2071 163.327 61.7767 167.84Z" fill="#97B38F"/>
<path d="M70.328 186.787C80.4388 188.206 94.1096 187.715 99.7981 187.424C100.477 187.387 100.587 186.605 99.9449 186.386C94.55 184.53 81.5582 180.307 71.4473 178.888C58.3638 177.05 55.3911 178.433 55.0791 180.617C54.7672 182.801 57.2444 184.948 70.328 186.787Z" fill="#97B38F"/>
<path d="M104.936 158.213C104.239 168.314 100.917 181.49 99.4493 186.95C99.2842 187.587 98.4768 187.533 98.4034 186.878C97.6877 181.272 96.2197 167.768 96.917 157.667C97.8162 144.599 99.798 141.978 102.018 142.142C104.239 142.306 105.835 145.145 104.936 158.213Z" fill="#97B38F"/>
<path d="M84.2922 204.732C94.2562 202.548 106.899 197.324 112.129 195.068C112.753 194.795 112.57 194.03 111.909 194.048C106.22 194.194 92.5313 194.758 82.5673 196.96C69.6672 199.8 67.3735 202.129 67.8506 204.277C68.3093 206.424 71.3921 207.571 84.2922 204.732Z" fill="#97B38F"/>
<path d="M94.6967 148.858C92.8617 157.867 88.2559 169.315 86.2557 174.047C86.0172 174.611 85.3015 174.465 85.3015 173.846C85.3199 168.714 85.5768 156.393 87.4301 147.402C89.8156 135.754 91.9442 133.643 93.9444 134.043C95.9629 134.443 97.0822 137.192 94.6967 148.858Z" fill="#97B38F"/>
<path d="M83.0261 139.303C81.5397 146.455 77.5761 155.501 75.8696 159.195C75.6677 159.614 75.0255 159.487 75.0255 159.013C74.9337 154.955 74.897 145.109 76.3834 137.938C78.3101 128.71 80.1818 127.109 82.0168 127.473C83.8518 127.855 84.9345 130.094 83.0261 139.303Z" fill="#97B38F"/>
<path d="M72.8234 129.693C72.5115 135.772 69.7773 143.871 69.0066 146.055C68.9516 146.219 68.6947 146.219 68.658 146.037C68.1075 143.798 66.1991 135.463 66.511 129.384C66.8597 122.304 68.346 120.903 70.0893 120.994C71.8509 121.066 73.1721 122.613 72.8234 129.693Z" fill="#97B38F"/>
<path d="M118.699 198.107C118.607 198.107 118.515 198.089 118.442 198.052C109.67 194.704 101.376 189.444 93.7976 182.419C87.7421 176.813 82.1086 170.061 77.0807 162.38C68.5113 149.295 64.566 137.847 64.5293 137.719C64.4009 137.337 64.6027 136.919 64.9881 136.791C65.3734 136.664 65.7955 136.864 65.9239 137.246C65.9606 137.355 69.8692 148.676 78.3469 161.616C86.1456 173.519 99.5411 189.262 118.992 196.687C119.377 196.833 119.561 197.252 119.414 197.634C119.267 197.925 118.992 198.107 118.699 198.107Z" fill="#97B38F"/>
<path d="M35.8849 237.146C41.7202 237.346 50.0695 235.071 50.0695 235.071C50.0695 235.071 41.9037 232.232 36.0684 232.032C30.2331 231.832 28.967 232.942 28.9303 234.343C28.8752 235.763 30.0496 236.946 35.8849 237.146Z" fill="#97B38F"/>
<path d="M44.326 244.262C48.3997 241.896 52.9872 237.292 54.602 235.617C54.7855 235.435 54.602 235.126 54.3451 235.199C52.088 235.763 45.794 237.474 41.7203 239.858C36.674 242.788 36.2153 244.39 36.9309 245.609C37.6466 246.81 39.2797 247.192 44.326 244.262Z" fill="#97B38F"/>
<path d="M56.8589 247.265C61.5198 243.516 66.6027 237.273 68.6763 234.634C68.9148 234.325 68.5662 233.906 68.2175 234.07C65.1898 235.544 58.0149 239.239 53.354 242.988C47.3352 247.848 46.8581 249.813 47.8307 250.996C48.7849 252.179 50.8401 252.125 56.8589 247.265Z" fill="#97B38F"/>
<path d="M69.6123 247.738C74.9888 242.879 80.7507 235.035 83.0995 231.722C83.3748 231.34 82.9344 230.849 82.5123 231.085C78.9708 233.087 70.5481 238.056 65.1716 242.915C58.2169 249.194 57.7582 251.597 58.9876 252.925C60.2171 254.254 62.6576 254.017 69.6123 247.738Z" fill="#97B38F"/>
<path d="M86.7328 247.811C91.2102 240.804 95.4491 230.539 97.1556 226.226C97.3575 225.716 96.807 225.371 96.4216 225.771C93.2104 229.138 85.6502 237.31 81.1728 244.317C75.3742 253.38 75.4109 256.038 76.9523 257.002C78.4937 257.967 80.9526 256.857 86.7328 247.811Z" fill="#97B38F"/>
<path d="M76.934 212.594C84.2923 216.507 93.082 223.405 96.6786 226.335C97.1006 226.681 96.7887 227.245 96.2749 227.1C91.8158 225.735 81.1728 222.277 73.8145 218.345C64.2908 213.268 63.0063 210.92 63.8688 209.336C64.7312 207.735 67.4103 207.516 76.934 212.594Z" fill="#97B38F"/>
<path d="M104.936 243.516C106.643 235.399 106.991 224.315 107.046 219.674C107.046 219.128 106.422 219.001 106.202 219.492C104.385 223.751 100.202 234.052 98.4951 242.169C96.2748 252.671 97.2657 255.146 99.0273 255.528C100.826 255.91 102.716 254.017 104.936 243.516Z" fill="#97B38F"/>
<path d="M66.4378 216.999C72.585 221.403 79.6314 228.647 82.5307 231.722C82.8794 232.086 82.5124 232.578 82.072 232.359C78.2185 230.612 69.0435 226.281 62.8962 221.876C54.9323 216.18 54.0699 213.905 55.0608 212.558C56.0333 211.211 58.4922 211.302 66.4378 216.999Z" fill="#97B38F"/>
<path d="M55.3359 222.404C60.217 225.917 65.667 231.904 67.869 234.398C68.1259 234.689 67.8139 235.108 67.4469 234.962C64.3641 233.67 56.9507 230.357 52.0696 226.845C45.7939 222.313 45.2067 220.384 46.1059 219.146C47.005 217.945 49.0602 217.89 55.3359 222.404Z" fill="#97B38F"/>
<path d="M44.6747 226.717C49.1337 228.992 54.3084 233.743 55.6847 235.053C55.7948 235.162 55.703 235.326 55.5562 235.308C53.6845 234.962 46.7849 233.561 42.3075 231.286C37.1145 228.628 36.5456 227.063 37.2062 225.807C37.8668 224.552 39.4633 224.06 44.6747 226.717Z" fill="#97B38F"/>
<path d="M54.4551 235.945C50.4181 235.945 47.9409 235.708 47.9042 235.708C47.5005 235.672 47.2069 235.308 47.2436 234.907C47.2803 234.507 47.6473 234.216 48.051 234.252C48.1427 234.27 57.96 235.18 70.5297 233.288C82.0902 231.54 98.4034 226.954 110.514 215.088C110.808 214.796 111.267 214.815 111.56 215.088C111.854 215.379 111.836 215.834 111.56 216.125C106.074 221.494 99.3209 225.862 91.4671 229.102C85.1914 231.686 78.2184 233.579 70.7316 234.725C64.2724 235.708 58.5472 235.945 54.4551 235.945Z" fill="#97B38F"/>
<path d="M141.214 158.103C141.177 158.049 141.104 158.012 141.049 158.012C136.021 158.012 130.993 158.012 125.965 158.012V224.934C125.965 228.228 141.361 228.228 141.361 224.934C141.361 222.131 141.361 219.346 141.361 216.544C141.361 210.101 141.361 203.658 141.361 197.215C141.361 190.026 141.361 182.819 141.361 175.63C141.361 170.57 141.361 165.529 141.361 160.469C141.361 160.087 141.508 158.522 141.214 158.103Z" fill="white"/>
<path d="M125.102 157.03C124.313 157.448 124.387 158.595 124.387 159.505C124.368 162.999 124.387 166.494 124.387 170.006C124.387 176.995 124.387 184.002 124.387 190.991C124.387 201.838 124.387 212.685 124.387 223.532C124.387 224.479 124.405 225.462 124.864 226.299C125.525 227.482 126.919 228.028 128.24 228.355C131.965 229.284 135.947 229.229 139.636 228.155C140.81 227.809 142.058 227.282 142.608 226.208C142.957 225.534 142.957 224.734 142.957 223.987C142.957 202.22 142.957 180.435 142.939 158.668C142.939 158.176 142.92 157.648 142.608 157.266C142.04 156.575 140.81 156.848 140.296 157.594C139.782 158.322 139.746 159.286 139.764 160.178C139.782 181.254 139.782 202.329 139.801 223.405C139.801 223.878 139.782 224.388 139.507 224.752C139.232 225.116 138.737 225.261 138.296 225.352C135.158 226.08 131.837 226.044 128.717 225.261C128.405 225.189 128.094 225.098 127.873 224.861C127.561 224.533 127.543 224.042 127.543 223.605C127.543 202.275 127.561 180.944 127.561 159.614C127.561 158.395 127.323 156.811 125.726 156.884C125.469 156.884 125.268 156.939 125.102 157.03Z" fill="#D19E54"/>
<path d="M138.369 158.012H138.113V225.371C138.204 225.352 138.278 225.334 138.369 225.298V158.012Z" fill="#BA8A50"/>
<path d="M136.498 158.012H136.241V216.38C136.241 219.492 136.241 222.586 136.241 225.698C136.333 225.68 136.406 225.68 136.498 225.662C136.498 217.599 136.498 209.555 136.498 201.492V158.012Z" fill="#BA8A50"/>
<path d="M134.626 158.012H134.369V225.826C134.461 225.826 134.534 225.826 134.626 225.826V158.012Z" fill="#BA8A50"/>
<path d="M132.663 225.807C132.516 224.916 132.516 223.987 132.516 223.077C132.516 214.815 132.516 206.57 132.516 198.307C132.516 193.684 132.516 189.08 132.516 184.457C132.516 175.648 132.516 166.821 132.516 158.012H132.773V201.729C132.773 209.755 132.773 217.781 132.773 225.807H132.663Z" fill="#BA8A50"/>
<path d="M130.773 158.012C130.718 166.93 130.681 175.83 130.626 184.748C130.589 193.976 130.607 203.203 130.662 212.449C130.681 216.853 130.681 221.257 130.754 225.662C130.773 225.662 130.791 225.662 130.791 225.662C131.103 221.294 130.901 216.908 130.919 212.54C130.938 207.99 130.919 203.421 130.919 198.871C130.919 198.689 130.919 198.507 130.919 198.307C130.883 189.08 130.919 179.852 130.864 170.625C130.846 166.403 130.809 162.198 130.773 158.012Z" fill="#BA8A50"/>
<path d="M129.029 158.012H128.772C128.809 166.949 128.901 175.867 128.864 184.803C128.846 190.372 128.846 195.959 128.828 201.529C128.828 207.68 128.772 213.832 128.772 219.983C128.772 221.749 128.772 223.496 128.772 225.261C128.846 225.28 128.938 225.316 129.029 225.334C129.029 219.747 129.048 214.159 129.066 208.554C129.066 203.367 129.103 198.18 129.121 192.975C129.121 190.245 129.121 187.515 129.121 184.785C129.121 175.848 129.066 166.93 129.029 158.012Z" fill="#BA8A50"/>
<path d="M212.76 158.012V224.879C214.265 224.879 230.853 224.879 230.853 224.879V158.012C230.835 154.718 212.76 154.718 212.76 158.012Z" fill="white"/>
<path d="M211.164 158.031C211.017 159.141 211.182 160.397 211.182 161.398C211.182 163.691 211.182 166.002 211.182 168.295C211.182 175.848 211.182 183.42 211.182 190.973C211.182 198.635 211.182 206.279 211.182 213.941C211.182 217.563 211.182 221.203 211.182 224.825C211.182 225.079 211.182 225.352 211.366 225.553C211.568 225.771 211.898 225.807 212.192 225.807C212.834 225.807 214.357 226.08 214.357 225.079V158.722C214.357 158.431 214.522 158.176 214.797 158.067C215.164 157.903 215.77 157.703 216.706 157.521C220.468 156.811 224.468 156.957 228.175 157.794C229.716 158.14 229.276 160.16 229.276 161.398C229.276 163.472 229.276 165.547 229.276 167.604C229.276 173.937 229.276 180.289 229.276 186.623C229.276 193.63 229.276 200.637 229.276 207.644C229.276 212.594 229.276 217.545 229.276 222.495C229.276 223.35 229.276 224.224 229.276 225.079C229.276 225.48 229.606 225.807 230.01 225.807C230.707 225.807 231.863 226.08 232.34 225.407C232.725 224.879 232.45 223.187 232.45 222.44C232.45 221.494 232.45 220.529 232.45 219.583C232.45 216.889 232.45 214.214 232.45 211.52C232.45 204.368 232.45 197.197 232.45 190.044C232.45 183.092 232.45 176.14 232.45 169.187C232.45 166.748 232.45 164.291 232.45 161.853C232.45 159.869 233.056 157.084 231.184 155.737C230.432 155.191 229.532 154.937 228.633 154.718C223.991 153.626 219.073 153.572 214.504 154.882C213.678 155.119 212.852 155.41 212.192 155.956C211.531 156.502 211.274 157.23 211.164 158.031Z" fill="#D03838"/>
<path d="M225.129 157.266C225.129 170.243 225.092 183.219 225.092 196.178V224.861H225.349V194.576C225.349 187.005 225.257 179.452 225.349 171.881C225.404 167.003 225.532 162.126 225.202 157.248C225.165 157.284 225.147 157.266 225.129 157.266Z" fill="#BA8A50"/>
<path d="M227.367 157.612V173.737C227.367 184.857 227.367 195.959 227.367 207.08C227.367 213.013 227.367 218.946 227.367 224.879H227.716C227.679 224.37 227.624 223.824 227.624 223.642V220.912C227.624 219.164 227.624 217.417 227.624 215.652V205.15C227.624 198.143 227.624 191.136 227.624 184.148C227.624 175.339 227.624 166.512 227.624 157.703C227.532 157.667 227.459 157.648 227.367 157.612Z" fill="#BA8A50"/>
<path d="M223.22 157.139C223.22 160.688 223.22 176.777 223.22 178.105V224.879H223.477V193.557C223.477 181.418 223.477 169.278 223.477 157.139C223.385 157.139 223.311 157.139 223.22 157.139Z" fill="#BA8A50"/>
<path d="M221.678 157.102C221.55 157.102 221.403 157.102 221.275 157.102C221.146 157.976 221.348 159.377 221.348 160.033V164.037C221.348 166.694 221.348 169.369 221.348 172.026V224.879H221.605V161.361C221.605 160.215 221.935 158.376 221.678 157.102Z" fill="#BA8A50"/>
<path d="M219.733 157.175C219.642 157.175 219.568 157.193 219.477 157.193V202.147C219.477 209.719 219.477 217.308 219.477 224.879H219.733C219.733 211.411 219.733 197.943 219.733 184.475C219.752 175.375 219.733 166.275 219.733 157.175Z" fill="#BA8A50"/>
<path d="M217.88 157.339C217.788 157.357 217.715 157.357 217.623 157.375V224.879H217.88V157.339Z" fill="#BA8A50"/>
<path d="M216.008 157.667C215.917 157.685 215.843 157.703 215.751 157.721V198.58C215.751 203.203 215.751 207.844 215.751 212.467C215.751 216.598 215.751 220.73 215.751 224.861H216.008C216.008 224.552 216.008 224.242 216.008 223.933V157.667Z" fill="#BA8A50"/>
<path d="M159.931 232.105C159.931 229.265 159.931 226.426 159.931 223.587C159.931 217.035 159.931 210.483 159.931 203.931C159.931 196.633 159.931 189.316 159.931 182.018C159.931 176.922 159.931 171.826 159.931 166.73C159.931 165.784 159.656 164.255 160.426 163.636C160.83 163.309 161.344 163.181 161.858 163.072C165.583 162.253 169.436 162.253 173.216 162.599C174.17 162.69 178.024 162.908 178.024 164.328C178.024 166.967 178.024 169.606 178.024 172.245C178.024 178.396 178.024 184.566 178.024 190.718C178.024 197.798 178.024 204.859 178.024 211.939C178.024 217.308 178.024 222.677 178.024 228.064C178.024 229.047 178.024 230.03 178.024 231.013C178.024 232.705 177.272 233.488 175.455 233.906C172.574 234.562 169.62 234.762 166.665 234.543C165.326 234.434 159.931 234.252 159.931 232.105Z" fill="#F2A05D"/>
<path d="M168.977 229.484C168.354 229.484 167.748 229.466 167.124 229.411C167.051 229.411 166.959 229.393 166.849 229.393C165.142 229.265 161.124 228.974 161.124 226.481V172.026C161.124 171.899 161.124 171.735 161.105 171.553C161.069 170.68 160.995 169.46 161.821 168.769C162.28 168.368 162.83 168.204 163.307 168.095C165.913 167.476 168.867 167.349 172.335 167.677L172.501 167.695C173.803 167.822 176.85 168.095 176.85 170.024V225.553C176.85 227.354 176.005 228.392 174.17 228.847C172.464 229.284 170.721 229.484 168.977 229.484ZM168.794 169.333C166.941 169.333 165.271 169.515 163.729 169.879C163.454 169.952 163.179 170.024 163.032 170.152C162.885 170.316 162.922 171.135 162.94 171.48C162.959 171.681 162.959 171.863 162.959 172.045V226.481C162.959 226.572 163.069 227.282 166.996 227.573C167.106 227.573 167.216 227.591 167.289 227.591C169.455 227.773 171.62 227.609 173.73 227.081C174.739 226.827 175.015 226.517 175.015 225.553V170.134C174.868 170.006 174.317 169.715 172.335 169.533L172.152 169.515C170.959 169.387 169.84 169.333 168.794 169.333Z" fill="#FEFEFE"/>
<path d="M160.041 229.793C160.041 229.884 160.078 229.975 160.169 230.03C161.491 231.067 164.665 231.267 166.207 231.358C166.353 231.358 166.482 231.377 166.574 231.377C169.565 231.595 172.537 231.395 175.437 230.794C176.703 230.539 177.474 230.121 177.877 229.429C177.969 229.284 177.914 229.083 177.767 228.992C177.62 228.901 177.418 228.956 177.327 229.102C177.015 229.629 176.373 229.957 175.29 230.175C172.446 230.758 169.528 230.94 166.592 230.74C166.482 230.74 166.353 230.721 166.207 230.721C164.849 230.63 161.693 230.448 160.536 229.52C160.408 229.411 160.206 229.429 160.096 229.575C160.059 229.648 160.041 229.72 160.041 229.793Z" fill="#FEFEFE"/>
<path d="M160.041 166.967C160.041 167.04 160.059 167.112 160.114 167.167C160.225 167.294 160.426 167.331 160.555 167.222C161.711 166.312 164.885 166.111 166.225 166.02C166.372 166.02 166.5 166.002 166.61 166.002C169.546 165.802 172.464 165.984 175.308 166.566C176.391 166.785 177.033 167.112 177.345 167.64C177.437 167.786 177.639 167.84 177.785 167.749C177.932 167.658 177.987 167.458 177.896 167.313C177.474 166.639 176.721 166.221 175.455 165.948C172.556 165.347 169.583 165.165 166.592 165.365C166.482 165.365 166.353 165.383 166.225 165.383C164.702 165.474 161.509 165.675 160.188 166.712C160.078 166.785 160.041 166.876 160.041 166.967Z" fill="#FEFEFE"/>
<path d="M198.686 213.013C198.686 210.174 198.686 207.334 198.686 204.495C198.686 197.943 198.686 191.391 198.686 184.839C198.686 177.541 198.686 170.225 198.686 162.926C198.686 157.83 198.686 152.734 198.686 147.638C198.686 146.692 198.503 145.163 199.016 144.544C199.292 144.217 199.622 144.089 199.971 143.98C202.448 143.161 205.017 143.161 207.531 143.507C208.173 143.598 210.724 143.816 210.724 145.236C210.724 147.875 210.724 150.514 210.724 153.153C210.724 159.305 210.724 165.474 210.724 171.626C210.724 178.706 210.724 185.767 210.724 192.847C210.724 198.216 210.724 203.585 210.724 208.972C210.724 209.955 210.724 210.938 210.724 211.921C210.724 213.613 210.228 214.396 209.017 214.815C207.109 215.47 205.127 215.67 203.182 215.452C202.264 215.342 198.686 215.142 198.686 213.013Z" fill="#C69754"/>
<path d="M200.393 206.133C200.393 203.876 200.393 201.62 200.393 199.345C200.393 194.139 200.393 188.916 200.393 183.711C200.393 177.905 200.393 172.099 200.393 166.275C200.393 162.217 200.393 158.158 200.393 154.099C200.393 153.353 200.264 152.134 200.631 151.642C200.815 151.388 201.072 151.278 201.31 151.187C203.072 150.532 204.907 150.532 206.724 150.823C207.182 150.896 208.999 151.078 208.999 152.188C208.999 154.281 208.999 156.374 208.999 158.486C208.999 163.381 208.999 168.295 208.999 173.191C208.999 178.815 208.999 184.439 208.999 190.063C208.999 194.34 208.999 198.617 208.999 202.894C208.999 203.676 208.999 204.459 208.999 205.241C208.999 206.588 208.65 207.207 207.77 207.553C206.412 208.062 204.999 208.244 203.586 208.062C202.962 207.99 200.393 207.844 200.393 206.133Z" fill="#D19E54"/>
<path d="M204.705 208.59C204.32 208.59 203.934 208.572 203.549 208.517C203.494 208.517 203.439 208.499 203.384 208.499C202.54 208.408 199.952 208.117 199.952 206.133V154.118C199.952 153.972 199.952 153.808 199.934 153.644C199.916 152.825 199.879 151.915 200.264 151.388C200.558 151.005 200.943 150.86 201.145 150.787C202.778 150.186 204.613 150.059 206.778 150.387L206.889 150.405C207.531 150.496 209.458 150.769 209.458 152.207V205.26C209.458 206.77 208.999 207.589 207.935 207.99C206.889 208.39 205.788 208.59 204.705 208.59ZM204.576 151.133C203.439 151.133 202.411 151.297 201.457 151.642C201.237 151.733 201.09 151.788 200.98 151.934C200.778 152.207 200.815 153.044 200.815 153.608C200.815 153.79 200.833 153.954 200.833 154.118V206.133C200.833 207.171 202.228 207.462 203.457 207.589C203.531 207.589 203.586 207.607 203.641 207.607C204.962 207.789 206.301 207.626 207.586 207.134C208.191 206.898 208.522 206.534 208.522 205.26V152.225C208.522 151.57 207.182 151.388 206.742 151.315L206.632 151.297C205.916 151.187 205.237 151.133 204.576 151.133Z" fill="#FEFEFE"/>
<path d="M143.453 224.206C143.453 220.912 143.453 217.617 143.453 214.305C143.453 206.697 143.453 199.09 143.453 191.5C143.453 183.019 143.453 174.538 143.453 166.075C143.453 160.16 143.453 154.245 143.453 148.312C143.453 147.22 143.214 145.454 143.875 144.726C144.223 144.362 144.682 144.199 145.104 144.071C148.334 143.125 151.673 143.125 154.976 143.525C155.802 143.634 159.142 143.889 159.142 145.527C159.142 148.585 159.142 151.642 159.142 154.7C159.142 161.853 159.142 169.005 159.142 176.158C159.142 184.366 159.142 192.574 159.142 200.782C159.142 207.025 159.142 213.249 159.142 219.492C159.142 220.639 159.142 221.785 159.142 222.932C159.142 224.897 158.5 225.807 156.903 226.299C154.408 227.063 151.82 227.3 149.288 227.027C148.132 226.918 143.453 226.699 143.453 224.206Z" fill="#D03838"/>
<path d="M147.288 216.98C147.288 214.287 147.288 211.612 147.288 208.918C147.288 202.73 147.288 196.524 147.288 190.336C147.288 183.438 147.288 176.522 147.288 169.624C147.288 164.801 147.288 159.978 147.288 155.155C147.288 154.263 147.159 152.826 147.508 152.243C147.691 151.934 147.912 151.806 148.132 151.715C149.783 150.951 151.49 150.951 153.178 151.279C153.6 151.37 155.307 151.57 155.307 152.917C155.307 155.41 155.307 157.903 155.307 160.397C155.307 166.221 155.307 172.045 155.307 177.869C155.307 184.548 155.307 191.246 155.307 197.925C155.307 203.003 155.307 208.081 155.307 213.158C155.307 214.087 155.307 215.015 155.307 215.961C155.307 217.563 154.976 218.309 154.169 218.691C152.903 219.31 151.582 219.51 150.279 219.292C149.673 219.183 147.288 219.001 147.288 216.98Z" fill="#E84F2D"/>
<path d="M151.307 223.478C150.793 223.478 150.279 223.442 149.747 223.387C149.673 223.387 149.6 223.369 149.508 223.369C148.279 223.241 144.994 222.877 144.994 220.402V151.97C144.994 151.788 144.994 151.57 144.976 151.333C144.939 150.296 144.902 149.095 145.398 148.458C145.728 148.021 146.15 147.857 146.536 147.711C148.719 146.929 151.196 146.765 154.096 147.202L154.243 147.22C155.068 147.329 157.601 147.675 157.601 149.459V219.237C157.601 221.185 157.032 222.186 155.637 222.695C154.224 223.205 152.775 223.478 151.307 223.478ZM151.141 147.875C149.563 147.875 148.15 148.112 146.848 148.567C146.572 148.658 146.315 148.767 146.132 149.004C145.838 149.386 145.857 150.496 145.893 151.297C145.893 151.533 145.912 151.752 145.912 151.952V220.384C145.912 221.876 148.022 222.277 149.618 222.441C149.71 222.459 149.802 222.459 149.875 222.477C151.71 222.714 153.545 222.495 155.325 221.84C156.188 221.531 156.683 221.003 156.683 219.237V149.44C156.683 148.458 154.756 148.185 154.114 148.112L153.967 148.094C152.976 147.948 152.041 147.875 151.141 147.875Z" fill="#E84F2D"/>
<path d="M178.868 219.619C178.868 216.871 178.868 214.123 178.868 211.375C178.868 205.041 178.868 198.708 178.868 192.374C178.868 185.312 178.868 178.251 178.868 171.189C178.868 166.257 178.868 161.325 178.868 156.393C178.868 155.483 178.574 154.008 179.4 153.408C179.822 153.098 180.373 152.971 180.905 152.862C184.85 152.079 188.942 152.079 192.961 152.407C193.97 152.498 198.044 152.716 198.044 154.081C198.044 156.629 198.044 159.177 198.044 161.725C198.044 167.677 198.044 173.628 198.044 179.598C198.044 186.441 198.044 193.266 198.044 200.109C198.044 205.296 198.044 210.501 198.044 215.688C198.044 216.635 198.044 217.599 198.044 218.546C198.044 220.184 197.255 220.948 195.31 221.348C192.264 221.985 189.107 222.186 186.006 221.967C184.575 221.858 178.868 221.694 178.868 219.619Z" fill="#E84F2D"/>
<path d="M179.547 161.907C179.547 161.707 179.547 161.507 179.547 161.325C179.547 160.87 179.547 160.415 179.547 159.96C179.547 159.45 179.547 158.959 179.547 158.449C179.547 158.103 179.547 157.739 179.547 157.394C179.547 157.321 179.272 157.23 180.042 157.175C180.446 157.157 180.941 157.139 181.455 157.139C185.125 157.084 188.924 157.084 192.667 157.102C193.603 157.102 197.401 157.121 197.401 157.23C197.401 157.412 197.401 157.594 197.401 157.776C197.401 158.194 197.401 158.631 197.401 159.05C197.401 159.541 197.401 160.033 197.401 160.524C197.401 160.888 197.401 161.27 197.401 161.634C197.401 161.707 197.401 161.762 197.401 161.834C197.401 161.944 196.667 161.998 194.869 162.035C192.043 162.071 189.107 162.089 186.208 162.071C184.85 162.071 179.547 162.053 179.547 161.907Z" fill="#FEFEFE"/>
<path d="M179.547 168.532C179.547 168.332 179.547 168.132 179.547 167.95C179.547 167.495 179.547 167.04 179.547 166.585C179.547 166.075 179.547 165.584 179.547 165.074C179.547 164.728 179.547 164.364 179.547 164.018C179.547 163.946 179.272 163.855 180.042 163.8C180.446 163.782 180.941 163.764 181.455 163.764C185.125 163.709 188.924 163.709 192.667 163.727C193.603 163.727 197.401 163.745 197.401 163.855C197.401 164.037 197.401 164.219 197.401 164.401C197.401 164.819 197.401 165.256 197.401 165.675C197.401 166.166 197.401 166.657 197.401 167.149C197.401 167.513 197.401 167.895 197.401 168.259C197.401 168.332 197.401 168.386 197.401 168.459C197.401 168.568 196.667 168.623 194.869 168.659C192.043 168.696 189.107 168.714 186.208 168.696C184.85 168.696 179.547 168.678 179.547 168.532Z" fill="#FEFEFE"/>
<path d="M179.547 217.272C179.547 217.071 179.547 216.871 179.547 216.689C179.547 216.234 179.547 215.779 179.547 215.324C179.547 214.815 179.547 214.323 179.547 213.814C179.547 213.468 179.547 213.104 179.547 212.758C179.547 212.685 179.272 212.594 180.042 212.54C180.446 212.521 180.941 212.503 181.455 212.503C185.125 212.449 188.924 212.449 192.667 212.467C193.603 212.467 197.401 212.485 197.401 212.594C197.401 212.776 197.401 212.958 197.401 213.14C197.401 213.559 197.401 213.996 197.401 214.414C197.401 214.906 197.401 215.397 197.401 215.888C197.401 216.252 197.401 216.635 197.401 216.999C197.401 217.071 197.401 217.126 197.401 217.199C197.401 217.308 196.667 217.363 194.869 217.399C192.043 217.435 189.107 217.454 186.208 217.435C184.85 217.435 179.547 217.417 179.547 217.272Z" fill="#FEFEFE"/>
<path d="M109.34 231.832C109.34 228.283 109.34 224.752 109.34 221.203C109.34 213.031 109.34 204.877 109.34 196.706C109.34 187.606 109.34 178.506 109.34 169.387C109.34 163.036 109.34 156.684 109.34 150.314C109.34 149.149 109.12 147.238 109.744 146.474C110.074 146.073 110.478 145.909 110.881 145.764C113.854 144.745 116.919 144.745 119.946 145.181C120.717 145.291 123.781 145.564 123.781 147.329C123.781 150.623 123.781 153.899 123.781 157.193C123.781 164.874 123.781 172.554 123.781 180.235C123.781 189.043 123.781 197.87 123.781 206.679C123.781 213.377 123.781 220.074 123.781 226.772C123.781 228.01 123.781 229.229 123.781 230.467C123.781 232.578 123.194 233.561 121.726 234.07C119.432 234.889 117.065 235.144 114.735 234.853C113.634 234.744 109.34 234.507 109.34 231.832Z" fill="#F2A05D"/>
<path d="M94.348 242.697C94.348 238.238 94.348 233.779 94.348 229.32C94.348 219.037 94.348 208.754 94.348 198.471C94.348 187.005 94.348 175.539 94.348 164.073C94.348 156.065 94.348 148.075 94.348 140.067C94.348 138.593 94.1278 136.191 94.7517 135.226C95.082 134.716 95.4857 134.516 95.8894 134.334C98.8621 133.06 101.927 133.06 104.954 133.606C105.725 133.752 108.789 134.098 108.789 136.318C108.789 138.211 108.789 140.085 108.789 141.978C108.789 144.235 108.789 146.474 108.789 148.73C108.789 158.395 108.789 168.077 108.789 177.741C108.789 188.843 108.789 199.945 108.789 211.047C108.789 219.474 108.789 227.919 108.789 236.345C108.789 237.892 108.789 239.439 108.789 240.986C108.789 243.643 108.202 244.881 106.734 245.536C104.441 246.555 102.073 246.883 99.7429 246.537C98.6419 246.355 94.348 246.064 94.348 242.697Z" fill="#E84F2D"/>
<path d="M116.552 231.813C116.185 231.813 115.818 231.777 115.451 231.704C115.414 231.704 115.359 231.686 115.304 231.668C114.533 231.522 112.166 231.104 112.166 228.465V153.535C112.166 153.317 112.166 153.08 112.148 152.844C112.129 151.733 112.092 150.478 112.423 149.804C112.643 149.349 112.937 149.131 113.23 148.967C114.753 148.093 116.478 147.893 118.497 148.385L118.588 148.403C120.148 148.749 120.937 149.549 120.937 150.805V227.227C120.937 228.974 120.717 230.266 119.598 230.94C118.588 231.504 117.579 231.813 116.552 231.813ZM116.423 149.022C115.414 149.022 114.533 149.258 113.689 149.75C113.505 149.859 113.377 149.95 113.249 150.205C113.028 150.678 113.047 151.915 113.065 152.825C113.065 153.08 113.083 153.317 113.083 153.535V228.465C113.083 230.121 114.276 230.558 115.469 230.776C115.542 230.794 115.597 230.794 115.652 230.812C116.808 231.049 117.983 230.831 119.121 230.139C119.653 229.811 120.02 229.193 120.02 227.209V150.787C120.02 149.768 119.194 149.458 118.387 149.276C118.35 149.276 118.313 149.258 118.276 149.258C117.616 149.094 116.992 149.022 116.423 149.022Z" fill="#FEFEFE"/>
<path d="M95.2289 142.033C95.0637 142.033 94.9169 141.96 94.8252 141.814C94.6967 141.596 94.7701 141.323 94.9903 141.196C101.578 137.319 108.092 141.159 108.147 141.196C108.367 141.323 108.441 141.614 108.294 141.814C108.166 142.033 107.872 142.106 107.67 141.96C107.615 141.924 101.56 138.356 95.4491 141.96C95.394 142.015 95.3206 142.033 95.2289 142.033Z" fill="#FEFEFE"/>
<path d="M95.2289 145.072C95.0637 145.072 94.9169 144.999 94.8252 144.854C94.6967 144.635 94.7701 144.362 94.9903 144.235C101.578 140.358 108.092 144.199 108.147 144.235C108.367 144.362 108.441 144.654 108.294 144.854C108.166 145.072 107.872 145.145 107.67 144.999C107.615 144.963 101.56 141.396 95.4491 144.999C95.394 145.054 95.3206 145.072 95.2289 145.072Z" fill="#FEFEFE"/>
<path d="M101.358 240.586C99.4126 240.586 97.2106 240.149 95.0086 238.857C94.7884 238.729 94.715 238.456 94.8435 238.238C94.9719 238.02 95.2472 237.947 95.4674 238.074C101.56 241.678 107.615 238.111 107.688 238.074C107.909 237.947 108.184 238.02 108.312 238.22C108.441 238.438 108.367 238.711 108.166 238.839C108.111 238.875 105.23 240.586 101.358 240.586Z" fill="#FEFEFE"/>
<path d="M101.358 237.546C99.4126 237.546 97.2106 237.11 95.0086 235.817C94.7884 235.69 94.715 235.417 94.8435 235.199C94.9719 234.98 95.2472 234.907 95.4674 235.035C101.56 238.638 107.615 235.071 107.688 235.035C107.909 234.907 108.184 234.98 108.312 235.18C108.441 235.399 108.367 235.672 108.166 235.799C108.111 235.836 105.23 237.546 101.358 237.546Z" fill="#FEFEFE"/>
<path d="M243.332 193.393C243.625 194.813 243.277 196.524 243.24 197.816C243.148 201.747 243.368 205.769 243.368 209.737C243.368 218.018 243.368 226.299 243.368 234.598C243.368 250.96 243.368 267.322 243.368 283.665C243.368 292.984 243.368 302.32 243.368 311.639C243.368 312.348 243.35 313.113 242.946 313.695C242.286 314.66 240.909 314.769 239.717 314.769C201.622 314.769 163.527 314.769 125.451 314.769C114.423 314.769 103.394 314.769 92.3661 314.769C91.1917 314.769 89.8155 314.678 89.1732 313.695C88.7879 313.113 88.7695 312.385 88.7695 311.693C88.7695 275.257 88.7695 238.802 88.7695 202.366C88.7695 199.381 88.7695 196.396 88.7695 193.393C88.7695 192.01 89.9072 190.9 91.2835 190.9C124.332 190.9 157.38 190.9 190.447 190.9C206.778 190.9 223.11 190.9 239.46 190.9C240.157 190.9 240.873 190.9 241.533 191.173C242.634 191.591 243.13 192.429 243.332 193.393Z" fill="#E2CBAA"/>
<path d="M243.368 193.393V245.973C242.322 246.446 238.45 245.3 237.093 245.136C234.579 244.826 232.065 244.535 229.551 244.262C224.523 243.734 219.477 243.298 214.412 242.988C204.099 242.333 193.768 242.115 183.437 242.369C163.105 242.843 142.829 245.081 122.937 249.267C111.377 251.706 99.8713 254.654 88.7695 258.64V193.411C88.7695 192.028 89.9072 190.918 91.2835 190.918H240.836C242.231 190.882 243.368 192.01 243.368 193.393Z" fill="#D0B082"/>
<path d="M254.415 227.336C254.213 227.354 254.011 227.373 253.828 227.373C211.054 227.373 168.262 227.373 125.488 227.373C118.827 227.373 112.166 227.373 105.505 227.373C99.0088 227.373 92.5129 227.373 86.017 227.373C83.7966 227.373 75.5758 228.556 76.842 224.97C80.7322 213.886 84.604 202.784 88.4942 191.701C88.6594 191.209 89.1181 190.9 89.6319 190.9H242.506C243.02 190.9 243.478 191.227 243.643 191.701C247.57 202.875 251.461 214.068 255.387 225.261C255.571 225.789 255.736 226.39 255.424 226.845C255.204 227.172 254.819 227.3 254.415 227.336Z" fill="#DDBC8D"/>
<path d="M48.0328 317.863L41.7388 311.02C41.7388 311.02 96.4034 296.369 107.175 305.596C107.175 305.596 132.424 295.331 169.877 310.055L172.226 317.663L115.359 313.058C115.359 313.058 105.835 308.763 99.8532 313.058L48.0328 317.863Z" fill="white"/>
<path d="M107.615 320.775C102.587 320.775 99.2108 318.555 98.4034 314.878L44.4728 320.52C43.5736 320.611 42.7662 319.974 42.6745 319.064C42.5827 318.172 43.225 317.372 44.1425 317.281L99.7063 311.475C100.165 311.42 100.624 311.584 100.972 311.893C101.321 312.203 101.523 312.64 101.523 313.113C101.523 316.971 105.34 317.535 107.633 317.535C109.909 317.535 113.744 316.953 113.744 313.113C113.744 312.658 113.946 312.221 114.276 311.912C114.625 311.602 115.084 311.457 115.542 311.493L175.051 317.208C175.951 317.299 176.611 318.1 176.519 318.991C176.428 319.883 175.62 320.538 174.721 320.447L116.845 314.896C116.038 318.573 112.661 320.793 107.615 320.775Z" fill="#D03838"/>
<path d="M50.1981 309.254C50.0513 309.254 49.9045 309.2 49.7944 309.072C49.5925 308.854 49.6109 308.508 49.8311 308.308C54.6939 303.922 59.7584 300.591 64.9515 298.389C64.8597 298.353 64.7864 298.298 64.713 298.225C64.5111 297.989 64.5478 297.643 64.7864 297.461C75.4293 288.707 84.8062 285.503 92.6233 287.942C95.1923 288.743 97.5962 290.181 99.7615 292.183C101.468 293.784 103.046 295.75 104.404 298.025C106.734 301.902 107.689 305.305 107.725 305.451C107.799 305.687 107.689 305.924 107.487 306.051C107.285 306.179 107.01 306.16 106.826 305.997C106.808 305.978 105.138 304.468 102.22 302.666C99.5412 301.01 95.2106 298.753 89.8708 297.406C80.4756 295.04 66.0158 295.149 50.5651 309.109C50.455 309.218 50.3266 309.254 50.1981 309.254ZM80.4939 295.149C83.7235 295.149 86.9531 295.55 90.1827 296.369C95.651 297.752 100.073 300.063 102.826 301.774C104.184 302.611 105.266 303.376 106.056 303.976C105.542 302.63 104.698 300.646 103.431 298.553C101.376 295.131 97.7613 290.672 92.2747 288.961C84.898 286.668 75.9982 289.708 65.7772 298.025C67.7407 297.242 69.7408 296.605 71.741 296.132C74.6403 295.495 77.558 295.149 80.4939 295.149Z" fill="white"/>
<path d="M107.193 306.142C107.175 306.142 107.175 306.142 107.156 306.142C106.918 306.124 106.734 305.96 106.661 305.742C106.624 305.633 105.835 302.83 105.927 298.971C105.982 296.696 106.312 294.531 106.936 292.529C107.725 290.017 108.955 287.742 110.606 285.795C113.469 282.391 117.634 279.916 122.937 278.405C129.213 276.64 137.214 276.203 146.719 277.15C147.013 277.186 147.233 277.441 147.214 277.75C147.178 278.041 146.921 278.26 146.609 278.242C129.36 276.531 117.524 279.315 111.45 286.504C107.927 290.672 107.083 295.604 107.01 298.99C106.954 301.064 107.175 302.848 107.395 304.013C108 302.939 108.991 301.337 110.423 299.645C111.909 297.898 113.542 296.405 115.285 295.204C117.469 293.712 119.836 292.674 122.313 292.165C126.222 291.346 130.461 291.746 134.902 293.384C140.076 295.295 145.618 298.899 151.361 304.122C151.582 304.322 151.6 304.668 151.398 304.886C151.196 305.105 150.848 305.123 150.627 304.923C140.186 295.441 130.736 291.491 122.57 293.22C117.267 294.33 113.524 297.697 111.303 300.318C108.881 303.176 107.707 305.815 107.688 305.851C107.597 306.015 107.395 306.142 107.193 306.142Z" fill="white"/>
<path d="M107.193 306.142C107.156 306.142 107.12 306.142 107.083 306.124C106.789 306.069 106.587 305.778 106.661 305.487C106.698 305.287 107.744 300.336 114.772 294.094C118.845 290.472 124.13 287.141 130.461 284.211C138.351 280.571 147.912 277.532 158.885 275.184C159.179 275.129 159.472 275.311 159.527 275.603C159.582 275.894 159.399 276.185 159.105 276.24C134.571 281.499 121.891 289.234 115.579 294.804C112.019 297.952 110.074 300.737 109.065 302.52C107.982 304.45 107.725 305.669 107.707 305.669C107.67 305.96 107.45 306.142 107.193 306.142Z" fill="white"/>
<path d="M44.3078 313.641C44.1793 313.641 44.0692 313.568 44.0509 313.44C44.0142 313.295 44.0876 313.149 44.2344 313.113C44.3445 313.076 56.3087 309.837 69.7959 307.58C77.7231 306.251 84.6411 305.523 90.3296 305.414C97.4861 305.269 102.734 306.106 105.945 307.908C106.074 307.98 106.129 308.144 106.056 308.272C105.982 308.399 105.817 308.454 105.689 308.381C102.551 306.634 97.3943 305.815 90.3479 305.96C84.6778 306.069 77.7965 306.797 69.906 308.108C56.4371 310.365 44.5096 313.586 44.3995 313.622C44.3628 313.641 44.3445 313.641 44.3078 313.641Z" fill="#F2DDC9"/>
<path d="M46.2345 315.752C46.1244 315.752 46.0143 315.679 45.9776 315.57C45.9225 315.424 46.0143 315.279 46.1611 315.224C54.2167 312.621 62.3825 310.692 70.4198 309.473C76.8423 308.508 83.2097 307.999 89.3203 307.944C99.7431 307.871 105.945 309.218 106 309.236C106.147 309.273 106.239 309.418 106.202 309.564C106.166 309.709 106.019 309.8 105.872 309.764C105.817 309.746 99.6697 308.417 89.3019 308.49C79.7416 308.563 64.5111 309.855 46.3262 315.734C46.2895 315.752 46.2528 315.752 46.2345 315.752Z" fill="#F2DDC9"/>
<path d="M47.1702 316.789C47.0601 316.789 46.95 316.716 46.9133 316.625C46.8582 316.48 46.9316 316.334 47.0601 316.28C50.987 314.751 56.5287 313.459 63.52 312.458C69.0984 311.657 75.6127 311.02 82.8976 310.583C95.2839 309.837 105.707 309.91 105.798 309.91C105.945 309.91 106.074 310.037 106.074 310.183C106.074 310.328 105.945 310.456 105.798 310.456C105.688 310.456 95.2839 310.383 82.9343 311.129C71.539 311.821 56.0883 313.349 47.2619 316.789C47.2436 316.771 47.2069 316.789 47.1702 316.789Z" fill="#F2DDC9"/>
<path d="M170.17 312.894C170.134 312.894 170.097 312.894 170.06 312.876C155.142 306.16 139.03 305.269 128.112 305.705C116.295 306.179 107.89 308.253 107.799 308.272C107.652 308.308 107.505 308.217 107.468 308.071C107.432 307.926 107.523 307.78 107.67 307.744C107.762 307.726 116.203 305.633 128.075 305.159C135.048 304.886 141.838 305.214 148.224 306.142C156.224 307.307 163.638 309.4 170.28 312.385C170.427 312.439 170.482 312.603 170.409 312.749C170.372 312.822 170.262 312.894 170.17 312.894Z" fill="#F2DDC9"/>
<path d="M171.051 314.86C171.014 314.86 170.978 314.86 170.941 314.842C156.995 308.617 140.535 307.58 129.195 307.798C116.882 308.035 107.762 309.764 107.67 309.782C107.523 309.819 107.377 309.709 107.358 309.564C107.321 309.418 107.432 309.273 107.578 309.254C107.67 309.236 116.827 307.489 129.176 307.252C136.425 307.107 143.361 307.507 149.747 308.435C157.747 309.6 164.959 311.584 171.161 314.35C171.308 314.405 171.363 314.569 171.29 314.714C171.253 314.805 171.161 314.86 171.051 314.86Z" fill="#F2DDC9"/>
<path d="M171.198 316.261C171.161 316.261 171.124 316.261 171.088 316.243C161.564 311.893 145.049 310.656 132.883 310.401C119.671 310.11 108.569 310.874 108.459 310.892C108.312 310.911 108.184 310.783 108.166 310.638C108.147 310.492 108.276 310.365 108.422 310.346C108.533 310.346 119.653 309.582 132.883 309.855C140.663 310.019 147.636 310.51 153.619 311.311C161.105 312.312 167.069 313.804 171.308 315.752C171.436 315.806 171.51 315.97 171.436 316.116C171.4 316.189 171.308 316.261 171.198 316.261Z" fill="#F2DDC9"/>
</g>
<defs>
<clipPath id="clip0_125_25418">
<rect width="329" height="364" fill="white"/>
</clipPath>
</defs>
</svg>
