<svg width="27" height="27" viewBox="0 0 27 27" fill="none" xmlns="http://www.w3.org/2000/svg">
<path d="M24.7725 18.9226L21.2512 10.6876C20.61 9.18005 19.6537 8.32505 18.5625 8.2688C17.4825 8.21255 16.4362 8.9663 15.6375 10.4063L13.5 14.2426C13.05 15.0526 12.4087 15.5363 11.7112 15.5926C11.0025 15.6601 10.2937 15.2888 9.71997 14.5576L9.47247 14.2426C8.67372 13.2413 7.68372 12.7576 6.67122 12.8588C5.65872 12.9601 4.79247 13.6576 4.21872 14.7938L2.27247 18.6751C1.57497 20.0813 1.64247 21.7126 2.46372 23.0401C3.28497 24.3676 4.71372 25.1663 6.27747 25.1663H20.6325C22.14 25.1663 23.5462 24.4126 24.3787 23.1526C25.2337 21.8926 25.3687 20.3063 24.7725 18.9226Z" fill="#D03838"/>
<path d="M7.84107 9.42751C9.94114 9.42751 11.6436 7.72507 11.6436 5.62501C11.6436 3.52495 9.94114 1.82251 7.84107 1.82251C5.74101 1.82251 4.03857 3.52495 4.03857 5.62501C4.03857 7.72507 5.74101 9.42751 7.84107 9.42751Z" fill="#D03838"/>
</svg>
